FrauncesItalic-BlackOpMax.ufo
<glyph name="exclam" format="2">
  <advance width="234"/>
  <unicode hex="0021"/>
  <outline>
    <contour>
      <point x="293" y="711" type="curve" smooth="yes"/>
      <point x="342" y="711"/>
      <point x="383" y="664"/>
      <point x="383" y="607" type="curve" smooth="yes"/>
      <point x="383" y="594"/>
      <point x="386" y="585"/>
      <point x="372" y="560" type="curve" smooth="yes"/>
      <point x="215" y="227" type="line" smooth="yes"/>
      <point x="195" y="189"/>
      <point x="178" y="182"/>
      <point x="156" y="182" type="curve" smooth="yes"/>
      <point x="133" y="182"/>
      <point x="119" y="202"/>
      <point x="122" y="232" type="curve" smooth="yes"/>
      <point x="172" y="593" type="line" smooth="yes"/>
      <point x="175" y="607"/>
      <point x="178" y="617"/>
      <point x="181" y="627" type="curve" smooth="yes"/>
      <point x="197" y="672"/>
      <point x="244" y="711"/>
    </contour>
    <component base="period" xScale="0.9329999999999999" yScale="0.9329999999999999" xOffset="5" yOffset="-1"/>
  </outline>
</glyph>
<glyph name="numbersign" format="1">
  <advance width="602"/>
  <unicode hex="0023"/>
  <outline>
    <contour>
      <point x="290" y="340" type="curve" smooth="yes"/>
      <point x="205" y="149"/>
      <point x="135" y="117"/>
      <point x="116" y="41" type="curve" smooth="yes"/>
      <point x="108" y="6"/>
      <point x="130" y="-16"/>
      <point x="173" y="-16" type="curve" smooth="yes"/>
      <point x="204" y="-16"/>
      <point x="248" y="-5"/>
      <point x="265" y="39" type="curve" smooth="yes"/>
      <point x="287" y="111"/>
      <point x="247" y="153"/>
      <point x="326" y="340" type="curve" smooth="yes"/>
      <point x="405" y="526"/>
      <point x="477" y="563"/>
      <point x="492" y="638" type="curve" smooth="yes"/>
      <point x="503" y="674"/>
      <point x="478" y="695"/>
      <point x="437" y="695" type="curve" smooth="yes"/>
      <point x="396" y="695"/>
      <point x="358" y="679"/>
      <point x="345" y="636" type="curve" smooth="yes"/>
      <point x="318" y="556"/>
      <point x="360" y="502"/>
    </contour>
    <contour>
      <point x="463" y="340" type="curve" smooth="yes"/>
      <point x="389" y="150"/>
      <point x="310" y="117"/>
      <point x="290" y="41" type="curve" smooth="yes"/>
      <point x="283" y="6"/>
      <point x="308" y="-16"/>
      <point x="348" y="-16" type="curve" smooth="yes"/>
      <point x="380" y="-16"/>
      <point x="425" y="-5"/>
      <point x="440" y="39" type="curve" smooth="yes"/>
      <point x="462" y="112"/>
      <point x="419" y="144"/>
      <point x="501" y="340" type="curve" smooth="yes"/>
      <point x="576" y="526"/>
      <point x="654" y="563"/>
      <point x="669" y="638" type="curve" smooth="yes"/>
      <point x="679" y="674"/>
      <point x="654" y="695"/>
      <point x="616" y="695" type="curve" smooth="yes"/>
      <point x="569" y="695"/>
      <point x="539" y="678"/>
      <point x="522" y="636" type="curve" smooth="yes"/>
      <point x="492" y="560"/>
      <point x="538" y="538"/>
    </contour>
    <contour>
      <point x="417" y="420" type="curve" smooth="yes"/>
      <point x="541" y="420"/>
      <point x="571" y="360"/>
      <point x="634" y="360" type="curve" smooth="yes"/>
      <point x="690" y="360"/>
      <point x="727" y="400"/>
      <point x="736" y="435" type="curve" smooth="yes"/>
      <point x="746" y="475"/>
      <point x="732" y="510"/>
      <point x="681" y="510" type="curve" smooth="yes"/>
      <point x="618" y="510"/>
      <point x="553" y="456"/>
      <point x="428" y="456" type="curve" smooth="yes"/>
      <point x="305" y="456"/>
      <point x="272" y="511"/>
      <point x="208" y="511" type="curve" smooth="yes"/>
      <point x="152" y="511"/>
      <point x="121" y="476"/>
      <point x="112" y="437" type="curve" smooth="yes"/>
      <point x="99" y="394"/>
      <point x="113" y="363"/>
      <point x="171" y="362" type="curve" smooth="yes"/>
      <point x="231" y="361"/>
      <point x="295" y="420"/>
    </contour>
    <contour>
      <point x="355" y="229" type="curve" smooth="yes"/>
      <point x="479" y="229"/>
      <point x="511" y="179"/>
      <point x="575" y="179" type="curve" smooth="yes"/>
      <point x="631" y="179"/>
      <point x="662" y="215"/>
      <point x="673" y="254" type="curve" smooth="yes"/>
      <point x="685" y="287"/>
      <point x="671" y="323"/>
      <point x="617" y="323" type="curve" smooth="yes"/>
      <point x="558" y="323"/>
      <point x="492" y="268"/>
      <point x="365" y="267" type="curve" smooth="yes"/>
      <point x="242" y="267"/>
      <point x="209" y="324"/>
      <point x="146" y="324" type="curve" smooth="yes"/>
      <point x="91" y="324"/>
      <point x="58" y="288"/>
      <point x="50" y="255" type="curve" smooth="yes"/>
      <point x="37" y="210"/>
      <point x="53" y="181"/>
      <point x="106" y="181" type="curve" smooth="yes"/>
      <point x="169" y="181"/>
      <point x="231" y="229"/>
    </contour>
  </outline>
</glyph>
<glyph name="dollar" format="1">
  <advance width="496"/>
  <unicode hex="0024"/>
  <outline>
    <contour>
      <point x="256" y="0" type="curve" smooth="yes"/>
      <point x="394" y="0"/>
      <point x="510" y="66"/>
      <point x="532" y="158" type="curve" smooth="yes"/>
      <point x="556" y="244"/>
      <point x="524" y="327"/>
      <point x="380" y="377" type="curve" smooth="yes"/>
      <point x="296" y="414"/>
      <point x="263" y="441"/>
      <point x="275" y="488" type="curve" smooth="yes"/>
      <point x="290" y="545"/>
      <point x="347" y="582"/>
      <point x="406" y="582" type="curve" smooth="yes"/>
      <point x="463" y="582"/>
      <point x="493" y="541"/>
      <point x="478" y="487" type="curve" smooth="yes"/>
      <point x="471" y="461" type="line" smooth="yes"/>
      <point x="459" y="416"/>
      <point x="483" y="385"/>
      <point x="521" y="385" type="curve" smooth="yes"/>
      <point x="558" y="385"/>
      <point x="598" y="415"/>
      <point x="611" y="460" type="curve" smooth="yes"/>
      <point x="634" y="548"/>
      <point x="554" y="629"/>
      <point x="437" y="629" type="curve" smooth="yes"/>
      <point x="304" y="629"/>
      <point x="188" y="560"/>
      <point x="161" y="453" type="curve" smooth="yes"/>
      <point x="137" y="364"/>
      <point x="171" y="291"/>
      <point x="297" y="239" type="curve" smooth="yes"/>
      <point x="385" y="204"/>
      <point x="419" y="175"/>
      <point x="407" y="129" type="curve" smooth="yes"/>
      <point x="392" y="82"/>
      <point x="340" y="51"/>
      <point x="275" y="51" type="curve" smooth="yes"/>
      <point x="216" y="51"/>
      <point x="188" y="92"/>
      <point x="202" y="152" type="curve" smooth="yes"/>
      <point x="209" y="178" type="line" smooth="yes"/>
      <point x="223" y="226"/>
      <point x="196" y="259"/>
      <point x="158" y="259" type="curve" smooth="yes"/>
      <point x="117" y="259"/>
      <point x="79" y="228"/>
      <point x="66" y="179" type="curve" smooth="yes"/>
      <point x="41" y="93"/>
      <point x="119" y="0"/>
    </contour>
    <contour>
      <point x="313" y="243" type="line"/>
      <point x="275" y="94"/>
      <point x="204" y="57"/>
      <point x="187" y="-9" type="curve" smooth="yes"/>
      <point x="173" y="-64"/>
      <point x="202" y="-88"/>
      <point x="239" y="-88" type="curve" smooth="yes"/>
      <point x="277" y="-88"/>
      <point x="312" y="-63"/>
      <point x="325" y="-16" type="curve" smooth="yes"/>
      <point x="343" y="50"/>
      <point x="295" y="88"/>
      <point x="338" y="243" type="curve"/>
    </contour>
    <contour>
      <point x="370" y="370" type="line"/>
      <point x="416" y="538"/>
      <point x="483" y="577"/>
      <point x="502" y="646" type="curve" smooth="yes"/>
      <point x="514" y="696"/>
      <point x="485" y="722"/>
      <point x="451" y="722" type="curve" smooth="yes"/>
      <point x="416" y="722"/>
      <point x="379" y="699"/>
      <point x="365" y="648" type="curve" smooth="yes"/>
      <point x="347" y="581"/>
      <point x="394" y="543"/>
      <point x="346" y="370" type="curve"/>
    </contour>
  </outline>
</glyph>
<glyph name="ampersand" format="2">
  <advance width="695"/>
  <unicode hex="0026"/>
  <outline>
    <contour>
      <point x="187" y="160" type="line" smooth="yes"/>
      <point x="14" y="31"/>
      <point x="-31" y="-46"/>
      <point x="-31" y="-115" type="curve" smooth="yes"/>
      <point x="-31" y="-203"/>
      <point x="17" y="-245"/>
      <point x="78" y="-245" type="curve" smooth="yes"/>
      <point x="141" y="-245"/>
      <point x="188" y="-204"/>
      <point x="188" y="-155" type="curve" smooth="yes"/>
      <point x="188" y="-116"/>
      <point x="133" y="-100"/>
      <point x="133" y="-58" type="curve" smooth="yes"/>
      <point x="133" y="1"/>
      <point x="151" y="64"/>
      <point x="254" y="141" type="curve" smooth="yes"/>
      <point x="589" y="388" type="line" smooth="yes"/>
      <point x="712" y="477"/>
      <point x="774" y="542"/>
      <point x="774" y="633" type="curve" smooth="yes"/>
      <point x="774" y="685"/>
      <point x="738" y="715"/>
      <point x="699" y="715" type="curve" smooth="yes"/>
      <point x="629" y="715"/>
      <point x="580" y="671"/>
      <point x="580" y="631" type="curve" smooth="yes"/>
      <point x="580" y="597"/>
      <point x="606" y="578"/>
      <point x="606" y="535" type="curve" smooth="yes"/>
      <point x="606" y="482"/>
      <point x="576" y="451"/>
      <point x="521" y="409" type="curve" smooth="yes"/>
    </contour>
    <contour>
      <point x="559" y="124" type="curve" smooth="yes"/>
      <point x="559" y="79"/>
      <point x="516" y="49"/>
      <point x="462" y="49" type="curve" smooth="yes"/>
      <point x="356" y="49"/>
      <point x="298" y="117"/>
      <point x="298" y="227" type="curve" smooth="yes"/>
      <point x="298" y="350"/>
      <point x="338" y="431"/>
      <point x="384" y="431" type="curve" smooth="yes"/>
      <point x="380" y="431"/>
      <point x="401" y="422"/>
      <point x="401" y="380" type="curve" smooth="yes"/>
      <point x="401" y="286"/>
      <point x="393" y="243"/>
      <point x="416" y="260" type="curve" smooth="yes"/>
      <point x="497" y="321"/>
      <point x="551" y="350"/>
      <point x="585" y="350" type="curve" smooth="yes"/>
      <point x="595" y="350"/>
      <point x="601" y="364"/>
      <point x="601" y="381" type="curve" smooth="yes"/>
      <point x="601" y="425"/>
      <point x="516" y="461"/>
      <point x="397" y="461" type="curve" smooth="yes"/>
      <point x="233" y="461"/>
      <point x="113" y="333"/>
      <point x="113" y="179" type="curve" smooth="yes"/>
      <point x="113" y="64"/>
      <point x="212" y="-10"/>
      <point x="408" y="-10" type="curve" smooth="yes"/>
      <point x="623" y="-10"/>
      <point x="702" y="65"/>
      <point x="702" y="187" type="curve" smooth="yes"/>
      <point x="702" y="260"/>
      <point x="653" y="295"/>
      <point x="594" y="295" type="curve" smooth="yes"/>
      <point x="544" y="295"/>
      <point x="517" y="258"/>
      <point x="517" y="221" type="curve" smooth="yes"/>
      <point x="517" y="182"/>
      <point x="559" y="161"/>
    </contour>
  </outline>
</glyph>
<glyph name="quotesingle" format="2">
  <advance width="431"/>
  <unicode hex="0027"/>
  <outline>
    <contour>
      <point x="391" y="1239" type="curve" smooth="yes"/>
      <point x="488" y="1239"/>
      <point x="516" y="1231"/>
      <point x="516" y="1195" type="curve" smooth="yes"/>
      <point x="516" y="1140"/>
      <point x="415" y="1000"/>
      <point x="208" y="932" type="curve" smooth="yes"/>
      <point x="192" y="927"/>
      <point x="189" y="921"/>
      <point x="190" y="914" type="curve" smooth="yes"/>
      <point x="192" y="908"/>
      <point x="200" y="907"/>
      <point x="217" y="912" type="curve" smooth="yes"/>
      <point x="431" y="976"/>
      <point x="631" y="1167"/>
      <point x="631" y="1401" type="curve" smooth="yes"/>
      <point x="631" y="1500"/>
      <point x="577" y="1555"/>
      <point x="481" y="1555" type="curve" smooth="yes"/>
      <point x="341" y="1555"/>
      <point x="239" y="1445"/>
      <point x="239" y="1350" type="curve" smooth="yes"/>
      <point x="239" y="1288"/>
      <point x="282" y="1239"/>
    </contour>
  </outline>
</glyph>
<glyph name="parenleft" format="1">
  <advance width="372"/>
  <unicode hex="0028"/>
  <outline>
    <contour>
      <point x="113" y="312" type="curve" smooth="yes"/>
      <point x="44" y="69"/>
      <point x="129" y="-98"/>
      <point x="251" y="-142" type="curve" smooth="yes"/>
      <point x="277" y="-151"/>
      <point x="305" y="-155"/>
      <point x="321" y="-155" type="curve" smooth="yes"/>
      <point x="333" y="-155"/>
      <point x="348" y="-147"/>
      <point x="352" y="-132" type="curve" smooth="yes"/>
      <point x="355" y="-123"/>
      <point x="350" y="-119"/>
      <point x="334" y="-108" type="curve" smooth="yes"/>
      <point x="243" y="-60"/>
      <point x="233" y="108"/>
      <point x="290" y="312" type="curve" smooth="yes"/>
      <point x="346" y="515"/>
      <point x="453" y="652"/>
      <point x="541" y="702" type="curve" smooth="yes"/>
      <point x="559" y="710"/>
      <point x="570" y="719"/>
      <point x="572" y="731" type="curve" smooth="yes"/>
      <point x="575" y="741"/>
      <point x="568" y="750"/>
      <point x="556" y="750" type="curve" smooth="yes"/>
      <point x="542" y="750"/>
      <point x="521" y="742"/>
      <point x="481" y="728" type="curve" smooth="yes"/>
      <point x="324" y="660"/>
      <point x="164" y="497"/>
    </contour>
  </outline>
</glyph>
<glyph name="asterisk" format="1">
  <advance width="407"/>
  <unicode hex="002A"/>
  <outline>
    <contour>
      <point x="359" y="536" type="line"/>
      <point x="383" y="626"/>
      <point x="449" y="644"/>
      <point x="457" y="674" type="curve" smooth="yes"/>
      <point x="470" y="723"/>
      <point x="444" y="745"/>
      <point x="409" y="745" type="curve" smooth="yes"/>
      <point x="370" y="745"/>
      <point x="323" y="721"/>
      <point x="309" y="674" type="curve" smooth="yes"/>
      <point x="300" y="644"/>
      <point x="357" y="624"/>
      <point x="333" y="536" type="curve"/>
    </contour>
    <contour>
      <point x="355" y="546" type="line"/>
      <point x="276" y="574"/>
      <point x="297" y="638"/>
      <point x="270" y="647" type="curve" smooth="yes"/>
      <point x="226" y="663"/>
      <point x="191" y="640"/>
      <point x="170" y="606" type="curve" smooth="yes"/>
      <point x="148" y="569"/>
      <point x="146" y="523"/>
      <point x="186" y="507" type="curve" smooth="yes"/>
      <point x="212" y="496"/>
      <point x="263" y="550"/>
      <point x="338" y="521" type="curve"/>
    </contour>
    <contour>
      <point x="343" y="541" type="line"/>
      <point x="268" y="470"/>
      <point x="214" y="493"/>
      <point x="190" y="467" type="curve" smooth="yes"/>
      <point x="152" y="427"/>
      <point x="156" y="392"/>
      <point x="176" y="371" type="curve" smooth="yes"/>
      <point x="202" y="347"/>
      <point x="248" y="343"/>
      <point x="286" y="379" type="curve" smooth="yes"/>
      <point x="310" y="404"/>
      <point x="287" y="456"/>
      <point x="359" y="526" type="curve"/>
    </contour>
    <contour>
      <point x="340" y="531" type="line"/>
      <point x="367" y="455"/>
      <point x="316" y="407"/>
      <point x="323" y="381" type="curve" smooth="yes"/>
      <point x="342" y="341"/>
      <point x="380" y="342"/>
      <point x="413" y="361" type="curve" smooth="yes"/>
      <point x="454" y="383"/>
      <point x="483" y="427"/>
      <point x="468" y="467" type="curve" smooth="yes"/>
      <point x="459" y="491"/>
      <point x="392" y="473"/>
      <point x="363" y="546" type="curve"/>
    </contour>
    <contour>
      <point x="349" y="526" type="line"/>
      <point x="442" y="555"/>
      <point x="464" y="501"/>
      <point x="495" y="510" type="curve" smooth="yes"/>
      <point x="546" y="526"/>
      <point x="566" y="563"/>
      <point x="563" y="595" type="curve" smooth="yes"/>
      <point x="562" y="633"/>
      <point x="536" y="666"/>
      <point x="489" y="652" type="curve" smooth="yes"/>
      <point x="456" y="642"/>
      <point x="437" y="578"/>
      <point x="348" y="552" type="curve"/>
    </contour>
  </outline>
</glyph>
<glyph name="plus" format="1">
  <advance width="499"/>
  <unicode hex="002B"/>
  <outline>
    <contour>
      <point x="97" y="304" type="curve" smooth="yes"/>
      <point x="89" y="268"/>
      <point x="113" y="239"/>
      <point x="148" y="239" type="curve" smooth="yes"/>
      <point x="186" y="239"/>
      <point x="245" y="261"/>
      <point x="324" y="261" type="curve" smooth="yes"/>
      <point x="398" y="261"/>
      <point x="446" y="239"/>
      <point x="480" y="239" type="curve" smooth="yes"/>
      <point x="521" y="239"/>
      <point x="556" y="268"/>
      <point x="565" y="303" type="curve" smooth="yes"/>
      <point x="574" y="339"/>
      <point x="554" y="369"/>
      <point x="516" y="369" type="curve" smooth="yes"/>
      <point x="480" y="369"/>
      <point x="419" y="347"/>
      <point x="345" y="347" type="curve" smooth="yes"/>
      <point x="264" y="347"/>
      <point x="222" y="369"/>
      <point x="185" y="369" type="curve" smooth="yes"/>
      <point x="150" y="369"/>
      <point x="106" y="343"/>
    </contour>
    <contour>
      <point x="272" y="68" type="curve" smooth="yes"/>
      <point x="309" y="68"/>
      <point x="343" y="99"/>
      <point x="352" y="135" type="curve" smooth="yes"/>
      <point x="362" y="174"/>
      <point x="358" y="224"/>
      <point x="378" y="305" type="curve" smooth="yes"/>
      <point x="396" y="380"/>
      <point x="436" y="435"/>
      <point x="445" y="469" type="curve" smooth="yes"/>
      <point x="457" y="510"/>
      <point x="435" y="536"/>
      <point x="398" y="536" type="curve" smooth="yes"/>
      <point x="359" y="536"/>
      <point x="325" y="509"/>
      <point x="316" y="469" type="curve" smooth="yes"/>
      <point x="307" y="434"/>
      <point x="310" y="381"/>
      <point x="292" y="305" type="curve" smooth="yes"/>
      <point x="272" y="224"/>
      <point x="232" y="173"/>
      <point x="223" y="136" type="curve" smooth="yes"/>
      <point x="214" y="103"/>
      <point x="233" y="68"/>
    </contour>
  </outline>
</glyph>
<glyph name="comma" format="2">
  <advance width="591"/>
  <unicode hex="002C"/>
  <outline>
    <contour>
      <point x="224" y="0" type="curve" smooth="yes"/>
      <point x="324" y="0"/>
      <point x="353.0" y="-9.0"/>
      <point x="353" y="-49" type="curve" smooth="yes"/>
      <point x="353" y="-110"/>
      <point x="245" y="-268"/>
      <point x="20" y="-341" type="curve" smooth="yes"/>
      <point x="2.5" y="-346.8333333333333"/>
      <point x="-1.0" y="-353.0"/>
      <point x="1" y="-361" type="curve" smooth="yes"/>
      <point x="3" y="-368"/>
      <point x="11.799999999999997" y="-368.8"/>
      <point x="31" y="-364" type="curve" smooth="yes"/>
      <point x="263.64560997530066" y="-293.10799009336336"/>
      <point x="481.0" y="-80.21660649819495"/>
      <point x="481" y="180" type="curve" smooth="yes"/>
      <point x="481.0" y="290.45962732919253"/>
      <point x="420.0" y="351.0"/>
      <point x="314" y="351" type="curve" smooth="yes"/>
      <point x="164" y="351"/>
      <point x="55" y="229"/>
      <point x="55" y="123" type="curve" smooth="yes"/>
      <point x="55" y="54"/>
      <point x="103" y="0"/>
    </contour>
  </outline>
</glyph>
<glyph name="hyphen" format="2">
  <advance width="528"/>
  <unicode hex="002D"/>
  <outline>
    <contour>
      <point x="513" y="587" type="curve" smooth="yes"/>
      <point x="99" y="587" type="line" smooth="yes"/>
      <point x="92" y="587"/>
      <point x="89" y="587"/>
      <point x="87" y="580" type="curve" smooth="yes"/>
      <point x="51" y="448" type="line" smooth="yes"/>
      <point x="50" y="443"/>
      <point x="50" y="441"/>
      <point x="55" y="441" type="curve" smooth="yes"/>
      <point x="472" y="441" type="line" smooth="yes"/>
      <point x="479.0" y="441.0"/>
      <point x="482" y="441"/>
      <point x="484" y="448" type="curve" smooth="yes"/>
      <point x="517" y="580" type="line" smooth="yes"/>
      <point x="518" y="585"/>
      <point x="518.0" y="587.0"/>
    </contour>
  </outline>
</glyph>
<glyph name="period" format="2">
  <advance width="598"/>
  <unicode hex="002E"/>
  <outline>
    <contour>
      <point x="225" y="-26" type="curve" smooth="yes"/>
      <point x="391" y="-26"/>
      <point x="478" y="78"/>
      <point x="478" y="181" type="curve" smooth="yes"/>
      <point x="478" y="261"/>
      <point x="422" y="321"/>
      <point x="319" y="321" type="curve" smooth="yes"/>
      <point x="168" y="321"/>
      <point x="70" y="225"/>
      <point x="70" y="112" type="curve" smooth="yes"/>
      <point x="70" y="31"/>
      <point x="128" y="-26"/>
    </contour>
  </outline>
</glyph>
<glyph name="zero" format="2">
  <advance width="1262"/>
  <unicode hex="0030"/>
  <outline>
    <contour>
      <point x="904" y="1419" type="curve" smooth="yes"/>
      <point x="541" y="1419"/>
      <point x="231" y="1135"/>
      <point x="111" y="685" type="curve" smooth="yes"/>
      <point x="-11" y="231"/>
      <point x="126" y="-20"/>
      <point x="484" y="-20" type="curve" smooth="yes"/>
      <point x="833" y="-20"/>
      <point x="1163" y="253"/>
      <point x="1300" y="765" type="curve" smooth="yes"/>
      <point x="1409" y="1172"/>
      <point x="1247" y="1419"/>
    </contour>
    <contour>
      <point x="869" y="705" type="curve" smooth="yes"/>
      <point x="725" y="164"/>
      <point x="593" y="-5"/>
      <point x="491" y="-5" type="curve" smooth="yes"/>
      <point x="386.0" y="-5"/>
      <point x="374.0" y="134.0"/>
      <point x="534" y="730" type="curve" smooth="yes"/>
      <point x="645" y="1144"/>
      <point x="786" y="1405"/>
      <point x="898" y="1405" type="curve" smooth="yes"/>
      <point x="1006.0" y="1405.0"/>
      <point x="1015" y="1254"/>
    </contour>
  </outline>
</glyph>
<glyph name="one" format="2">
  <advance width="902"/>
  <unicode hex="0031"/>
  <outline>
    <contour>
      <point x="292" y="1328" type="line" smooth="yes"/>
      <point x="280" y="1328"/>
      <point x="277" y="1333"/>
      <point x="279" y="1340" type="curve" smooth="yes"/>
      <point x="281" y="1346"/>
      <point x="288" y="1351"/>
      <point x="297" y="1351" type="curve" smooth="yes"/>
      <point x="456" y="1351" type="line" smooth="yes"/>
      <point x="699" y="1351"/>
      <point x="823" y="1372"/>
      <point x="909" y="1444" type="curve" smooth="yes"/>
      <point x="918" y="1451"/>
      <point x="923" y="1456"/>
      <point x="931" y="1456" type="curve" smooth="yes"/>
      <point x="939" y="1456"/>
      <point x="943" y="1451"/>
      <point x="939" y="1438" type="curve" smooth="yes"/>
      <point x="589" y="129" type="line" smooth="yes"/>
      <point x="574" y="75"/>
      <point x="591" y="46"/>
      <point x="632" y="38" type="curve" smooth="yes"/>
      <point x="728" y="20" type="line" smooth="yes"/>
      <point x="737" y="18"/>
      <point x="742" y="16"/>
      <point x="741" y="10" type="curve" smooth="yes"/>
      <point x="739" y="4"/>
      <point x="732" y="0"/>
      <point x="723" y="0" type="curve" smooth="yes"/>
      <point x="-82" y="0" type="line" smooth="yes"/>
      <point x="-92" y="0"/>
      <point x="-97" y="4"/>
      <point x="-95" y="11" type="curve" smooth="yes"/>
      <point x="-93" y="17"/>
      <point x="-87" y="19"/>
      <point x="-74" y="21" type="curve" smooth="yes"/>
      <point x="56" y="38" type="line" smooth="yes"/>
      <point x="106" y="44"/>
      <point x="145" y="72"/>
      <point x="161" y="129" type="curve" smooth="yes"/>
      <point x="470" y="1285" type="line" smooth="yes"/>
      <point x="478" y="1314"/>
      <point x="468" y="1328"/>
      <point x="446" y="1328" type="curve" smooth="yes"/>
    </contour>
  </outline>
</glyph>
<glyph name="two" format="2">
  <advance width="1196"/>
  <unicode hex="0032"/>
  <outline>
    <contour>
      <point x="379" y="534" type="curve" smooth="yes"/>
      <point x="97" y="391"/>
      <point x="4" y="296"/>
      <point x="-28" y="176" type="curve" smooth="yes"/>
      <point x="-58" y="64"/>
      <point x="-12" y="-20"/>
      <point x="84" y="-20" type="curve" smooth="yes"/>
      <point x="197" y="-20"/>
      <point x="289" y="64"/>
      <point x="326" y="201" type="curve" smooth="yes"/>
      <point x="349" y="287"/>
      <point x="357" y="326"/>
      <point x="371" y="377" type="curve" smooth="yes"/>
      <point x="376" y="396"/>
      <point x="393" y="410"/>
      <point x="405" y="410" type="curve" smooth="yes"/>
      <point x="416" y="410"/>
      <point x="427" y="398"/>
      <point x="430" y="356" type="curve" smooth="yes"/>
      <point x="459" y="68"/>
      <point x="511" y="-20"/>
      <point x="691" y="-20" type="curve" smooth="yes"/>
      <point x="889" y="-20"/>
      <point x="1057" y="100"/>
      <point x="1191" y="512" type="curve" smooth="yes"/>
      <point x="1193" y="518"/>
      <point x="1193" y="522"/>
      <point x="1189" y="523" type="curve" smooth="yes"/>
      <point x="1186" y="524"/>
      <point x="1182" y="521"/>
      <point x="1178" y="514" type="curve" smooth="yes"/>
      <point x="1122" y="421"/>
      <point x="1058" y="386"/>
      <point x="946" y="386" type="curve" smooth="yes"/>
      <point x="793" y="386"/>
      <point x="635" y="435"/>
      <point x="408" y="435" type="curve" smooth="yes"/>
      <point x="238" y="435"/>
      <point x="58" y="356"/>
      <point x="-8" y="203" type="curve"/>
      <point x="-4" y="203" type="line"/>
      <point x="62" y="352"/>
      <point x="200" y="446"/>
      <point x="398" y="497" type="curve" smooth="yes"/>
      <point x="983" y="644"/>
      <point x="1219" y="826"/>
      <point x="1283" y="1062" type="curve" smooth="yes"/>
      <point x="1340" y="1275"/>
      <point x="1210" y="1420"/>
      <point x="904" y="1420" type="curve" smooth="yes"/>
      <point x="505" y="1420"/>
      <point x="269" y="1219"/>
      <point x="215" y="1019" type="curve" smooth="yes"/>
      <point x="184" y="904"/>
      <point x="237" y="840"/>
      <point x="350" y="840" type="curve" smooth="yes"/>
      <point x="451" y="840"/>
      <point x="557" y="922"/>
      <point x="592" y="1054" type="curve" smooth="yes"/>
      <point x="638" y="1224" type="line" smooth="yes"/>
      <point x="671" y="1349"/>
      <point x="729" y="1404"/>
      <point x="808" y="1404" type="curve" smooth="yes"/>
      <point x="877" y="1404"/>
      <point x="913" y="1318"/>
      <point x="852" y="1091" type="curve" smooth="yes"/>
      <point x="783" y="831"/>
      <point x="628" y="661"/>
    </contour>
  </outline>
</glyph>
<glyph name="three" format="2">
  <advance width="1155"/>
  <unicode hex="0033"/>
  <outline>
    <contour>
      <point x="541" y="734" type="line"/>
      <point x="1370" y="1367" type="line" smooth="yes"/>
      <point x="1380" y="1375"/>
      <point x="1385" y="1382"/>
      <point x="1387" y="1387" type="curve" smooth="yes"/>
      <point x="1389" y="1395"/>
      <point x="1385" y="1400"/>
      <point x="1376" y="1400" type="curve" smooth="yes"/>
      <point x="459" y="1400" type="line" smooth="yes"/>
      <point x="440" y="1400"/>
      <point x="425" y="1384"/>
      <point x="415" y="1359" type="curve" smooth="yes"/>
      <point x="235" y="891" type="line" smooth="yes"/>
      <point x="232" y="885"/>
      <point x="233" y="878"/>
      <point x="240" y="878" type="curve" smooth="yes"/>
      <point x="246" y="878"/>
      <point x="251" y="882"/>
      <point x="255" y="887" type="curve" smooth="yes"/>
      <point x="339" y="1029" type="line" smooth="yes"/>
      <point x="355" y="1056"/>
      <point x="377" y="1070"/>
      <point x="402" y="1070" type="curve" smooth="yes"/>
      <point x="962" y="1070" type="line"/>
      <point x="965" y="1081" type="line"/>
      <point x="540" y="753" type="line" smooth="yes"/>
      <point x="527" y="744"/>
      <point x="518" y="739"/>
      <point x="516" y="731" type="curve" smooth="yes"/>
      <point x="514" y="724"/>
      <point x="520" y="719"/>
      <point x="530" y="719" type="curve" smooth="yes"/>
      <point x="583" y="719" type="line" smooth="yes"/>
      <point x="723.7438016528926" y="719"/>
      <point x="781.3852776561746" y="593.4376031946813"/>
      <point x="714" y="342" type="curve" smooth="yes"/>
      <point x="641.8003255043765" y="74.25954041206262"/>
      <point x="555.8955823293172" y="4.0"/>
      <point x="455" y="4" type="curve" smooth="yes"/>
      <point x="367.0" y="4.0"/>
      <point x="331" y="88"/>
      <point x="358" y="190" type="curve" smooth="yes"/>
      <point x="377" y="262" type="line" smooth="yes"/>
      <point x="405" y="370"/>
      <point x="351.0" y="469.0"/>
      <point x="221" y="469" type="curve" smooth="yes"/>
      <point x="123" y="469"/>
      <point x="39.0" y="396.1269035532995"/>
      <point x="39" y="275" type="curve" smooth="yes"/>
      <point x="39.0" y="130.0"/>
      <point x="170" y="-20"/>
      <point x="478" y="-20" type="curve" smooth="yes"/>
      <point x="815" y="-20.0"/>
      <point x="1065.1152939424735" y="130.5135821073824"/>
      <point x="1120" y="375" type="curve" smooth="yes"/>
      <point x="1177" y="627"/>
      <point x="975.2156862745098" y="747.0"/>
      <point x="600" y="747" type="curve" smooth="yes"/>
      <point x="593" y="747"/>
      <point x="547" y="747"/>
      <point x="537" y="747" type="curve"/>
    </contour>
  </outline>
</glyph>
<glyph name="four" format="2">
  <advance width="1028"/>
  <unicode hex="0034"/>
  <outline>
    <contour>
      <point x="746.0" y="660.0" type="curve" smooth="yes"/>
      <point x="636.0" y="256.0" type="line" smooth="yes"/>
      <point x="622.0" y="196.0"/>
      <point x="588.0" y="174.0"/>
      <point x="532.0" y="156.0" type="curve" smooth="yes"/>
      <point x="478.0" y="140.0" type="line" smooth="yes"/>
      <point x="412.0" y="116.0"/>
      <point x="376.0" y="114.0"/>
      <point x="364.0" y="66.0" type="curve" smooth="yes"/>
      <point x="352.0" y="18.0"/>
      <point x="366.0" y="0.0"/>
      <point x="410.0" y="0.0" type="curve" smooth="yes"/>
      <point x="980.0" y="0.0" type="line" smooth="yes"/>
      <point x="1024.0" y="0.0"/>
      <point x="1052.0" y="18.0"/>
      <point x="1064.0" y="66.0" type="curve" smooth="yes"/>
      <point x="1078.0" y="114.0"/>
      <point x="1060.0" y="144.0"/>
      <point x="1026.0" y="150.0" type="curve" smooth="yes"/>
      <point x="974.0" y="152.0" type="line" smooth="yes"/>
      <point x="926.0" y="162.0"/>
      <point x="908.0" y="190.0"/>
      <point x="918.0" y="250.0" type="curve" smooth="yes"/>
      <point x="1066.0" y="810.0" type="line" smooth="yes"/>
      <point x="1088.0" y="880.0"/>
      <point x="1070.0" y="908.0"/>
      <point x="1034.0" y="908.0" type="curve" smooth="yes"/>
      <point x="1010.0" y="908.0"/>
      <point x="986.0" y="908.0"/>
      <point x="938.0" y="874.0" type="curve" smooth="yes"/>
      <point x="796.0" y="756.0" type="line" smooth="yes"/>
      <point x="768.0" y="738.0"/>
      <point x="756.0" y="708.0"/>
    </contour>
    <contour>
      <point x="616.0" y="814.0" type="curve" smooth="yes"/>
      <point x="214.0" y="512.0" type="line" smooth="yes"/>
      <point x="168.0" y="484.0"/>
      <point x="88.0" y="434.0"/>
      <point x="78.0" y="390.0" type="curve" smooth="yes"/>
      <point x="62.0" y="336.0"/>
      <point x="88.0" y="304.0"/>
      <point x="144.0" y="304.0" type="curve" smooth="yes"/>
      <point x="1024.0" y="304.0" type="line" smooth="yes"/>
      <point x="1100.0" y="304.0"/>
      <point x="1136.0" y="328.0"/>
      <point x="1160.0" y="384.0" type="curve" smooth="yes"/>
      <point x="1166.0" y="414.0"/>
      <point x="1128.0" y="432.0"/>
      <point x="1082.0" y="432.0" type="curve" smooth="yes"/>
      <point x="280.0" y="432.0" type="line"/>
      <point x="228.0" y="432.0" type="line"/>
      <point x="830.0" y="852.0" type="line" smooth="yes"/>
      <point x="1052.0" y="1018.0"/>
      <point x="1138.0" y="1096.0"/>
      <point x="1156.0" y="1158.0" type="curve" smooth="yes"/>
      <point x="1184.0" y="1272.0"/>
      <point x="1120.0" y="1352.0"/>
      <point x="1000.0" y="1352.0" type="curve" smooth="yes"/>
      <point x="854.0" y="1352.0"/>
      <point x="736.0" y="1244.0"/>
      <point x="702.0" y="1120.0" type="curve" smooth="yes"/>
      <point x="682.0" y="1042.0"/>
      <point x="780.0" y="1016.0"/>
      <point x="764.0" y="946.0" type="curve" smooth="yes"/>
      <point x="762.0" y="938.0"/>
      <point x="718.0" y="888.0"/>
    </contour>
  </outline>
</glyph>
<glyph name="five" format="2">
  <advance width="1238"/>
  <unicode hex="0035"/>
  <outline>
    <contour>
      <point x="47" y="306" type="curve" smooth="yes"/>
      <point x="-2" y="123"/>
      <point x="138" y="-20"/>
      <point x="423" y="-20" type="curve" smooth="yes"/>
      <point x="799" y="-20"/>
      <point x="1071" y="148"/>
      <point x="1140" y="408" type="curve" smooth="yes"/>
      <point x="1205" y="648"/>
      <point x="1022" y="798"/>
      <point x="688" y="798" type="curve" smooth="yes"/>
      <point x="457" y="798"/>
      <point x="336" y="728"/>
      <point x="231" y="614" type="curve"/>
      <point x="241" y="611" type="line"/>
      <point x="361" y="1059" type="line"/>
      <point x="344" y="1050" type="line"/>
      <point x="460" y="975"/>
      <point x="641" y="936"/>
      <point x="867" y="936" type="curve" smooth="yes"/>
      <point x="1171" y="936"/>
      <point x="1319" y="1051"/>
      <point x="1439" y="1424" type="curve" smooth="yes"/>
      <point x="1440" y="1431"/>
      <point x="1436" y="1434"/>
      <point x="1431" y="1434" type="curve" smooth="yes"/>
      <point x="1424" y="1434"/>
      <point x="1417" y="1431"/>
      <point x="1413" y="1424" type="curve" smooth="yes"/>
      <point x="1372" y="1362"/>
      <point x="1214" y="1315"/>
      <point x="1037" y="1315" type="curve" smooth="yes"/>
      <point x="812" y="1315"/>
      <point x="644" y="1365"/>
      <point x="491" y="1421" type="curve" smooth="yes"/>
      <point x="477" y="1426"/>
      <point x="466" y="1432"/>
      <point x="453" y="1432" type="curve" smooth="yes"/>
      <point x="438" y="1432"/>
      <point x="429" y="1424"/>
      <point x="425" y="1410" type="curve" smooth="yes"/>
      <point x="213" y="619" type="line" smooth="yes"/>
      <point x="210" y="608"/>
      <point x="216" y="597"/>
      <point x="225" y="597" type="curve" smooth="yes"/>
      <point x="237" y="597"/>
      <point x="249" y="602"/>
      <point x="262" y="617" type="curve" smooth="yes"/>
      <point x="356" y="720"/>
      <point x="473" y="765"/>
      <point x="579" y="765" type="curve" smooth="yes"/>
      <point x="728" y="765"/>
      <point x="773" y="636"/>
      <point x="703" y="372" type="curve" smooth="yes"/>
      <point x="638" y="131"/>
      <point x="532" y="-9"/>
      <point x="438" y="-9" type="curve" smooth="yes"/>
      <point x="366" y="-9"/>
      <point x="338" y="44"/>
      <point x="353" y="99" type="curve" smooth="yes"/>
      <point x="408" y="306" type="line" smooth="yes"/>
      <point x="439" y="423"/>
      <point x="386" y="502"/>
      <point x="296" y="502" type="curve" smooth="yes"/>
      <point x="186" y="502"/>
      <point x="77" y="418"/>
    </contour>
  </outline>
</glyph>
<glyph name="six" format="2">
  <advance width="1289"/>
  <unicode hex="0036"/>
  <outline>
    <contour>
      <point x="986" y="1420" type="curve" smooth="yes"/>
      <point x="605" y="1420"/>
      <point x="235" y="1161"/>
      <point x="96" y="643" type="curve" smooth="yes"/>
      <point x="-22" y="203"/>
      <point x="176" y="-20"/>
      <point x="521" y="-20" type="curve" smooth="yes"/>
      <point x="874" y="-20"/>
      <point x="1173" y="168"/>
      <point x="1245" y="435" type="curve" smooth="yes"/>
      <point x="1314" y="694"/>
      <point x="1204" y="844"/>
      <point x="941" y="844" type="curve" smooth="yes"/>
      <point x="642" y="844"/>
      <point x="486" y="735"/>
      <point x="454" y="614" type="curve"/>
      <point x="469" y="604" type="line"/>
      <point x="496" y="704"/>
      <point x="589" y="770"/>
      <point x="692" y="770" type="curve" smooth="yes"/>
      <point x="826" y="770"/>
      <point x="903" y="645"/>
      <point x="837" y="398" type="curve" smooth="yes"/>
      <point x="763" y="123"/>
      <point x="654" y="-10"/>
      <point x="538" y="-10" type="curve" smooth="yes"/>
      <point x="432" y="-10"/>
      <point x="380" y="131"/>
      <point x="506" y="602" type="curve" smooth="yes"/>
      <point x="670" y="1212"/>
      <point x="833" y="1407"/>
      <point x="951" y="1407" type="curve" smooth="yes"/>
      <point x="1019" y="1407"/>
      <point x="1040" y="1361"/>
      <point x="1020" y="1286" type="curve" smooth="yes"/>
      <point x="977" y="1127" type="line" smooth="yes"/>
      <point x="939" y="985"/>
      <point x="1018" y="897"/>
      <point x="1140" y="897" type="curve" smooth="yes"/>
      <point x="1272" y="897"/>
      <point x="1382" y="976"/>
      <point x="1418" y="1112" type="curve" smooth="yes"/>
      <point x="1465" y="1287"/>
      <point x="1341" y="1420"/>
    </contour>
  </outline>
</glyph>
<glyph name="seven" format="2">
  <advance width="1060"/>
  <unicode hex="0037"/>
  <outline>
    <contour>
      <point x="1046" y="1086" type="line"/>
      <point x="540" y="591" type="line" smooth="yes"/>
      <point x="393" y="446"/>
      <point x="295" y="313"/>
      <point x="264" y="199" type="curve" smooth="yes"/>
      <point x="227" y="59"/>
      <point x="282" y="-30"/>
      <point x="424" y="-30" type="curve" smooth="yes"/>
      <point x="575" y="-30"/>
      <point x="690" y="72"/>
      <point x="722" y="190" type="curve" smooth="yes"/>
      <point x="766" y="354"/>
      <point x="651" y="428"/>
      <point x="699" y="610" type="curve" smooth="yes"/>
      <point x="729" y="719"/>
      <point x="797" y="826"/>
      <point x="928" y="951" type="curve" smooth="yes"/>
      <point x="1334" y="1339" type="line" smooth="yes"/>
      <point x="1353" y="1357"/>
      <point x="1362" y="1371"/>
      <point x="1366" y="1383" type="curve" smooth="yes"/>
      <point x="1368" y="1392"/>
      <point x="1362" y="1400"/>
      <point x="1350" y="1400" type="curve" smooth="yes"/>
      <point x="412" y="1400" type="line" smooth="yes"/>
      <point x="395" y="1400"/>
      <point x="383" y="1388"/>
      <point x="376" y="1369" type="curve" smooth="yes"/>
      <point x="184" y="884" type="line" smooth="yes"/>
      <point x="180" y="874"/>
      <point x="183" y="869"/>
      <point x="189" y="869" type="curve" smooth="yes"/>
      <point x="196" y="869"/>
      <point x="202" y="874"/>
      <point x="207" y="882" type="curve" smooth="yes"/>
      <point x="295" y="1034" type="line" smooth="yes"/>
      <point x="312" y="1064"/>
      <point x="329" y="1071"/>
      <point x="351" y="1071" type="curve" smooth="yes"/>
      <point x="1043" y="1071" type="line"/>
    </contour>
  </outline>
</glyph>
<glyph name="eight" format="2">
  <advance width="1171"/>
  <unicode hex="0038"/>
  <outline>
    <contour>
      <point x="432" y="-20" type="curve" smooth="yes"/>
      <point x="797" y="-20"/>
      <point x="1062" y="142"/>
      <point x="1134" y="394" type="curve" smooth="yes"/>
      <point x="1177" y="545"/>
      <point x="1103" y="692"/>
      <point x="812" y="801" type="curve" smooth="yes"/>
      <point x="638" y="867"/>
      <point x="593" y="1001"/>
      <point x="646" y="1187" type="curve" smooth="yes"/>
      <point x="684" y="1317"/>
      <point x="770" y="1408"/>
      <point x="868" y="1408" type="curve" smooth="yes"/>
      <point x="977" y="1408"/>
      <point x="1009" y="1285"/>
      <point x="929" y="1003" type="curve" smooth="yes"/>
      <point x="893" y="880"/>
      <point x="840" y="756"/>
      <point x="794" y="698" type="curve"/>
      <point x="796" y="689" type="line"/>
      <point x="1072" y="721"/>
      <point x="1260" y="864"/>
      <point x="1315" y="1056" type="curve" smooth="yes"/>
      <point x="1382" y="1290"/>
      <point x="1249" y="1420"/>
      <point x="883" y="1420" type="curve" smooth="yes"/>
      <point x="529" y="1420"/>
      <point x="279" y="1239"/>
      <point x="211" y="1000" type="curve" smooth="yes"/>
      <point x="149" y="784"/>
      <point x="252" y="613"/>
      <point x="551" y="484" type="curve" smooth="yes"/>
      <point x="684" y="427"/>
      <point x="718" y="341"/>
      <point x="682" y="215" type="curve" smooth="yes"/>
      <point x="643" y="79"/>
      <point x="570" y="-3"/>
      <point x="461" y="-3" type="curve" smooth="yes"/>
      <point x="366" y="-3"/>
      <point x="328" y="98"/>
      <point x="402" y="357" type="curve" smooth="yes"/>
      <point x="427" y="444"/>
      <point x="477" y="546"/>
      <point x="513" y="611" type="curve"/>
      <point x="508" y="618" type="line"/>
      <point x="189" y="567"/>
      <point x="60" y="462"/>
      <point x="14" y="299" type="curve" smooth="yes"/>
      <point x="-41" y="108"/>
      <point x="91" y="-20"/>
    </contour>
  </outline>
</glyph>
<glyph name="nine" format="2">
  <advance width="1299"/>
  <unicode hex="0039"/>
  <outline>
    <contour>
      <point x="451" y="-20" type="curve" smooth="yes"/>
      <point x="832" y="-20"/>
      <point x="1202" y="239"/>
      <point x="1341" y="757" type="curve" smooth="yes"/>
      <point x="1459" y="1197"/>
      <point x="1261" y="1420"/>
      <point x="916" y="1420" type="curve" smooth="yes"/>
      <point x="563" y="1420"/>
      <point x="264" y="1232"/>
      <point x="193" y="965" type="curve" smooth="yes"/>
      <point x="123" y="706"/>
      <point x="233" y="556"/>
      <point x="496" y="556" type="curve" smooth="yes"/>
      <point x="795" y="556"/>
      <point x="951" y="665"/>
      <point x="984" y="786" type="curve"/>
      <point x="968" y="796" type="line"/>
      <point x="941" y="696"/>
      <point x="848" y="630"/>
      <point x="745" y="630" type="curve" smooth="yes"/>
      <point x="611" y="630"/>
      <point x="534" y="755"/>
      <point x="600" y="1002" type="curve" smooth="yes"/>
      <point x="674" y="1275"/>
      <point x="784" y="1406"/>
      <point x="904" y="1406" type="curve" smooth="yes"/>
      <point x="1006" y="1406"/>
      <point x="1056" y="1266"/>
      <point x="931" y="798" type="curve" smooth="yes"/>
      <point x="768" y="189"/>
      <point x="605" y="-5"/>
      <point x="487" y="-5" type="curve" smooth="yes"/>
      <point x="422" y="-5"/>
      <point x="402" y="55"/>
      <point x="418" y="114" type="curve" smooth="yes"/>
      <point x="456" y="256" type="line" smooth="yes"/>
      <point x="498" y="414"/>
      <point x="430" y="503"/>
      <point x="297" y="503" type="curve" smooth="yes"/>
      <point x="161" y="503"/>
      <point x="55" y="420"/>
      <point x="19" y="288" type="curve" smooth="yes"/>
      <point x="-28" y="113"/>
      <point x="96" y="-20"/>
    </contour>
  </outline>
</glyph>
<glyph name="question" format="2">
  <advance width="876"/>
  <unicode hex="003F"/>
  <outline>
    <contour>
      <point x="604.0" y="796.0" type="curve" smooth="yes"/>
      <point x="742.0" y="846.0"/>
      <point x="828.0" y="920.0"/>
      <point x="872.0" y="1134.0" type="curve" smooth="yes"/>
      <point x="896.0" y="1252.0"/>
      <point x="856.0" y="1322.0"/>
      <point x="822.0" y="1322.0" type="curve" smooth="yes"/>
      <point x="756.0" y="1322.0"/>
      <point x="716.0" y="1274.0"/>
      <point x="704.0" y="1192.0" type="curve" smooth="yes"/>
      <point x="690.0" y="1084.0" type="line" smooth="yes"/>
      <point x="676.0" y="994.0"/>
      <point x="614.0" y="948.0"/>
      <point x="548.0" y="948.0" type="curve" smooth="yes"/>
      <point x="444.0" y="948.0"/>
      <point x="386.0" y="1018.0"/>
      <point x="386.0" y="1122.0" type="curve" smooth="yes"/>
      <point x="386.0" y="1294.0"/>
      <point x="514.0" y="1420.0"/>
      <point x="820.0" y="1420.0" type="curve" smooth="yes"/>
      <point x="1066.0" y="1420.0"/>
      <point x="1198.0" y="1298.0"/>
      <point x="1142.0" y="1112.0" type="curve" smooth="yes"/>
      <point x="1102.0" y="948.0"/>
      <point x="1020.0" y="878.0"/>
      <point x="644.0" y="684.0" type="curve" smooth="yes"/>
      <point x="672.0" y="706.0"/>
      <point x="646.0" y="624.0"/>
      <point x="626.0" y="464.0" type="curve" smooth="yes"/>
      <point x="618.0" y="408.0"/>
      <point x="586.0" y="376.0"/>
      <point x="522.0" y="376.0" type="curve" smooth="yes"/>
      <point x="426.0" y="376.0"/>
      <point x="348.0" y="428.0"/>
      <point x="348.0" y="514.0" type="curve" smooth="yes"/>
      <point x="348.0" y="622.0"/>
      <point x="408.0" y="716.0"/>
    </contour>
    <contour>
      <point x="372.466" y="-14.66" type="curve" smooth="yes"/>
      <point x="558.0523703703705" y="-14.66"/>
      <point x="656.098" y="86.104"/>
      <point x="656.098" y="207.39399999999998" type="curve" smooth="yes"/>
      <point x="656.098" y="285.76599999999996"/>
      <point x="601.9839999999999" y="339.88"/>
      <point x="471.364" y="339.88" type="curve" smooth="yes"/>
      <point x="309.022" y="339.88"/>
      <point x="202.66" y="226.05399999999997"/>
      <point x="202.66" y="119.692" type="curve" smooth="yes"/>
      <point x="202.66" y="41.32"/>
      <point x="266.104" y="-14.66"/>
    </contour>
  </outline>
</glyph>
<glyph name="at" format="1">
  <advance width="780"/>
  <unicode hex="0040"/>
  <outline>
    <contour>
      <point x="370" y="212" type="curve" smooth="yes"/>
      <point x="361" y="326"/>
      <point x="447" y="418"/>
      <point x="506" y="418" type="curve" smooth="yes"/>
      <point x="526" y="418"/>
      <point x="533" y="408"/>
      <point x="535" y="388" type="curve" smooth="yes"/>
      <point x="533" y="330"/>
      <point x="463" y="167"/>
      <point x="405" y="167" type="curve" smooth="yes"/>
      <point x="391" y="167"/>
      <point x="374" y="173"/>
    </contour>
    <contour>
      <point x="691" y="143" type="curve" smooth="yes"/>
      <point x="658" y="143"/>
      <point x="646" y="154"/>
      <point x="646" y="165" type="curve" smooth="yes"/>
      <point x="646" y="201"/>
      <point x="667" y="306"/>
      <point x="678" y="367" type="curve" smooth="yes"/>
      <point x="684" y="401"/>
      <point x="717" y="395"/>
      <point x="717" y="433" type="curve" smooth="yes"/>
      <point x="717" y="470"/>
      <point x="680" y="500"/>
      <point x="606" y="500" type="curve" smooth="yes"/>
      <point x="395" y="500"/>
      <point x="192" y="310"/>
      <point x="207" y="136" type="curve" smooth="yes"/>
      <point x="212" y="85"/>
      <point x="254" y="64"/>
      <point x="317" y="64" type="curve" smooth="yes"/>
      <point x="374" y="64"/>
      <point x="461" y="101"/>
      <point x="503" y="179" type="curve"/>
      <point x="503" y="236" type="line"/>
      <point x="505" y="177"/>
      <point x="488" y="169"/>
      <point x="492" y="132" type="curve" smooth="yes"/>
      <point x="497" y="93"/>
      <point x="511" y="64"/>
      <point x="595" y="64" type="curve" smooth="yes"/>
      <point x="704" y="64"/>
      <point x="871" y="228"/>
      <point x="871" y="418" type="curve" smooth="yes"/>
      <point x="871" y="566"/>
      <point x="777" y="664"/>
      <point x="572" y="664" type="curve" smooth="yes"/>
      <point x="297" y="664"/>
      <point x="60" y="371"/>
      <point x="60" y="129" type="curve" smooth="yes"/>
      <point x="60" y="-50"/>
      <point x="152" y="-144"/>
      <point x="331" y="-144" type="curve" smooth="yes"/>
      <point x="468" y="-144"/>
      <point x="586" y="-93"/>
      <point x="704" y="21" type="curve" smooth="yes"/>
      <point x="737" y="52"/>
      <point x="721" y="80"/>
      <point x="692" y="51" type="curve" smooth="yes"/>
      <point x="592" y="-49"/>
      <point x="472" y="-108"/>
      <point x="339" y="-108" type="curve" smooth="yes"/>
      <point x="189" y="-108"/>
      <point x="98" y="-36"/>
      <point x="98" y="134" type="curve" smooth="yes"/>
      <point x="98" y="347"/>
      <point x="324" y="631"/>
      <point x="568" y="631" type="curve" smooth="yes"/>
      <point x="741" y="631"/>
      <point x="834" y="547"/>
      <point x="834" y="414" type="curve" smooth="yes"/>
      <point x="834" y="262"/>
      <point x="739" y="143"/>
    </contour>
  </outline>
</glyph>
<glyph name="A" format="2">
  <advance width="1208"/>
  <unicode hex="0041"/>
  <anchor x="994" y="1532.0" name="center"/>
  <outline>
    <contour>
      <point x="91.2581955737139" y="45.95870805042094"/>
      <point x="70" y="100"/>
      <point x="107" y="161" type="curve" smooth="yes"/>
      <point x="645" y="1049" type="line" smooth="yes"/>
      <point x="702" y="1143"/>
      <point x="712" y="1152"/>
      <point x="714" y="1154" type="curve"/>
      <point x="703" y="1152" type="line"/>
      <point x="701" y="999"/>
      <point x="658" y="214"/>
      <point x="654" y="86" type="curve" smooth="yes"/>
      <point x="653" y="66"/>
      <point x="630" y="50"/>
      <point x="612" y="46" type="curve" smooth="yes"/>
      <point x="490" y="22" type="line" smooth="yes"/>
      <point x="476" y="19"/>
      <point x="474" y="16"/>
      <point x="474" y="10" type="curve" smooth="yes"/>
      <point x="474" y="4"/>
      <point x="482" y="0"/>
      <point x="488" y="0" type="curve" smooth="yes"/>
      <point x="1110" y="0" type="line" smooth="yes"/>
      <point x="1118" y="0"/>
      <point x="1124" y="4"/>
      <point x="1124" y="12" type="curve" smooth="yes"/>
      <point x="1124" y="18"/>
      <point x="1120" y="24"/>
      <point x="1108" y="24" type="curve" smooth="yes"/>
      <point x="1044" y="28"/>
      <point x="1022" y="56"/>
      <point x="1024" y="108" type="curve" smooth="yes"/>
      <point x="1028" y="222"/>
      <point x="1052" y="1175"/>
      <point x="1056" y="1293" type="curve" smooth="yes"/>
      <point x="1059" y="1373"/>
      <point x="1100" y="1397"/>
      <point x="1188" y="1397" type="curve" smooth="yes"/>
      <point x="1198" y="1397"/>
      <point x="1202" y="1401"/>
      <point x="1202" y="1405" type="curve" smooth="yes"/>
      <point x="1203" y="1413"/>
      <point x="1197" y="1417"/>
      <point x="1152" y="1417" type="curve" smooth="yes"/>
      <point x="964" y="1417"/>
      <point x="779" y="1300"/>
      <point x="640" y="1072" type="curve" smooth="yes"/>
      <point x="94" y="173" type="line" smooth="yes"/>
      <point x="41" y="85"/>
      <point x="-30" y="35"/>
      <point x="-94" y="26" type="curve" smooth="yes"/>
      <point x="-108" y="24"/>
      <point x="-116" y="18"/>
      <point x="-116" y="12" type="curve" smooth="yes"/>
      <point x="-116" y="6"/>
      <point x="-106" y="0"/>
      <point x="-90" y="0" type="curve" smooth="yes"/>
      <point x="260" y="0" type="line" smooth="yes"/>
      <point x="270" y="0"/>
      <point x="276" y="4"/>
      <point x="276" y="14" type="curve" smooth="yes"/>
      <point x="276" y="20"/>
      <point x="274" y="24"/>
      <point x="260" y="26" type="curve" smooth="yes"/>
      <point x="167" y="37" type="line" smooth="yes"/>
    </contour>
    <contour>
      <point x="275" y="446" type="line"/>
      <point x="778" y="446" type="line"/>
      <point x="776" y="462" type="line"/>
      <point x="289" y="462" type="line"/>
    </contour>
  </outline>
</glyph>
<glyph name="B" format="2">
  <advance width="1382"/>
  <unicode hex="0042"/>
  <outline>
    <contour>
      <point x="792" y="1272" type="curve" smooth="yes"/>
      <point x="818" y="1348"/>
      <point x="846" y="1380"/>
      <point x="914" y="1380" type="curve" smooth="yes"/>
      <point x="981" y="1380"/>
      <point x="1052" y="1290"/>
      <point x="1027" y="1099" type="curve" smooth="yes"/>
      <point x="992" y="832"/>
      <point x="884" y="674"/>
      <point x="732" y="674" type="curve" smooth="yes"/>
      <point x="534" y="674" type="line"/>
      <point x="530" y="654" type="line"/>
      <point x="706" y="654" type="line" smooth="yes"/>
      <point x="822" y="654"/>
      <point x="910" y="551"/>
      <point x="874" y="311" type="curve" smooth="yes"/>
      <point x="844" y="108"/>
      <point x="727" y="20"/>
      <point x="582" y="20" type="curve" smooth="yes"/>
      <point x="504" y="20"/>
      <point x="478" y="60"/>
      <point x="496" y="136" type="curve" smooth="yes"/>
      <point x="538" y="294"/>
      <point x="702" y="984"/>
    </contour>
    <contour>
      <point x="302" y="1400" type="line" smooth="yes"/>
      <point x="292" y="1400"/>
      <point x="286" y="1396"/>
      <point x="286" y="1390" type="curve" smooth="yes"/>
      <point x="286" y="1384"/>
      <point x="292" y="1380"/>
      <point x="300" y="1378" type="curve" smooth="yes"/>
      <point x="402" y="1352" type="line" smooth="yes"/>
      <point x="414" y="1348"/>
      <point x="418" y="1342"/>
      <point x="416" y="1328" type="curve" smooth="yes"/>
      <point x="408" y="1292"/>
      <point x="94" y="126"/>
      <point x="80" y="76" type="curve" smooth="yes"/>
      <point x="72" y="50"/>
      <point x="62" y="44"/>
      <point x="38" y="40" type="curve" smooth="yes"/>
      <point x="-62" y="20" type="line" smooth="yes"/>
      <point x="-72" y="18"/>
      <point x="-74" y="14"/>
      <point x="-74" y="10" type="curve" smooth="yes"/>
      <point x="-74" y="4"/>
      <point x="-70" y="0"/>
      <point x="-62" y="0" type="curve" smooth="yes"/>
      <point x="706" y="0" type="line" smooth="yes"/>
      <point x="1082" y="0"/>
      <point x="1266" y="125"/>
      <point x="1286" y="340" type="curve" smooth="yes"/>
      <point x="1305" y="546"/>
      <point x="1136" y="670"/>
      <point x="758" y="670" type="curve"/>
      <point x="760" y="660" type="line"/>
      <point x="1144" y="660"/>
      <point x="1376" y="802"/>
      <point x="1404" y="1050" type="curve" smooth="yes"/>
      <point x="1428" y="1261"/>
      <point x="1293" y="1400"/>
      <point x="977" y="1400" type="curve" smooth="yes"/>
    </contour>
  </outline>
</glyph>
<glyph name="C" format="2">
  <advance width="1281"/>
  <unicode hex="0043"/>
  <outline>
    <contour>
      <point x="1200" y="480" type="curve" smooth="yes"/>
      <point x="1191" y="480"/>
      <point x="1182" y="477"/>
      <point x="1172" y="457" type="curve" smooth="yes"/>
      <point x="1048" y="223"/>
      <point x="950" y="126"/>
      <point x="778" y="126" type="curve" smooth="yes"/>
      <point x="625" y="126"/>
      <point x="523" y="285"/>
      <point x="596" y="671" type="curve" smooth="yes"/>
      <point x="682" y="1126"/>
      <point x="838" y="1381"/>
      <point x="1010" y="1381" type="curve" smooth="yes"/>
      <point x="1133" y="1381"/>
      <point x="1205" y="1315"/>
      <point x="1269" y="1023" type="curve" smooth="yes"/>
      <point x="1291" y="924" type="line" smooth="yes"/>
      <point x="1294" y="909"/>
      <point x="1305" y="903"/>
      <point x="1319" y="903" type="curve" smooth="yes"/>
      <point x="1326" y="903"/>
      <point x="1332" y="910"/>
      <point x="1333" y="925" type="curve" smooth="yes"/>
      <point x="1366" y="1378" type="line" smooth="yes"/>
      <point x="1368" y="1401"/>
      <point x="1361" y="1416"/>
      <point x="1347" y="1416" type="curve" smooth="yes"/>
      <point x="1304" y="1416"/>
      <point x="1206" y="1328"/>
      <point x="1177" y="1328" type="curve" smooth="yes"/>
      <point x="1157" y="1328"/>
      <point x="1105" y="1422"/>
      <point x="931" y="1422" type="curve" smooth="yes"/>
      <point x="533" y="1422"/>
      <point x="215" y="1082"/>
      <point x="130" y="646" type="curve" smooth="yes"/>
      <point x="47" y="221"/>
      <point x="246" y="-20"/>
      <point x="594" y="-20" type="curve" smooth="yes"/>
      <point x="848" y="-20"/>
      <point x="1063" y="129"/>
      <point x="1201" y="449" type="curve" smooth="yes"/>
      <point x="1211" y="473"/>
      <point x="1204" y="480"/>
    </contour>
  </outline>
</glyph>
<glyph name="D" format="2">
  <advance width="1459"/>
  <unicode hex="0044"/>
  <outline>
    <contour>
      <point x="-39" y="14" type="curve" smooth="yes"/>
      <point x="-39" y="4"/>
      <point x="-26" y="0"/>
      <point x="-6" y="0" type="curve" smooth="yes"/>
      <point x="617" y="0" type="line" smooth="yes"/>
      <point x="1101" y="0"/>
      <point x="1442" y="324"/>
      <point x="1473" y="746" type="curve" smooth="yes"/>
      <point x="1503" y="1166"/>
      <point x="1285" y="1400"/>
      <point x="921" y="1400.0" type="curve" smooth="yes"/>
      <point x="366" y="1400" type="line" smooth="yes"/>
      <point x="339" y="1400"/>
      <point x="327" y="1396"/>
      <point x="327" y="1392" type="curve" smooth="yes"/>
      <point x="327" y="1381"/>
      <point x="339" y="1378"/>
      <point x="348" y="1376" type="curve" smooth="yes"/>
      <point x="431" y="1354" type="line" smooth="yes"/>
      <point x="444" y="1350"/>
      <point x="455" y="1343"/>
      <point x="453" y="1333" type="curve" smooth="yes"/>
      <point x="443" y="1278"/>
      <point x="162" y="216"/>
      <point x="122" y="97" type="curve" smooth="yes"/>
      <point x="107" y="52"/>
      <point x="93" y="42"/>
      <point x="68" y="38" type="curve" smooth="yes"/>
      <point x="-2" y="26" type="line" smooth="yes"/>
      <point x="-27" y="22"/>
      <point x="-39" y="20"/>
    </contour>
    <contour>
      <point x="643" y="26" type="curve" smooth="yes"/>
      <point x="599" y="26" type="line" smooth="yes"/>
      <point x="546.0" y="26"/>
      <point x="517" y="49"/>
      <point x="529" y="103" type="curve" smooth="yes"/>
      <point x="547" y="185"/>
      <point x="814" y="1215"/>
      <point x="839" y="1306" type="curve" smooth="yes"/>
      <point x="851.9637330957546" y="1352.8688811923437"/>
      <point x="877" y="1375.0"/>
      <point x="911" y="1375.0" type="curve" smooth="yes"/>
      <point x="926.0" y="1375.0" type="line" smooth="yes"/>
      <point x="1026.0" y="1375.0"/>
      <point x="1141.2943692542808" y="1193.035638232992"/>
      <point x="1082" y="783" type="curve" smooth="yes"/>
      <point x="994" y="173"/>
      <point x="816" y="26"/>
    </contour>
  </outline>
</glyph>
<glyph name="E" format="2">
  <advance width="1268"/>
  <unicode hex="0045"/>
  <anchor x="810" y="1468.0" name="center"/>
  <outline>
    <contour>
      <point x="563" y="749" type="line"/>
      <point x="550" y="734" type="line"/>
      <point x="743" y="734" type="line" smooth="yes"/>
      <point x="908.5367412140575" y="734"/>
      <point x="987.6217736411788" y="656.7219662355021"/>
      <point x="1046" y="506" type="curve" smooth="yes"/>
      <point x="1052" y="490"/>
      <point x="1061" y="488"/>
      <point x="1068" y="489" type="curve" smooth="yes"/>
      <point x="1073" y="492"/>
      <point x="1074" y="499"/>
      <point x="1073" y="518" type="curve" smooth="yes"/>
      <point x="1042" y="968" type="line" smooth="yes"/>
      <point x="1041" y="983"/>
      <point x="1036" y="992"/>
      <point x="1026" y="992" type="curve" smooth="yes"/>
      <point x="1018" y="992"/>
      <point x="1013" y="983"/>
      <point x="1010" y="969" type="curve" smooth="yes"/>
      <point x="973.4922057348208" y="809.2784000898409"/>
      <point x="863.6505576208178" y="749"/>
      <point x="751" y="749" type="curve" smooth="yes"/>
    </contour>
    <contour>
      <point x="748" y="0" type="line" smooth="yes"/>
      <point x="799.710843373494" y="0"/>
      <point x="825.566265060241" y="-20.0"/>
      <point x="864" y="-20" type="curve" smooth="yes"/>
      <point x="1054.0" y="-20.0"/>
      <point x="1186.6500754486835" y="134.32956324053157"/>
      <point x="1203" y="446" type="curve" smooth="yes"/>
      <point x="1203.7066859501754" y="460.8404049536823"/>
      <point x="1199.857142857143" y="470.0"/>
      <point x="1192" y="470" type="curve" smooth="yes"/>
      <point x="1185.6666666666665" y="470.0"/>
      <point x="1180" y="469"/>
      <point x="1173" y="454" type="curve" smooth="yes"/>
      <point x="1048" y="169"/>
      <point x="764" y="20.0"/>
      <point x="572" y="20" type="curve" smooth="yes"/>
      <point x="536" y="20" type="line" smooth="yes"/>
      <point x="486" y="20"/>
      <point x="478" y="54"/>
      <point x="490" y="112" type="curve" smooth="yes"/>
      <point x="504" y="172"/>
      <point x="804" y="1344"/>
      <point x="816" y="1380" type="curve"/>
      <point x="918" y="1380" type="line" smooth="yes"/>
      <point x="1072" y="1380.0"/>
      <point x="1210" y="1275"/>
      <point x="1288" y="976" type="curve" smooth="yes"/>
      <point x="1293" y="956"/>
      <point x="1298" y="948"/>
      <point x="1308" y="948" type="curve" smooth="yes"/>
      <point x="1316" y="948"/>
      <point x="1318" y="958"/>
      <point x="1318" y="978" type="curve" smooth="yes"/>
      <point x="1324" y="1412" type="line" smooth="yes"/>
      <point x="1324" y="1424"/>
      <point x="1318" y="1430"/>
      <point x="1312" y="1430" type="curve" smooth="yes"/>
      <point x="1294" y="1430"/>
      <point x="1270" y="1400"/>
      <point x="1178" y="1400" type="curve" smooth="yes"/>
      <point x="302" y="1400" type="line" smooth="yes"/>
      <point x="292" y="1400"/>
      <point x="286" y="1396"/>
      <point x="286" y="1390" type="curve" smooth="yes"/>
      <point x="286" y="1384"/>
      <point x="292" y="1380"/>
      <point x="300" y="1378" type="curve" smooth="yes"/>
      <point x="402" y="1352" type="line" smooth="yes"/>
      <point x="414" y="1348"/>
      <point x="418" y="1342"/>
      <point x="416" y="1328" type="curve" smooth="yes"/>
      <point x="406" y="1288"/>
      <point x="96" y="134"/>
      <point x="80" y="76" type="curve" smooth="yes"/>
      <point x="72" y="50"/>
      <point x="62" y="44"/>
      <point x="38" y="40" type="curve" smooth="yes"/>
      <point x="-62" y="20" type="line" smooth="yes"/>
      <point x="-72" y="18"/>
      <point x="-74" y="14"/>
      <point x="-74" y="10" type="curve" smooth="yes"/>
      <point x="-74" y="4"/>
      <point x="-68" y="0"/>
      <point x="-62" y="0" type="curve" smooth="yes"/>
    </contour>
  </outline>
</glyph>
<glyph name="F" format="1">
  <advance width="570"/>
  <unicode hex="0046"/>
  <outline>
    <contour>
      <point x="179" y="667" type="curve" smooth="yes"/>
      <point x="184" y="648"/>
      <point x="189" y="641"/>
      <point x="215" y="628" type="curve" smooth="yes"/>
      <point x="218" y="622" type="line" smooth="yes"/>
      <point x="248" y="607"/>
      <point x="257" y="601"/>
      <point x="251" y="570" type="curve" smooth="yes"/>
      <point x="216" y="416"/>
      <point x="181" y="265"/>
      <point x="146" y="121" type="curve" smooth="yes"/>
      <point x="136" y="96"/>
      <point x="127" y="81"/>
      <point x="107" y="78" type="curve" smooth="yes"/>
      <point x="62" y="70" type="line" smooth="yes"/>
      <point x="43" y="68"/>
      <point x="32" y="53"/>
      <point x="37" y="35" type="curve" smooth="yes"/>
      <point x="42" y="16"/>
      <point x="48" y="0"/>
      <point x="61" y="0" type="curve" smooth="yes"/>
      <point x="388" y="0" type="line" smooth="yes"/>
      <point x="417" y="0"/>
      <point x="425" y="16"/>
      <point x="425" y="35" type="curve" smooth="yes"/>
      <point x="425" y="54"/>
      <point x="418" y="64"/>
      <point x="389" y="69" type="curve" smooth="yes"/>
      <point x="336" y="73"/>
      <point x="330" y="88"/>
      <point x="333" y="125" type="curve" smooth="yes"/>
      <point x="366" y="272"/>
      <point x="394" y="448"/>
      <point x="453" y="646" type="curve"/>
      <point x="514" y="646" type="line" smooth="yes"/>
      <point x="582" y="646"/>
      <point x="631" y="633"/>
      <point x="643" y="568" type="curve" smooth="yes"/>
      <point x="649" y="522" type="line" smooth="yes"/>
      <point x="656" y="485"/>
      <point x="673" y="478"/>
      <point x="694" y="478" type="curve" smooth="yes"/>
      <point x="711" y="478"/>
      <point x="733" y="494"/>
      <point x="729" y="525" type="curve" smooth="yes"/>
      <point x="708" y="682" type="line" smooth="yes"/>
      <point x="704" y="712"/>
      <point x="703" y="726"/>
      <point x="690" y="726" type="curve" smooth="yes"/>
      <point x="677" y="726"/>
      <point x="667" y="720"/>
      <point x="654" y="710" type="curve" smooth="yes"/>
      <point x="640" y="701"/>
      <point x="610" y="700"/>
      <point x="591" y="700" type="curve" smooth="yes"/>
      <point x="222" y="700" type="line" smooth="yes"/>
      <point x="198" y="700"/>
      <point x="174" y="690"/>
    </contour>
    <contour>
      <point x="277" y="393" type="line"/>
      <point x="270" y="324" type="line"/>
      <point x="448" y="324" type="line" smooth="yes"/>
      <point x="498" y="324"/>
      <point x="525" y="302"/>
      <point x="543" y="264" type="curve" smooth="yes"/>
      <point x="559" y="237"/>
      <point x="570" y="236"/>
      <point x="589" y="236" type="curve" smooth="yes"/>
      <point x="601" y="236"/>
      <point x="616" y="251"/>
      <point x="609" y="282" type="curve" smooth="yes"/>
      <point x="573" y="465" type="line" smooth="yes"/>
      <point x="572" y="478"/>
      <point x="561" y="491"/>
      <point x="541" y="491" type="curve" smooth="yes"/>
      <point x="529" y="491"/>
      <point x="520" y="485"/>
      <point x="509" y="464" type="curve" smooth="yes"/>
      <point x="497" y="412"/>
      <point x="470" y="393"/>
      <point x="421" y="393" type="curve" smooth="yes"/>
    </contour>
  </outline>
</glyph>
<glyph name="G" format="2">
  <advance width="690"/>
  <unicode hex="0047"/>
  <anchor x="532" y="783" name="center"/>
  <outline>
    <contour>
      <point x="495" y="714" type="curve" smooth="yes"/>
      <point x="237" y="714"/>
      <point x="60" y="483"/>
      <point x="47" y="235" type="curve" smooth="yes"/>
      <point x="39" y="74"/>
      <point x="145" y="-10"/>
      <point x="304" y="-10" type="curve" smooth="yes"/>
      <point x="395" y="-10"/>
      <point x="455" y="34"/>
      <point x="475" y="34" type="curve" smooth="yes"/>
      <point x="492" y="34"/>
      <point x="526" y="-10"/>
      <point x="544" y="-10" type="curve" smooth="yes"/>
      <point x="557" y="-10"/>
      <point x="561" y="13"/>
      <point x="576" y="63" type="curve" smooth="yes"/>
      <point x="655" y="332" type="line" smooth="yes"/>
      <point x="658" y="343"/>
      <point x="663" y="348"/>
      <point x="675" y="350" type="curve" smooth="yes"/>
      <point x="725" y="360" type="line" smooth="yes"/>
      <point x="730" y="361"/>
      <point x="731" y="363"/>
      <point x="731" y="365" type="curve" smooth="yes"/>
      <point x="731" y="368"/>
      <point x="729" y="370"/>
      <point x="725" y="370" type="curve" smooth="yes"/>
      <point x="415" y="370" type="line" smooth="yes"/>
      <point x="410" y="370"/>
      <point x="407" y="368"/>
      <point x="407" y="365" type="curve" smooth="yes"/>
      <point x="407" y="362"/>
      <point x="410" y="360"/>
      <point x="414" y="359" type="curve" smooth="yes"/>
      <point x="464" y="346" type="line" smooth="yes"/>
      <point x="471" y="344"/>
      <point x="474" y="341"/>
      <point x="472" y="334" type="curve" smooth="yes"/>
      <point x="402" y="107" type="line" smooth="yes"/>
      <point x="379" y="29"/>
      <point x="349" y="3"/>
      <point x="305" y="3" type="curve" smooth="yes"/>
      <point x="270" y="3"/>
      <point x="241" y="44"/>
      <point x="246" y="149" type="curve" smooth="yes"/>
      <point x="260" y="428"/>
      <point x="381" y="704"/>
      <point x="499" y="704" type="curve" smooth="yes"/>
      <point x="571" y="704"/>
      <point x="625" y="660"/>
      <point x="668" y="541" type="curve" smooth="yes"/>
      <point x="694" y="473" type="line" smooth="yes"/>
      <point x="697" y="463"/>
      <point x="699" y="459"/>
      <point x="703" y="459" type="curve" smooth="yes"/>
      <point x="707" y="459"/>
      <point x="708" y="462"/>
      <point x="709" y="476" type="curve" smooth="yes"/>
      <point x="728" y="701" type="line" smooth="yes"/>
      <point x="729" y="707"/>
      <point x="727" y="710"/>
      <point x="723" y="710" type="curve" smooth="yes"/>
      <point x="716" y="710"/>
      <point x="675" y="629"/>
      <point x="649" y="629" type="curve" smooth="yes"/>
      <point x="629" y="629"/>
      <point x="605" y="714"/>
    </contour>
  </outline>
</glyph>
<glyph name="H" format="2">
  <advance width="1524"/>
  <unicode hex="0048"/>
  <outline>
    <contour>
      <point x="486" y="664" type="line"/>
      <point x="482" y="644" type="line"/>
      <point x="1196" y="644" type="line"/>
      <point x="1200" y="664" type="line"/>
    </contour>
    <contour>
      <point x="508" y="64" type="curve" smooth="yes"/>
      <point x="520" y="120"/>
      <point x="822" y="1296"/>
      <point x="832" y="1324" type="curve" smooth="yes"/>
      <point x="842" y="1350"/>
      <point x="850" y="1356"/>
      <point x="874" y="1360" type="curve" smooth="yes"/>
      <point x="972" y="1380" type="line" smooth="yes"/>
      <point x="982" y="1382"/>
      <point x="984" y="1386"/>
      <point x="984" y="1390" type="curve" smooth="yes"/>
      <point x="984" y="1396"/>
      <point x="980" y="1400"/>
      <point x="972" y="1400" type="curve" smooth="yes"/>
      <point x="332" y="1400" type="line" smooth="yes"/>
      <point x="322" y="1400"/>
      <point x="316" y="1396"/>
      <point x="316" y="1390" type="curve" smooth="yes"/>
      <point x="316" y="1384"/>
      <point x="322" y="1380"/>
      <point x="330" y="1378" type="curve" smooth="yes"/>
      <point x="432" y="1352" type="line" smooth="yes"/>
      <point x="444" y="1348"/>
      <point x="448" y="1342"/>
      <point x="446" y="1328" type="curve" smooth="yes"/>
      <point x="438" y="1294"/>
      <point x="124" y="126"/>
      <point x="110" y="76" type="curve" smooth="yes"/>
      <point x="102" y="50"/>
      <point x="92" y="44"/>
      <point x="68" y="40" type="curve" smooth="yes"/>
      <point x="-32" y="20" type="line" smooth="yes"/>
      <point x="-42" y="18"/>
      <point x="-44" y="16"/>
      <point x="-44" y="10" type="curve" smooth="yes"/>
      <point x="-44" y="4"/>
      <point x="-38" y="0"/>
      <point x="-32" y="0" type="curve" smooth="yes"/>
      <point x="614" y="0" type="line" smooth="yes"/>
      <point x="626" y="0"/>
      <point x="630" y="4"/>
      <point x="630" y="10" type="curve" smooth="yes"/>
      <point x="630" y="16"/>
      <point x="622" y="20"/>
      <point x="612" y="22" type="curve" smooth="yes"/>
      <point x="530" y="44" type="line" smooth="yes"/>
      <point x="520" y="46"/>
      <point x="504" y="48"/>
    </contour>
    <contour>
      <point x="1262" y="64" type="curve" smooth="yes"/>
      <point x="1274" y="120"/>
      <point x="1576" y="1296"/>
      <point x="1586" y="1324" type="curve" smooth="yes"/>
      <point x="1596" y="1350"/>
      <point x="1604" y="1356"/>
      <point x="1628" y="1360" type="curve" smooth="yes"/>
      <point x="1726" y="1380" type="line" smooth="yes"/>
      <point x="1736" y="1382"/>
      <point x="1738" y="1386"/>
      <point x="1738" y="1390" type="curve" smooth="yes"/>
      <point x="1738" y="1396"/>
      <point x="1734" y="1400"/>
      <point x="1726" y="1400" type="curve" smooth="yes"/>
      <point x="1086" y="1400" type="line" smooth="yes"/>
      <point x="1076" y="1400"/>
      <point x="1070" y="1396"/>
      <point x="1070" y="1390" type="curve" smooth="yes"/>
      <point x="1070" y="1384"/>
      <point x="1076" y="1380"/>
      <point x="1084" y="1378" type="curve" smooth="yes"/>
      <point x="1186" y="1352" type="line" smooth="yes"/>
      <point x="1198" y="1348"/>
      <point x="1202" y="1342"/>
      <point x="1200" y="1328" type="curve" smooth="yes"/>
      <point x="1192" y="1294"/>
      <point x="878" y="126"/>
      <point x="864" y="76" type="curve" smooth="yes"/>
      <point x="856" y="50"/>
      <point x="846" y="44"/>
      <point x="822" y="40" type="curve" smooth="yes"/>
      <point x="722" y="20" type="line" smooth="yes"/>
      <point x="712" y="18"/>
      <point x="710" y="16"/>
      <point x="710" y="10" type="curve" smooth="yes"/>
      <point x="710" y="4"/>
      <point x="716" y="0"/>
      <point x="722" y="0" type="curve" smooth="yes"/>
      <point x="1368" y="0" type="line" smooth="yes"/>
      <point x="1380" y="0"/>
      <point x="1384" y="4"/>
      <point x="1384" y="10" type="curve" smooth="yes"/>
      <point x="1384" y="16"/>
      <point x="1376" y="20"/>
      <point x="1366" y="22" type="curve" smooth="yes"/>
      <point x="1284" y="44" type="line" smooth="yes"/>
      <point x="1274" y="46"/>
      <point x="1258" y="48"/>
    </contour>
  </outline>
</glyph>
<glyph name="I" format="2">
  <advance width="414"/>
  <unicode hex="0049"/>
  <outline>
    <contour>
      <point x="240" y="32" type="curve" smooth="yes"/>
      <point x="245.0309646243176" y="60.17340189617843"/>
      <point x="364.97636421934436" y="647.9172747677053"/>
      <point x="369" y="662" type="curve" smooth="yes"/>
      <point x="372.7668830618057" y="675.1840907163198"/>
      <point x="377" y="678"/>
      <point x="389" y="680" type="curve" smooth="yes"/>
      <point x="438" y="690" type="line" smooth="yes"/>
      <point x="443" y="691"/>
      <point x="444.0" y="692.8571428571429"/>
      <point x="444" y="695" type="curve" smooth="yes"/>
      <point x="444.0" y="697.5"/>
      <point x="442.0" y="700"/>
      <point x="438" y="700" type="curve" smooth="yes"/>
      <point x="118" y="700" type="line" smooth="yes"/>
      <point x="113" y="700"/>
      <point x="110" y="698"/>
      <point x="110" y="695" type="curve" smooth="yes"/>
      <point x="110" y="692"/>
      <point x="113" y="690"/>
      <point x="117" y="689" type="curve" smooth="yes"/>
      <point x="168" y="676" type="line" smooth="yes"/>
      <point x="173.8942853068017" y="674.4975351178741"/>
      <point x="177.0295630140987" y="671.2069410986909"/>
      <point x="176" y="664" type="curve" smooth="yes"/>
      <point x="172.93762308447012" y="646.6465308119973"/>
      <point x="47.02732245402064" y="63.11384355841934"/>
      <point x="41" y="38" type="curve" smooth="yes"/>
      <point x="38" y="25"/>
      <point x="33" y="22"/>
      <point x="21" y="20" type="curve" smooth="yes"/>
      <point x="-28" y="10" type="line" smooth="yes"/>
      <point x="-33" y="9"/>
      <point x="-34.0" y="8"/>
      <point x="-34" y="5" type="curve" smooth="yes"/>
      <point x="-34.0" y="2.1428571428571432"/>
      <point x="-31.0" y="0"/>
      <point x="-28" y="0" type="curve" smooth="yes"/>
      <point x="295" y="0" type="line" smooth="yes"/>
      <point x="301" y="0"/>
      <point x="303" y="2"/>
      <point x="303" y="5" type="curve" smooth="yes"/>
      <point x="303" y="8"/>
      <point x="299" y="10"/>
      <point x="294" y="11" type="curve" smooth="yes"/>
      <point x="252" y="22" type="line" smooth="yes"/>
      <point x="247" y="23"/>
      <point x="239" y="24"/>
    </contour>
  </outline>
</glyph>
<glyph name="J" format="2">
  <advance width="838"/>
  <unicode hex="004A"/>
  <outline>
    <contour>
      <point x="178" y="242" type="curve" smooth="yes"/>
      <point x="129" y="39"/>
      <point x="382" y="-11"/>
      <point x="382" y="-160" type="curve" smooth="yes"/>
      <point x="382.0" y="-218.0"/>
      <point x="341.2857142857143" y="-247.0"/>
      <point x="287" y="-247" type="curve" smooth="yes"/>
      <point x="174.6358024691358" y="-247.0"/>
      <point x="77.79120879120879" y="-67.0"/>
      <point x="-47" y="-67" type="curve" smooth="yes"/>
      <point x="-148" y="-67"/>
      <point x="-207" y="-134"/>
      <point x="-207" y="-209" type="curve" smooth="yes"/>
      <point x="-207.0" y="-315.0"/>
      <point x="-127" y="-385.0"/>
      <point x="25" y="-385" type="curve" smooth="yes"/>
      <point x="252.97802197802199" y="-385.0"/>
      <point x="469.17835350895564" y="-252.1341224807154"/>
      <point x="531" y="48" type="curve" smooth="yes"/>
      <point x="542" y="105"/>
      <point x="842" y="1296"/>
      <point x="852" y="1324" type="curve" smooth="yes"/>
      <point x="860" y="1350"/>
      <point x="870" y="1356"/>
      <point x="894" y="1360" type="curve" smooth="yes"/>
      <point x="992" y="1380" type="line" smooth="yes"/>
      <point x="1002" y="1382"/>
      <point x="1004" y="1386"/>
      <point x="1004" y="1390" type="curve" smooth="yes"/>
      <point x="1004" y="1396"/>
      <point x="1000" y="1400"/>
      <point x="992" y="1400" type="curve" smooth="yes"/>
      <point x="352" y="1400" type="line" smooth="yes"/>
      <point x="342" y="1400"/>
      <point x="336" y="1396"/>
      <point x="336" y="1390" type="curve" smooth="yes"/>
      <point x="336" y="1384"/>
      <point x="342" y="1380"/>
      <point x="350" y="1378" type="curve" smooth="yes"/>
      <point x="452" y="1352" type="line" smooth="yes"/>
      <point x="492" y="1342"/>
      <point x="514" y="1517"/>
      <point x="505" y="1456" type="curve" smooth="yes"/>
      <point x="495" y="1421"/>
      <point x="191" y="298"/>
    </contour>
  </outline>
</glyph>
<glyph name="K" format="2">
  <advance width="1454"/>
  <unicode hex="004B"/>
  <outline>
    <contour>
      <point x="828" y="700" type="line"/>
      <point x="888" y="374" type="line" smooth="yes"/>
      <point x="992" y="62"/>
      <point x="1078" y="-20"/>
      <point x="1256" y="-20" type="curve" smooth="yes"/>
      <point x="1412" y="-20"/>
      <point x="1508" y="100"/>
      <point x="1544" y="294" type="curve" smooth="yes"/>
      <point x="1549" y="320"/>
      <point x="1552" y="338"/>
      <point x="1524" y="344" type="curve" smooth="yes"/>
      <point x="1507" y="348"/>
      <point x="1499" y="339"/>
      <point x="1483" y="322" type="curve" smooth="yes"/>
      <point x="1457" y="295"/>
      <point x="1411" y="278"/>
      <point x="1360" y="278" type="curve" smooth="yes"/>
      <point x="1306" y="278"/>
      <point x="1250" y="318"/>
      <point x="1220" y="430" type="curve" smooth="yes"/>
      <point x="1070" y="902" type="line"/>
    </contour>
    <contour>
      <point x="552.0" y="244.0" type="line"/>
      <point x="1142.0" y="902.0" type="line" smooth="yes"/>
      <point x="1280.0" y="1050.0"/>
      <point x="1328.0" y="1086.0"/>
      <point x="1422.0" y="1086.0" type="curve" smooth="yes"/>
      <point x="1492.0" y="1086.0"/>
      <point x="1534.0" y="1022.0"/>
      <point x="1628.0" y="1022.0" type="curve" smooth="yes"/>
      <point x="1730.0" y="1022.0"/>
      <point x="1834.0" y="1102.0"/>
      <point x="1834.0" y="1218.0" type="curve" smooth="yes"/>
      <point x="1834.0" y="1322.0"/>
      <point x="1768.0" y="1420.0"/>
      <point x="1656.0" y="1420.0" type="curve" smooth="yes"/>
      <point x="1526.0" y="1420.0"/>
      <point x="1396.0" y="1362.0"/>
      <point x="1232.0" y="1184.0" type="curve" smooth="yes"/>
      <point x="536.0" y="410.0" type="line"/>
    </contour>
    <contour>
      <point x="538.0" y="64.0" type="curve" smooth="yes"/>
      <point x="550.0" y="120.0"/>
      <point x="852.0" y="1296.0"/>
      <point x="862.0" y="1324.0" type="curve" smooth="yes"/>
      <point x="870.0" y="1350.0"/>
      <point x="880.0" y="1356.0"/>
      <point x="904.0" y="1360.0" type="curve" smooth="yes"/>
      <point x="1002.0" y="1380.0" type="line" smooth="yes"/>
      <point x="1012.0" y="1382.0"/>
      <point x="1014.0" y="1386.0"/>
      <point x="1014.0" y="1390.0" type="curve" smooth="yes"/>
      <point x="1014.0" y="1396.0"/>
      <point x="1010.0" y="1400.0"/>
      <point x="1002.0" y="1400.0" type="curve" smooth="yes"/>
      <point x="362.0" y="1400.0" type="line" smooth="yes"/>
      <point x="352.0" y="1400.0"/>
      <point x="346.0" y="1396.0"/>
      <point x="346.0" y="1390.0" type="curve" smooth="yes"/>
      <point x="346.0" y="1384.0"/>
      <point x="352.0" y="1380.0"/>
      <point x="360.0" y="1378.0" type="curve" smooth="yes"/>
      <point x="462.0" y="1352.0" type="line" smooth="yes"/>
      <point x="472.0" y="1348.0"/>
      <point x="478.0" y="1342.0"/>
      <point x="476.0" y="1328.0" type="curve" smooth="yes"/>
      <point x="466.0" y="1294.0"/>
      <point x="154.0" y="126.0"/>
      <point x="140.0" y="76.0" type="curve" smooth="yes"/>
      <point x="132.0" y="50.0"/>
      <point x="122.0" y="44.0"/>
      <point x="98.0" y="40.0" type="curve" smooth="yes"/>
      <point x="-2.0" y="20.0" type="line" smooth="yes"/>
      <point x="-12.0" y="18.0"/>
      <point x="-14.0" y="16.0"/>
      <point x="-14.0" y="10.0" type="curve" smooth="yes"/>
      <point x="-14.0" y="4.0"/>
      <point x="-8.0" y="0.0"/>
      <point x="-2.0" y="0.0" type="curve" smooth="yes"/>
      <point x="644.0" y="0.0" type="line" smooth="yes"/>
      <point x="656.0" y="0.0"/>
      <point x="660.0" y="4.0"/>
      <point x="660.0" y="10.0" type="curve" smooth="yes"/>
      <point x="660.0" y="16.0"/>
      <point x="652.0" y="20.0"/>
      <point x="642.0" y="22.0" type="curve" smooth="yes"/>
      <point x="560.0" y="44.0" type="line" smooth="yes"/>
      <point x="550.0" y="46.0"/>
      <point x="534.0" y="48.0"/>
    </contour>
  </outline>
</glyph>
<glyph name="L" format="2">
  <advance width="1164"/>
  <unicode hex="004C"/>
  <outline>
    <contour>
      <point x="620" y="0" type="line" smooth="yes"/>
      <point x="722" y="0"/>
      <point x="771" y="-20"/>
      <point x="846" y="-20" type="curve" smooth="yes"/>
      <point x="1008" y="-20"/>
      <point x="1109" y="114"/>
      <point x="1126" y="482" type="curve" smooth="yes"/>
      <point x="1127" y="500"/>
      <point x="1126" y="510"/>
      <point x="1114" y="510" type="curve" smooth="yes"/>
      <point x="1106" y="510"/>
      <point x="1090" y="503"/>
      <point x="1080" y="488" type="curve" smooth="yes"/>
      <point x="866" y="135"/>
      <point x="683" y="20"/>
      <point x="566" y="20" type="curve" smooth="yes"/>
      <point x="546" y="20" type="line" smooth="yes"/>
      <point x="496" y="20"/>
      <point x="486" y="42"/>
      <point x="500" y="112" type="curve" smooth="yes"/>
      <point x="510" y="166"/>
      <point x="800" y="1294"/>
      <point x="812" y="1324" type="curve" smooth="yes"/>
      <point x="820" y="1352"/>
      <point x="832" y="1356"/>
      <point x="854" y="1360" type="curve" smooth="yes"/>
      <point x="952" y="1380" type="line" smooth="yes"/>
      <point x="962" y="1382"/>
      <point x="964" y="1386"/>
      <point x="964" y="1390" type="curve" smooth="yes"/>
      <point x="964" y="1396"/>
      <point x="960" y="1400"/>
      <point x="952" y="1400" type="curve" smooth="yes"/>
      <point x="312" y="1400" type="line" smooth="yes"/>
      <point x="302" y="1400"/>
      <point x="296" y="1396"/>
      <point x="296" y="1390" type="curve" smooth="yes"/>
      <point x="296" y="1386"/>
      <point x="302" y="1380"/>
      <point x="310" y="1378" type="curve" smooth="yes"/>
      <point x="412" y="1352" type="line" smooth="yes"/>
      <point x="424" y="1348"/>
      <point x="429" y="1342"/>
      <point x="426" y="1328" type="curve" smooth="yes"/>
      <point x="419" y="1292"/>
      <point x="104" y="128"/>
      <point x="90" y="76" type="curve" smooth="yes"/>
      <point x="82" y="50"/>
      <point x="72" y="44"/>
      <point x="48" y="40" type="curve" smooth="yes"/>
      <point x="-52" y="20" type="line" smooth="yes"/>
      <point x="-62" y="18"/>
      <point x="-64" y="16"/>
      <point x="-64" y="10" type="curve" smooth="yes"/>
      <point x="-64" y="4"/>
      <point x="-58" y="0"/>
      <point x="-52" y="0" type="curve" smooth="yes"/>
    </contour>
  </outline>
</glyph>
<glyph name="M" format="2">
  <advance width="854"/>
  <unicode hex="004D"/>
  <outline>
    <contour>
      <point x="459" y="266" type="line"/>
      <point x="441" y="439"/>
      <point x="430" y="563"/>
      <point x="417" y="684" type="curve" smooth="yes"/>
      <point x="414" y="700"/>
      <point x="402" y="700"/>
      <point x="390" y="700" type="curve" smooth="yes"/>
      <point x="181" y="700" type="line" smooth="yes"/>
      <point x="176" y="700"/>
      <point x="173" y="698"/>
      <point x="173" y="695" type="curve" smooth="yes"/>
      <point x="173" y="692"/>
      <point x="176" y="690"/>
      <point x="180" y="689" type="curve" smooth="yes"/>
      <point x="231" y="676" type="line" smooth="yes"/>
      <point x="237" y="674"/>
      <point x="240" y="671"/>
      <point x="238" y="663" type="curve" smooth="yes"/>
      <point x="51" y="42" type="line" smooth="yes"/>
      <point x="49" y="32"/>
      <point x="42" y="24"/>
      <point x="30" y="22" type="curve" smooth="yes"/>
      <point x="-30" y="10" type="line" smooth="yes"/>
      <point x="-34" y="9"/>
      <point x="-36" y="8"/>
      <point x="-36" y="5" type="curve" smooth="yes"/>
      <point x="-36" y="2"/>
      <point x="-34" y="0"/>
      <point x="-30" y="0" type="curve" smooth="yes"/>
      <point x="133" y="0" type="line" smooth="yes"/>
      <point x="139" y="0"/>
      <point x="141" y="2"/>
      <point x="141" y="5" type="curve" smooth="yes"/>
      <point x="141" y="8"/>
      <point x="137" y="10"/>
      <point x="132" y="11" type="curve" smooth="yes"/>
      <point x="71" y="22" type="line" smooth="yes"/>
      <point x="67" y="23"/>
      <point x="58" y="28"/>
      <point x="62" y="40" type="curve" smooth="yes"/>
      <point x="240" y="634" type="line"/>
      <point x="238" y="644" type="line"/>
      <point x="264" y="385"/>
      <point x="278" y="209"/>
      <point x="296" y="61" type="curve" smooth="yes"/>
      <point x="299" y="44"/>
      <point x="303" y="35"/>
      <point x="308" y="35" type="curve" smooth="yes"/>
      <point x="315" y="35"/>
      <point x="319" y="40"/>
      <point x="327" y="52" type="curve" smooth="yes"/>
      <point x="687" y="619" type="line"/>
      <point x="685" y="618" type="line"/>
      <point x="629" y="402"/>
      <point x="584" y="225"/>
      <point x="536" y="38" type="curve" smooth="yes"/>
      <point x="532" y="25"/>
      <point x="527" y="22"/>
      <point x="515" y="20" type="curve" smooth="yes"/>
      <point x="465" y="10" type="line" smooth="yes"/>
      <point x="460" y="9"/>
      <point x="459" y="8"/>
      <point x="459" y="5" type="curve" smooth="yes"/>
      <point x="459" y="2"/>
      <point x="462" y="0"/>
      <point x="465" y="0" type="curve" smooth="yes"/>
      <point x="778" y="0" type="line" smooth="yes"/>
      <point x="784" y="0"/>
      <point x="786" y="2"/>
      <point x="786" y="5" type="curve" smooth="yes"/>
      <point x="786" y="8"/>
      <point x="782" y="10"/>
      <point x="777" y="11" type="curve" smooth="yes"/>
      <point x="736" y="22" type="line" smooth="yes"/>
      <point x="731" y="23"/>
      <point x="723" y="24"/>
      <point x="725" y="32" type="curve" smooth="yes"/>
      <point x="731" y="64"/>
      <point x="876" y="647"/>
      <point x="880" y="662" type="curve" smooth="yes"/>
      <point x="883" y="673"/>
      <point x="889" y="678"/>
      <point x="901" y="680" type="curve" smooth="yes"/>
      <point x="950" y="690" type="line" smooth="yes"/>
      <point x="955" y="691"/>
      <point x="956" y="693"/>
      <point x="956" y="695" type="curve" smooth="yes"/>
      <point x="956" y="698"/>
      <point x="954" y="700"/>
      <point x="950" y="700" type="curve" smooth="yes"/>
      <point x="757" y="700" type="line" smooth="yes"/>
      <point x="735" y="700"/>
      <point x="721" y="691"/>
      <point x="700" y="658" type="curve" smooth="yes"/>
      <point x="451" y="267" type="line"/>
    </contour>
  </outline>
</glyph>
<glyph name="N" format="2">
  <advance width="1363"/>
  <unicode hex="004E"/>
  <outline>
    <contour>
      <point x="203" y="176" type="line" smooth="yes"/>
      <point x="181" y="94"/>
      <point x="219" y="46"/>
      <point x="329" y="30" type="curve" smooth="yes"/>
      <point x="355" y="26" type="line" smooth="yes"/>
      <point x="371" y="24"/>
      <point x="373" y="18"/>
      <point x="373" y="12" type="curve" smooth="yes"/>
      <point x="373" y="4"/>
      <point x="365" y="0"/>
      <point x="355" y="0" type="curve" smooth="yes"/>
      <point x="-53" y="0" type="line" smooth="yes"/>
      <point x="-59" y="0"/>
      <point x="-63" y="4"/>
      <point x="-63" y="8" type="curve" smooth="yes"/>
      <point x="-63" y="12"/>
      <point x="-63" y="16"/>
      <point x="-53" y="18" type="curve" smooth="yes"/>
      <point x="-3" y="28" type="line" smooth="yes"/>
      <point x="91" y="46"/>
      <point x="167" y="110"/>
      <point x="185" y="182" type="curve" smooth="yes"/>
      <point x="419" y="1094" type="line" smooth="yes"/>
      <point x="423" y="1116"/>
      <point x="417" y="1140"/>
      <point x="407" y="1162" type="curve" smooth="yes"/>
      <point x="315" y="1378" type="line" smooth="yes"/>
      <point x="309" y="1392"/>
      <point x="313" y="1400"/>
      <point x="327" y="1400" type="curve" smooth="yes"/>
      <point x="721" y="1400" type="line" smooth="yes"/>
      <point x="737" y="1400"/>
      <point x="749" y="1398"/>
      <point x="759" y="1368" type="curve" smooth="yes"/>
      <point x="897" y="878"/>
      <point x="991" y="560"/>
      <point x="1067" y="294" type="curve"/>
      <point x="1057" y="292" type="line"/>
      <point x="1263" y="1198" type="line" smooth="yes"/>
      <point x="1302.8054372266456" y="1373.0666316861204"/>
      <point x="1383.3185840707965" y="1452.0"/>
      <point x="1469" y="1452" type="curve" smooth="yes"/>
      <point x="1555" y="1452"/>
      <point x="1593" y="1398"/>
      <point x="1589" y="1320" type="curve" smooth="yes"/>
      <point x="1585" y="1253"/>
      <point x="1529" y="1203"/>
      <point x="1420" y="1141" type="curve" smooth="yes"/>
      <point x="1289" y="1067"/>
      <point x="1240.7279699649632" y="1002.3577270804211"/>
      <point x="1197" y="813" type="curve" smooth="yes"/>
      <point x="1085" y="328" type="line" smooth="yes"/>
      <point x="1079" y="304"/>
      <point x="1073" y="290"/>
      <point x="1079" y="268" type="curve" smooth="yes"/>
      <point x="1141" y="62" type="line" smooth="yes"/>
      <point x="1151" y="22"/>
      <point x="1139" y="0"/>
      <point x="1117" y="0" type="curve" smooth="yes"/>
      <point x="751" y="0" type="line" smooth="yes"/>
      <point x="737" y="0"/>
      <point x="725" y="10"/>
      <point x="727" y="32" type="curve" smooth="yes"/>
      <point x="729" y="58"/>
      <point x="729" y="70"/>
      <point x="725" y="82" type="curve" smooth="yes"/>
      <point x="673" y="300"/>
      <point x="545" y="740"/>
      <point x="441" y="1102" type="curve"/>
      <point x="445" y="1100" type="line"/>
    </contour>
  </outline>
</glyph>
<glyph name="O" format="2">
  <advance width="1442"/>
  <unicode hex="004F"/>
  <anchor x="1032" y="1546.0" name="center"/>
  <outline>
    <contour>
      <point x="1008" y="1424" type="curve" smooth="yes"/>
      <point x="566" y="1424"/>
      <point x="266" y="1120"/>
      <point x="154" y="744" type="curve" smooth="yes"/>
      <point x="10" y="250"/>
      <point x="210" y="-20"/>
      <point x="604" y="-20" type="curve" smooth="yes"/>
      <point x="1000" y="-20"/>
      <point x="1360" y="226"/>
      <point x="1472" y="676" type="curve" smooth="yes"/>
      <point x="1586" y="1140"/>
      <point x="1362" y="1424"/>
    </contour>
    <contour>
      <point x="614" y="8" type="curve" smooth="yes"/>
      <point x="484" y="8"/>
      <point x="438" y="120"/>
      <point x="610" y="706" type="curve" smooth="yes"/>
      <point x="776" y="1274"/>
      <point x="902" y="1400"/>
      <point x="1002" y="1400" type="curve" smooth="yes"/>
      <point x="1122" y="1400"/>
      <point x="1166" y="1260"/>
      <point x="1018" y="716" type="curve" smooth="yes"/>
      <point x="852" y="108"/>
      <point x="722" y="8"/>
    </contour>
  </outline>
</glyph>
<glyph name="P" format="2">
  <advance width="1376"/>
  <unicode hex="0050"/>
  <outline>
    <contour>
      <point x="1448" y="937" type="curve" smooth="yes"/>
      <point x="1480" y="1220"/>
      <point x="1303.0" y="1400.0"/>
      <point x="978" y="1400" type="curve" smooth="yes"/>
      <point x="328" y="1400" type="line" smooth="yes"/>
      <point x="318" y="1400"/>
      <point x="312" y="1396"/>
      <point x="312" y="1390" type="curve" smooth="yes"/>
      <point x="312" y="1384"/>
      <point x="318" y="1380"/>
      <point x="326" y="1378" type="curve" smooth="yes"/>
      <point x="428" y="1352" type="line" smooth="yes"/>
      <point x="440" y="1348"/>
      <point x="443" y="1342"/>
      <point x="441" y="1328" type="curve" smooth="yes"/>
      <point x="433" y="1292"/>
      <point x="98" y="126"/>
      <point x="83" y="76" type="curve" smooth="yes"/>
      <point x="75" y="50"/>
      <point x="67" y="46"/>
      <point x="41" y="40" type="curve" smooth="yes"/>
      <point x="-60" y="20" type="line" smooth="yes"/>
      <point x="-70" y="18"/>
      <point x="-72" y="14"/>
      <point x="-72" y="10" type="curve" smooth="yes"/>
      <point x="-72" y="4"/>
      <point x="-66" y="0"/>
      <point x="-60" y="0" type="curve" smooth="yes"/>
      <point x="588" y="0" type="line" smooth="yes"/>
      <point x="600" y="0"/>
      <point x="604" y="4"/>
      <point x="604" y="10" type="curve" smooth="yes"/>
      <point x="604" y="16"/>
      <point x="596" y="20"/>
      <point x="586" y="22" type="curve" smooth="yes"/>
      <point x="505" y="44" type="line" smooth="yes"/>
      <point x="495" y="46"/>
      <point x="479" y="48"/>
      <point x="483" y="64" type="curve" smooth="yes"/>
      <point x="496" y="120"/>
      <point x="811" y="1252"/>
      <point x="831" y="1309" type="curve" smooth="yes"/>
      <point x="845" y="1347"/>
      <point x="885" y="1380"/>
      <point x="941" y="1380" type="curve" smooth="yes"/>
      <point x="1030.0" y="1380.0"/>
      <point x="1121" y="1263"/>
      <point x="1068" y="932" type="curve" smooth="yes"/>
      <point x="1019" y="629"/>
      <point x="855" y="482.0"/>
      <point x="683" y="482" type="curve" smooth="yes"/>
      <point x="640.0" y="482.0"/>
      <point x="587.0" y="491.0"/>
      <point x="542" y="527" type="curve"/>
      <point x="528" y="512" type="line"/>
      <point x="575" y="470"/>
      <point x="715" y="462"/>
      <point x="803" y="462" type="curve" smooth="yes"/>
      <point x="1166.0" y="462.0"/>
      <point x="1416" y="646"/>
    </contour>
  </outline>
</glyph>
<glyph name="Q" format="2">
  <advance width="734"/>
  <unicode hex="0051"/>
  <outline>
    <contour>
      <point x="398" y="138" type="curve" smooth="yes"/>
      <point x="398" y="-55"/>
      <point x="507" y="-212"/>
      <point x="634" y="-212" type="curve" smooth="yes"/>
      <point x="685" y="-212"/>
      <point x="719" y="-208"/>
      <point x="747" y="-156" type="curve" smooth="yes"/>
      <point x="783" y="-92"/>
      <point x="796" y="-72"/>
      <point x="796" y="-51" type="curve" smooth="yes"/>
      <point x="796" y="-39"/>
      <point x="789" y="-28"/>
      <point x="772" y="-28" type="curve" smooth="yes"/>
      <point x="757" y="-28"/>
      <point x="736" y="-71"/>
      <point x="691" y="-71" type="curve" smooth="yes"/>
      <point x="552" y="-71"/>
      <point x="450" y="36"/>
      <point x="450" y="153" type="curve" smooth="yes"/>
      <point x="450" y="205"/>
      <point x="470" y="238"/>
      <point x="470" y="262" type="curve" smooth="yes"/>
      <point x="470" y="273"/>
      <point x="465" y="280"/>
      <point x="449" y="280" type="curve" smooth="yes"/>
      <point x="423" y="280"/>
      <point x="398" y="238"/>
    </contour>
    <component base="O"/>
  </outline>
</glyph>
<glyph name="R" format="2">
  <advance width="1474"/>
  <unicode hex="0052"/>
  <outline>
    <contour>
      <point x="556" y="602" type="line"/>
      <point x="604" y="560"/>
      <point x="744" y="552"/>
      <point x="832" y="552" type="curve" smooth="yes"/>
      <point x="1225.0" y="552.0"/>
      <point x="1470" y="716"/>
      <point x="1481" y="985" type="curve" smooth="yes"/>
      <point x="1492" y="1256"/>
      <point x="1317" y="1400"/>
      <point x="992" y="1400" type="curve" smooth="yes"/>
      <point x="342" y="1400" type="line" smooth="yes"/>
      <point x="332" y="1400"/>
      <point x="326" y="1396"/>
      <point x="326" y="1390" type="curve" smooth="yes"/>
      <point x="326" y="1384"/>
      <point x="332" y="1380"/>
      <point x="340" y="1378" type="curve" smooth="yes"/>
      <point x="442" y="1352" type="line" smooth="yes"/>
      <point x="454" y="1348"/>
      <point x="458" y="1342"/>
      <point x="456" y="1328" type="curve" smooth="yes"/>
      <point x="448" y="1292"/>
      <point x="134" y="126"/>
      <point x="120" y="76" type="curve" smooth="yes"/>
      <point x="112" y="50"/>
      <point x="104" y="46"/>
      <point x="78" y="40" type="curve" smooth="yes"/>
      <point x="-22" y="20" type="line" smooth="yes"/>
      <point x="-32" y="18"/>
      <point x="-34" y="14"/>
      <point x="-34" y="10" type="curve" smooth="yes"/>
      <point x="-34" y="4"/>
      <point x="-28" y="0"/>
      <point x="-22" y="0" type="curve" smooth="yes"/>
      <point x="626" y="0" type="line" smooth="yes"/>
      <point x="638" y="0"/>
      <point x="642" y="4"/>
      <point x="642" y="10" type="curve" smooth="yes"/>
      <point x="642" y="16"/>
      <point x="634" y="20"/>
      <point x="624" y="22" type="curve" smooth="yes"/>
      <point x="542" y="44" type="line" smooth="yes"/>
      <point x="532" y="46"/>
      <point x="516" y="48"/>
      <point x="520" y="64" type="curve" smooth="yes"/>
      <point x="532" y="120"/>
      <point x="827" y="1252"/>
      <point x="846" y="1309" type="curve" smooth="yes"/>
      <point x="859" y="1347"/>
      <point x="899" y="1380"/>
      <point x="955" y="1380" type="curve" smooth="yes"/>
      <point x="1055" y="1380"/>
      <point x="1130" y="1291"/>
      <point x="1110" y="1061" type="curve" smooth="yes"/>
      <point x="1082" y="738"/>
      <point x="915.0" y="572.0"/>
      <point x="712" y="572" type="curve" smooth="yes"/>
      <point x="666" y="572"/>
      <point x="612" y="588"/>
      <point x="560" y="628" type="curve"/>
    </contour>
    <contour>
      <point x="734" y="558" type="line"/>
      <point x="846" y="142" type="line" smooth="yes"/>
      <point x="876" y="31"/>
      <point x="949" y="-20"/>
      <point x="1076" y="-20" type="curve" smooth="yes"/>
      <point x="1255" y="-20"/>
      <point x="1345" y="31"/>
      <point x="1397" y="161" type="curve" smooth="yes"/>
      <point x="1400" y="169"/>
      <point x="1396" y="173"/>
      <point x="1394" y="174" type="curve" smooth="yes"/>
      <point x="1391" y="175"/>
      <point x="1387" y="173"/>
      <point x="1384" y="164" type="curve" smooth="yes"/>
      <point x="1366" y="114"/>
      <point x="1343" y="95"/>
      <point x="1313" y="95" type="curve" smooth="yes"/>
      <point x="1272" y="95"/>
      <point x="1241" y="129"/>
      <point x="1212" y="205" type="curve" smooth="yes"/>
      <point x="1056" y="614" type="line"/>
    </contour>
  </outline>
</glyph>
<glyph name="S" format="2">
  <advance width="1223"/>
  <unicode hex="0053"/>
  <outline>
    <contour>
      <point x="514" y="-34" type="curve" smooth="yes"/>
      <point x="860" y="-34"/>
      <point x="1084" y="152"/>
      <point x="1094" y="402" type="curve" smooth="yes"/>
      <point x="1099" y="564"/>
      <point x="1009" y="684"/>
      <point x="803" y="812" type="curve" smooth="yes"/>
      <point x="653" y="906"/>
      <point x="590" y="992"/>
      <point x="594" y="1114" type="curve" smooth="yes"/>
      <point x="599" y="1276"/>
      <point x="702" y="1406"/>
      <point x="858" y="1406" type="curve" smooth="yes"/>
      <point x="1002" y="1406"/>
      <point x="1073" y="1306"/>
      <point x="1073" y="1126" type="curve" smooth="yes"/>
      <point x="1073" y="1048" type="line" smooth="yes"/>
      <point x="1073" y="990"/>
      <point x="1118" y="966"/>
      <point x="1166" y="966" type="curve" smooth="yes"/>
      <point x="1242" y="966"/>
      <point x="1295" y="1016"/>
      <point x="1298" y="1104" type="curve" smooth="yes"/>
      <point x="1303" y="1260"/>
      <point x="1144" y="1426"/>
      <point x="866" y="1426" type="curve" smooth="yes"/>
      <point x="514" y="1426"/>
      <point x="246" y="1182"/>
      <point x="237" y="916" type="curve" smooth="yes"/>
      <point x="233" y="778"/>
      <point x="280" y="650"/>
      <point x="476" y="528" type="curve" smooth="yes"/>
      <point x="654" y="416"/>
      <point x="705" y="342"/>
      <point x="701" y="238" type="curve" smooth="yes"/>
      <point x="697" y="100"/>
      <point x="613" y="-14"/>
      <point x="499" y="-14" type="curve" smooth="yes"/>
      <point x="361" y="-14"/>
      <point x="253" y="92"/>
      <point x="180" y="302" type="curve" smooth="yes"/>
      <point x="133" y="438" type="line" smooth="yes"/>
      <point x="127" y="458"/>
      <point x="123" y="466"/>
      <point x="115" y="466" type="curve" smooth="yes"/>
      <point x="107" y="466"/>
      <point x="105" y="460"/>
      <point x="103" y="432" type="curve" smooth="yes"/>
      <point x="39" y="-18" type="line" smooth="yes"/>
      <point x="36" y="-30"/>
      <point x="40" y="-36"/>
      <point x="48" y="-36" type="curve" smooth="yes"/>
      <point x="64" y="-36"/>
      <point x="179" y="136"/>
      <point x="215" y="136" type="curve" smooth="yes"/>
      <point x="245" y="136"/>
      <point x="306" y="-34"/>
    </contour>
  </outline>
</glyph>
<glyph name="T" format="2">
  <advance width="1154"/>
  <unicode hex="0054"/>
  <outline>
    <contour>
      <point x="511" y="1419" type="curve" smooth="yes"/>
      <point x="293" y="1419"/>
      <point x="162" y="1269"/>
      <point x="162" y="1101" type="curve" smooth="yes"/>
      <point x="162" y="992"/>
      <point x="216" y="924"/>
      <point x="302" y="924" type="curve" smooth="yes"/>
      <point x="386" y="924"/>
      <point x="440" y="978"/>
      <point x="440" y="1058" type="curve" smooth="yes"/>
      <point x="440" y="1152"/>
      <point x="389" y="1206"/>
      <point x="389" y="1298" type="curve" smooth="yes"/>
      <point x="389" y="1368"/>
      <point x="430" y="1395"/>
      <point x="513" y="1395" type="curve" smooth="yes"/>
      <point x="679" y="1395"/>
      <point x="1042" y="1273"/>
      <point x="1186" y="1273" type="curve" smooth="yes"/>
      <point x="1321" y="1273"/>
      <point x="1421" y="1363"/>
      <point x="1421" y="1499" type="curve" smooth="yes"/>
      <point x="1421" y="1592"/>
      <point x="1363" y="1656"/>
      <point x="1287" y="1656" type="curve" smooth="yes"/>
      <point x="1210" y="1656"/>
      <point x="1154" y="1594"/>
      <point x="1154" y="1506" type="curve" smooth="yes"/>
      <point x="1154" y="1442"/>
      <point x="1175" y="1394"/>
      <point x="1175" y="1361" type="curve" smooth="yes"/>
      <point x="1175" y="1325"/>
      <point x="1154" y="1307"/>
      <point x="1118" y="1307" type="curve" smooth="yes"/>
      <point x="1061" y="1307"/>
      <point x="671" y="1419"/>
    </contour>
    <contour>
      <point x="725" y="74" type="curve" smooth="yes"/>
      <point x="737" y="119"/>
      <point x="1027" y="1274"/>
      <point x="1037" y="1307" type="curve"/>
      <point x="651" y="1403" type="line"/>
      <point x="643" y="1367"/>
      <point x="322" y="128"/>
      <point x="306" y="76" type="curve" smooth="yes"/>
      <point x="297" y="45"/>
      <point x="283" y="31"/>
      <point x="262" y="28" type="curve" smooth="yes"/>
      <point x="183" y="17" type="line" smooth="yes"/>
      <point x="174" y="16"/>
      <point x="170" y="13"/>
      <point x="170" y="8" type="curve" smooth="yes"/>
      <point x="170" y="3"/>
      <point x="174" y="0"/>
      <point x="182" y="0" type="curve" smooth="yes"/>
      <point x="830" y="0" type="line" smooth="yes"/>
      <point x="841" y="0"/>
      <point x="846" y="4"/>
      <point x="846" y="9" type="curve" smooth="yes"/>
      <point x="846" y="14"/>
      <point x="839" y="18"/>
      <point x="828" y="19" type="curve" smooth="yes"/>
      <point x="755" y="29" type="line" smooth="yes"/>
      <point x="726" y="33"/>
      <point x="718" y="48"/>
    </contour>
  </outline>
</glyph>
<glyph name="U" format="2">
  <advance width="663"/>
  <unicode hex="0055"/>
  <anchor x="516" y="738" name="center"/>
  <outline>
    <contour>
      <point x="578" y="232" type="line" smooth="yes"/>
      <point x="546" y="85"/>
      <point x="467" y="30"/>
      <point x="395" y="30" type="curve" smooth="yes"/>
      <point x="310" y="30"/>
      <point x="271" y="64"/>
      <point x="271" y="129" type="curve" smooth="yes"/>
      <point x="271" y="167"/>
      <point x="284" y="218"/>
      <point x="302" y="307" type="curve" smooth="yes"/>
      <point x="373" y="649" type="line" smooth="yes"/>
      <point x="378" y="671"/>
      <point x="382" y="677"/>
      <point x="396" y="680" type="curve" smooth="yes"/>
      <point x="445" y="690" type="line" smooth="yes"/>
      <point x="450" y="691"/>
      <point x="451" y="693"/>
      <point x="451" y="695" type="curve" smooth="yes"/>
      <point x="451" y="698"/>
      <point x="449" y="700"/>
      <point x="445" y="700" type="curve" smooth="yes"/>
      <point x="125" y="700" type="line" smooth="yes"/>
      <point x="120" y="700"/>
      <point x="117" y="698"/>
      <point x="117" y="695" type="curve" smooth="yes"/>
      <point x="117" y="692"/>
      <point x="120" y="690"/>
      <point x="124" y="689" type="curve" smooth="yes"/>
      <point x="175" y="676" type="line" smooth="yes"/>
      <point x="181" y="674"/>
      <point x="184" y="669"/>
      <point x="183" y="664" type="curve" smooth="yes"/>
      <point x="105" y="304" type="line" smooth="yes"/>
      <point x="95" y="258"/>
      <point x="77" y="189"/>
      <point x="77" y="154" type="curve" smooth="yes"/>
      <point x="77" y="58"/>
      <point x="150" y="-10"/>
      <point x="300" y="-10" type="curve" smooth="yes"/>
      <point x="447" y="-10"/>
      <point x="550" y="61"/>
      <point x="587" y="230" type="curve" smooth="yes"/>
      <point x="681" y="662" type="line" smooth="yes"/>
      <point x="684" y="675"/>
      <point x="689" y="677"/>
      <point x="702" y="680" type="curve" smooth="yes"/>
      <point x="751" y="690" type="line" smooth="yes"/>
      <point x="756" y="691"/>
      <point x="757" y="693"/>
      <point x="757" y="695" type="curve" smooth="yes"/>
      <point x="757" y="698"/>
      <point x="755" y="700"/>
      <point x="751" y="700" type="curve" smooth="yes"/>
      <point x="614" y="700" type="line" smooth="yes"/>
      <point x="609" y="700"/>
      <point x="606" y="698"/>
      <point x="606" y="695" type="curve" smooth="yes"/>
      <point x="606" y="692"/>
      <point x="609" y="690"/>
      <point x="613" y="689" type="curve" smooth="yes"/>
      <point x="664" y="676" type="line" smooth="yes"/>
      <point x="670" y="674"/>
      <point x="674" y="671"/>
      <point x="672" y="664" type="curve" smooth="yes"/>
    </contour>
  </outline>
</glyph>
<glyph name="V" format="1">
  <advance width="663"/>
  <unicode hex="0056"/>
  <outline>
    <contour>
      <point x="566" y="666" type="curve" smooth="yes"/>
      <point x="566" y="650"/>
      <point x="575" y="640"/>
      <point x="591" y="624" type="curve" smooth="yes"/>
      <point x="590" y="627" type="line" smooth="yes"/>
      <point x="613" y="612"/>
      <point x="623" y="587"/>
      <point x="623" y="560" type="curve" smooth="yes"/>
      <point x="623" y="545"/>
      <point x="612" y="518"/>
      <point x="593" y="488" type="curve" smooth="yes"/>
      <point x="342" y="90" type="line"/>
      <point x="381" y="79" type="line"/>
      <point x="381" y="242"/>
      <point x="364" y="459"/>
      <point x="367" y="536" type="curve" smooth="yes"/>
      <point x="368" y="594"/>
      <point x="385" y="612"/>
      <point x="410" y="620" type="curve" smooth="yes"/>
      <point x="434" y="627" type="line" smooth="yes"/>
      <point x="449" y="632"/>
      <point x="465" y="641"/>
      <point x="465" y="665" type="curve" smooth="yes"/>
      <point x="465" y="688"/>
      <point x="448" y="700"/>
      <point x="430" y="700" type="curve" smooth="yes"/>
      <point x="168" y="700" type="line" smooth="yes"/>
      <point x="150" y="700"/>
      <point x="136" y="685"/>
      <point x="136" y="666" type="curve" smooth="yes"/>
      <point x="136" y="649"/>
      <point x="134" y="633"/>
      <point x="149" y="628" type="curve" smooth="yes"/>
      <point x="168" y="624"/>
      <point x="181" y="603"/>
      <point x="183" y="539" type="curve" smooth="yes"/>
      <point x="186" y="460"/>
      <point x="203" y="157"/>
      <point x="208" y="112" type="curve" smooth="yes"/>
      <point x="209" y="108"/>
      <point x="205" y="103"/>
      <point x="202" y="84" type="curve" smooth="yes"/>
      <point x="193" y="38" type="line" smooth="yes"/>
      <point x="189" y="11"/>
      <point x="201" y="0"/>
      <point x="233" y="0" type="curve" smooth="yes"/>
      <point x="359" y="0" type="line" smooth="yes"/>
      <point x="385" y="0"/>
      <point x="411" y="9"/>
      <point x="414" y="34" type="curve" smooth="yes"/>
      <point x="424" y="66" type="line" smooth="yes"/>
      <point x="429" y="85"/>
      <point x="440" y="94"/>
      <point x="447" y="108" type="curve" smooth="yes"/>
      <point x="692" y="492" type="line" smooth="yes"/>
      <point x="743" y="573"/>
      <point x="768" y="595"/>
      <point x="784" y="600" type="curve" smooth="yes"/>
      <point x="809" y="611"/>
      <point x="815" y="626"/>
      <point x="815" y="647" type="curve" smooth="yes"/>
      <point x="815" y="684"/>
      <point x="800" y="700"/>
      <point x="769" y="700" type="curve" smooth="yes"/>
      <point x="584" y="700" type="line" smooth="yes"/>
      <point x="574" y="700"/>
      <point x="566" y="686"/>
    </contour>
  </outline>
</glyph>
<glyph name="W" format="1">
  <advance width="1045"/>
  <unicode hex="0057"/>
  <outline>
    <contour>
      <point x="613" y="570" type="line"/>
      <point x="333" y="123" type="line"/>
      <point x="364" y="114" type="line"/>
      <point x="364" y="260"/>
      <point x="350" y="471"/>
      <point x="350" y="564" type="curve" smooth="yes"/>
      <point x="348" y="605"/>
      <point x="370" y="616"/>
      <point x="434" y="627" type="curve" smooth="yes"/>
      <point x="443" y="629"/>
      <point x="447" y="648"/>
      <point x="447" y="667" type="curve" smooth="yes"/>
      <point x="447" y="690"/>
      <point x="430" y="700"/>
      <point x="397" y="700" type="curve" smooth="yes"/>
      <point x="159" y="700" type="line" smooth="yes"/>
      <point x="147" y="700"/>
      <point x="139" y="688"/>
      <point x="139" y="676" type="curve" smooth="yes"/>
      <point x="139" y="661"/>
      <point x="145" y="654"/>
      <point x="143" y="653" type="curve" smooth="yes"/>
      <point x="165" y="639"/>
      <point x="181" y="612"/>
      <point x="182" y="574" type="curve" smooth="yes"/>
      <point x="187" y="413"/>
      <point x="199" y="188"/>
      <point x="201" y="90" type="curve" smooth="yes"/>
      <point x="202" y="72"/>
      <point x="183" y="31"/>
      <point x="183" y="15" type="curve" smooth="yes"/>
      <point x="183" y="6"/>
      <point x="187" y="0"/>
      <point x="200" y="0" type="curve" smooth="yes"/>
      <point x="361" y="0" type="line" smooth="yes"/>
      <point x="372" y="0"/>
      <point x="378" y="7"/>
      <point x="382" y="20" type="curve" smooth="yes"/>
      <point x="394" y="65"/>
      <point x="399" y="84"/>
      <point x="414" y="106" type="curve" smooth="yes"/>
      <point x="663" y="499" type="line"/>
    </contour>
    <contour>
      <point x="964" y="669" type="curve" smooth="yes"/>
      <point x="964" y="656"/>
      <point x="969" y="647"/>
      <point x="980" y="632" type="curve" smooth="yes"/>
      <point x="994" y="627"/>
      <point x="1017" y="592"/>
      <point x="1017" y="567" type="curve" smooth="yes"/>
      <point x="1017" y="553"/>
      <point x="1017" y="531"/>
      <point x="1007" y="515" type="curve" smooth="yes"/>
      <point x="773" y="140" type="line"/>
      <point x="779" y="114" type="line"/>
      <point x="782" y="221"/>
      <point x="771" y="456"/>
      <point x="764" y="552" type="curve" smooth="yes"/>
      <point x="762" y="598"/>
      <point x="784" y="606"/>
      <point x="840" y="614" type="curve" smooth="yes"/>
      <point x="861" y="619"/>
      <point x="862" y="645"/>
      <point x="862" y="668" type="curve" smooth="yes"/>
      <point x="862" y="690"/>
      <point x="850" y="700"/>
      <point x="815" y="700" type="curve" smooth="yes"/>
      <point x="590" y="700" type="line" smooth="yes"/>
      <point x="578" y="700"/>
      <point x="567" y="688"/>
      <point x="565" y="668" type="curve" smooth="yes"/>
      <point x="564" y="652"/>
      <point x="564" y="637"/>
      <point x="577" y="631" type="curve" smooth="yes"/>
      <point x="598" y="626"/>
      <point x="609" y="609"/>
      <point x="611" y="573" type="curve" smooth="yes"/>
      <point x="618" y="437"/>
      <point x="622" y="263"/>
      <point x="629" y="102" type="curve" smooth="yes"/>
      <point x="631" y="71"/>
      <point x="609" y="32"/>
      <point x="609" y="15" type="curve" smooth="yes"/>
      <point x="609" y="6"/>
      <point x="615" y="0"/>
      <point x="625" y="0" type="curve" smooth="yes"/>
      <point x="796" y="0" type="line" smooth="yes"/>
      <point x="805" y="0"/>
      <point x="812" y="5"/>
      <point x="816" y="17" type="curve" smooth="yes"/>
      <point x="830" y="64"/>
      <point x="818" y="94"/>
      <point x="827" y="105" type="curve" smooth="yes"/>
      <point x="1078" y="502" type="line" smooth="yes"/>
      <point x="1114" y="561"/>
      <point x="1158" y="594"/>
      <point x="1182" y="601" type="curve" smooth="yes"/>
      <point x="1210" y="611"/>
      <point x="1216" y="625"/>
      <point x="1216" y="642" type="curve" smooth="yes"/>
      <point x="1216" y="681"/>
      <point x="1192" y="700"/>
      <point x="1150" y="700" type="curve" smooth="yes"/>
      <point x="973" y="700" type="line" smooth="yes"/>
      <point x="968" y="700"/>
      <point x="964" y="687"/>
    </contour>
    <contour>
      <point x="705" y="739" type="move" name="center"/>
    </contour>
  </outline>
</glyph>
<glyph name="X" format="2">
  <advance width="1250"/>
  <unicode hex="0058"/>
  <outline>
    <contour>
      <point x="530" y="673" type="line"/>
      <point x="187" y="206" type="line" smooth="yes"/>
      <point x="93" y="78"/>
      <point x="5" y="34"/>
      <point x="-94" y="26" type="curve" smooth="yes"/>
      <point x="-108" y="25"/>
      <point x="-112" y="19"/>
      <point x="-112" y="14" type="curve" smooth="yes"/>
      <point x="-112" y="5"/>
      <point x="-106" y="0"/>
      <point x="-93" y="0" type="curve" smooth="yes"/>
      <point x="316" y="0" type="line" smooth="yes"/>
      <point x="326" y="0"/>
      <point x="334" y="6"/>
      <point x="334" y="14" type="curve" smooth="yes"/>
      <point x="334" y="21"/>
      <point x="326" y="28"/>
      <point x="311" y="31" type="curve" smooth="yes"/>
      <point x="260" y="40" type="line" smooth="yes"/>
      <point x="173" y="55"/>
      <point x="143" y="114"/>
      <point x="204" y="197" type="curve" smooth="yes"/>
      <point x="540" y="656" type="line"/>
    </contour>
    <contour>
      <point x="746" y="1266" type="curve" smooth="yes"/>
      <point x="734" y="1316"/>
      <point x="748" y="1352"/>
      <point x="796" y="1360" type="curve" smooth="yes"/>
      <point x="892" y="1376" type="line" smooth="yes"/>
      <point x="907" y="1379"/>
      <point x="910" y="1383"/>
      <point x="910" y="1390" type="curve" smooth="yes"/>
      <point x="910" y="1396"/>
      <point x="901" y="1400"/>
      <point x="886" y="1400" type="curve" smooth="yes"/>
      <point x="252" y="1400" type="line" smooth="yes"/>
      <point x="239" y="1400"/>
      <point x="230" y="1396"/>
      <point x="230" y="1390" type="curve" smooth="yes"/>
      <point x="230" y="1385"/>
      <point x="236" y="1382"/>
      <point x="256" y="1378" type="curve" smooth="yes"/>
      <point x="300" y="1370"/>
      <point x="319" y="1336"/>
      <point x="342" y="1272" type="curve" smooth="yes"/>
      <point x="384" y="1159"/>
      <point x="612" y="309"/>
      <point x="648" y="152" type="curve" smooth="yes"/>
      <point x="665" y="77"/>
      <point x="655" y="39"/>
      <point x="593" y="34" type="curve" smooth="yes"/>
      <point x="497" y="26" type="line" smooth="yes"/>
      <point x="481" y="25"/>
      <point x="478" y="19"/>
      <point x="478" y="12" type="curve" smooth="yes"/>
      <point x="478" y="5"/>
      <point x="483" y="0"/>
      <point x="496" y="0" type="curve" smooth="yes"/>
      <point x="1143" y="0" type="line" smooth="yes"/>
      <point x="1152" y="0"/>
      <point x="1158" y="6"/>
      <point x="1158" y="13" type="curve" smooth="yes"/>
      <point x="1158" y="18"/>
      <point x="1152" y="22"/>
      <point x="1142" y="23" type="curve" smooth="yes"/>
      <point x="1095" y="28"/>
      <point x="1075" y="61"/>
      <point x="1050" y="142" type="curve" smooth="yes"/>
      <point x="991" y="338"/>
      <point x="780" y="1128"/>
    </contour>
    <contour>
      <point x="802" y="682" type="line"/>
      <point x="1077" y="1092" type="line" smooth="yes"/>
      <point x="1140" y="1186"/>
      <point x="1175" y="1228.0"/>
      <point x="1257" y="1228" type="curve" smooth="yes"/>
      <point x="1278" y="1228"/>
      <point x="1305" y="1228"/>
      <point x="1344" y="1228" type="curve" smooth="yes"/>
      <point x="1412" y="1228.0"/>
      <point x="1476.0" y="1272.1212121212122"/>
      <point x="1476" y="1340" type="curve" smooth="yes"/>
      <point x="1476.0" y="1406.0"/>
      <point x="1441" y="1450"/>
      <point x="1382" y="1450" type="curve" smooth="yes"/>
      <point x="1319.0" y="1450.0"/>
      <point x="1257" y="1405"/>
      <point x="1178" y="1285" type="curve" smooth="yes"/>
      <point x="787" y="693" type="line"/>
    </contour>
  </outline>
</glyph>
<glyph name="Y" format="2">
  <advance width="1156"/>
  <unicode hex="0059"/>
  <anchor x="746" y="1496.0" name="center"/>
  <outline>
    <contour>
      <point x="746" y="447" type="line"/>
      <point x="757" y="460" type="line"/>
      <point x="759" y="534"/>
      <point x="672" y="1321"/>
      <point x="669" y="1358" type="curve" smooth="yes"/>
      <point x="667" y="1384"/>
      <point x="653" y="1400"/>
      <point x="625" y="1400" type="curve" smooth="yes"/>
      <point x="227" y="1400" type="line" smooth="yes"/>
      <point x="215" y="1400"/>
      <point x="208" y="1397"/>
      <point x="208" y="1390" type="curve" smooth="yes"/>
      <point x="208" y="1383"/>
      <point x="211" y="1377"/>
      <point x="225" y="1375" type="curve" smooth="yes"/>
      <point x="257" y="1371"/>
      <point x="277" y="1353"/>
      <point x="285" y="1323" type="curve" smooth="yes"/>
      <point x="293" y="1289"/>
      <point x="386" y="602"/>
      <point x="386" y="512" type="curve" smooth="yes"/>
      <point x="386" y="493"/>
      <point x="383" y="445"/>
      <point x="374" y="411" type="curve" smooth="yes"/>
      <point x="285" y="76" type="line" smooth="yes"/>
      <point x="279" y="54"/>
      <point x="268" y="46"/>
      <point x="238" y="40" type="curve" smooth="yes"/>
      <point x="141" y="20" type="line" smooth="yes"/>
      <point x="133" y="18"/>
      <point x="128" y="16"/>
      <point x="129" y="10" type="curve" smooth="yes"/>
      <point x="129" y="3"/>
      <point x="135" y="0"/>
      <point x="145" y="0" type="curve" smooth="yes"/>
      <point x="785" y="0" type="line" smooth="yes"/>
      <point x="798" y="0"/>
      <point x="804" y="2"/>
      <point x="804" y="10" type="curve" smooth="yes"/>
      <point x="804" y="15"/>
      <point x="799" y="18"/>
      <point x="788" y="21" type="curve" smooth="yes"/>
      <point x="708" y="43" type="line" smooth="yes"/>
      <point x="686" y="49"/>
      <point x="680" y="55"/>
      <point x="684" y="75" type="curve" smooth="yes"/>
      <point x="758" y="414" type="line" smooth="yes"/>
      <point x="762" y="433"/>
      <point x="769" y="460"/>
      <point x="785" y="492" type="curve" smooth="yes"/>
      <point x="999" y="927" type="line" smooth="yes"/>
      <point x="1070.2799878488606" y="1071.8915640853008"/>
      <point x="1145.8682210543363" y="1150.7072985485352"/>
      <point x="1263" y="1181" type="curve" smooth="yes"/>
      <point x="1370.3342575039862" y="1208.5721028450607"/>
      <point x="1424.0" y="1258.0"/>
      <point x="1424" y="1332" type="curve" smooth="yes"/>
      <point x="1424.0" y="1389.6610169491526"/>
      <point x="1396.8407079646017" y="1440.0"/>
      <point x="1331" y="1440" type="curve" smooth="yes"/>
      <point x="1242.0" y="1440.0"/>
      <point x="1183.3164528704672" y="1355.9090601551063"/>
      <point x="1116" y="1216" type="curve" smooth="yes"/>
    </contour>
  </outline>
</glyph>
<glyph name="Z" format="2">
  <advance width="1261"/>
  <unicode hex="005A"/>
  <outline>
    <contour>
      <point x="800" y="0" type="line" smooth="yes"/>
      <point x="866.1949152542372" y="0"/>
      <point x="885.3728813559322" y="-20.0"/>
      <point x="946" y="-20" type="curve" smooth="yes"/>
      <point x="1078.0" y="-20.0"/>
      <point x="1176.0" y="142.0"/>
      <point x="1176" y="457" type="curve" smooth="yes"/>
      <point x="1176" y="474"/>
      <point x="1172" y="482"/>
      <point x="1164" y="482" type="curve" smooth="yes"/>
      <point x="1156" y="482"/>
      <point x="1151" y="480"/>
      <point x="1144" y="466" type="curve" smooth="yes"/>
      <point x="1001" y="173"/>
      <point x="781" y="18"/>
      <point x="532" y="18" type="curve" smooth="yes"/>
      <point x="336" y="18" type="line"/>
      <point x="356" y="5" type="line"/>
      <point x="471.88995524942646" y="159.85295744535432"/>
      <point x="1362.0617587142237" y="1270.0691697599307"/>
      <point x="1437" y="1354" type="curve" smooth="yes"/>
      <point x="1441" y="1358"/>
      <point x="1448" y="1371"/>
      <point x="1448" y="1378" type="curve" smooth="yes"/>
      <point x="1448" y="1393"/>
      <point x="1437" y="1400"/>
      <point x="1414" y="1400" type="curve" smooth="yes"/>
      <point x="466" y="1400" type="line" smooth="yes"/>
      <point x="433.93939393939394" y="1400"/>
      <point x="410.6056338028169" y="1432.0"/>
      <point x="397" y="1432" type="curve" smooth="yes"/>
      <point x="383.5" y="1432.0"/>
      <point x="376.0109255904648" y="1425.643261401676"/>
      <point x="370" y="1407" type="curve" smooth="yes"/>
      <point x="242" y="1010" type="line" smooth="yes"/>
      <point x="237" y="994"/>
      <point x="247" y="988"/>
      <point x="254" y="988" type="curve" smooth="yes"/>
      <point x="264" y="988"/>
      <point x="275" y="985"/>
      <point x="286" y="1009" type="curve" smooth="yes"/>
      <point x="398" y="1251"/>
      <point x="597" y="1388"/>
      <point x="822" y="1388" type="curve" smooth="yes"/>
      <point x="1004" y="1388" type="line"/>
      <point x="1002" y="1396" type="line"/>
      <point x="925.076192554071" y="1287.1078569921265"/>
      <point x="67.88563352529889" y="208.85335266550425"/>
      <point x="-56" y="50" type="curve" smooth="yes"/>
      <point x="-63" y="41"/>
      <point x="-68" y="24"/>
      <point x="-68" y="16" type="curve" smooth="yes"/>
      <point x="-68" y="5"/>
      <point x="-62" y="0"/>
      <point x="-50" y="0" type="curve" smooth="yes"/>
    </contour>
  </outline>
</glyph>
<glyph name="bracketleft" format="1">
  <advance width="405"/>
  <unicode hex="005B"/>
  <outline>
    <contour>
      <point x="423" y="646" type="line" smooth="yes"/>
      <point x="431" y="671"/>
      <point x="455" y="690"/>
      <point x="479" y="690" type="curve" smooth="yes"/>
      <point x="536" y="690" type="line" smooth="yes"/>
      <point x="567" y="690"/>
      <point x="587" y="700"/>
      <point x="593" y="722" type="curve" smooth="yes"/>
      <point x="596" y="742"/>
      <point x="584" y="755"/>
      <point x="553" y="755" type="curve" smooth="yes"/>
      <point x="337" y="755" type="line" smooth="yes"/>
      <point x="309" y="755"/>
      <point x="280" y="731"/>
      <point x="273" y="701" type="curve" smooth="yes"/>
      <point x="50" y="-129" type="line" smooth="yes"/>
      <point x="44" y="-155"/>
      <point x="60" y="-177"/>
      <point x="87" y="-177" type="curve" smooth="yes"/>
      <point x="305" y="-177" type="line" smooth="yes"/>
      <point x="337" y="-177"/>
      <point x="356" y="-161"/>
      <point x="359" y="-144" type="curve" smooth="yes"/>
      <point x="365" y="-123"/>
      <point x="352" y="-112"/>
      <point x="320" y="-112" type="curve" smooth="yes"/>
      <point x="265" y="-112" type="line" smooth="yes"/>
      <point x="241" y="-112"/>
      <point x="226" y="-92"/>
      <point x="232" y="-68" type="curve" smooth="yes"/>
    </contour>
  </outline>
</glyph>
<glyph name="a" format="2">
  <advance width="1108"/>
  <unicode hex="0061"/>
  <anchor x="664.0" y="1040.0" name="center"/>
  <outline>
    <contour>
      <point x="926" y="166" type="curve" smooth="yes"/>
      <point x="926" y="224"/>
      <point x="1033" y="687"/>
      <point x="1069" y="796" type="curve" smooth="yes"/>
      <point x="1079" y="826"/>
      <point x="1123" y="816"/>
      <point x="1123" y="840" type="curve" smooth="yes"/>
      <point x="1123" y="864"/>
      <point x="1009" y="916"/>
      <point x="799" y="916" type="curve" smooth="yes"/>
      <point x="322" y="916"/>
      <point x="42" y="653"/>
      <point x="3" y="329" type="curve" smooth="yes"/>
      <point x="-29" y="68"/>
      <point x="82" y="-20"/>
      <point x="232" y="-20" type="curve" smooth="yes"/>
      <point x="388" y="-20"/>
      <point x="527" y="81"/>
      <point x="608" y="280" type="curve"/>
      <point x="598" y="284" type="line"/>
      <point x="588" y="228"/>
      <point x="578" y="166"/>
      <point x="578" y="116" type="curve" smooth="yes"/>
      <point x="578" y="34"/>
      <point x="620" y="-18"/>
      <point x="708" y="-18" type="curve" smooth="yes"/>
      <point x="866" y="-18"/>
      <point x="970" y="20"/>
      <point x="1066" y="154" type="curve" smooth="yes"/>
      <point x="1076" y="168"/>
      <point x="1074" y="178"/>
      <point x="1066" y="178" type="curve" smooth="yes"/>
      <point x="1060" y="178"/>
      <point x="1056" y="176"/>
      <point x="1052" y="170" type="curve" smooth="yes"/>
      <point x="1012" y="114"/>
      <point x="994" y="106"/>
      <point x="970" y="106" type="curve" smooth="yes"/>
      <point x="944" y="106"/>
      <point x="926" y="128"/>
    </contour>
    <contour>
      <point x="383" y="298" type="curve" smooth="yes"/>
      <point x="426" y="623"/>
      <point x="566" y="874"/>
      <point x="681" y="874" type="curve" smooth="yes"/>
      <point x="709" y="874"/>
      <point x="723" y="866"/>
      <point x="723" y="820" type="curve" smooth="yes"/>
      <point x="723" y="521"/>
      <point x="529" y="86"/>
      <point x="434" y="86" type="curve" smooth="yes"/>
      <point x="396" y="86"/>
      <point x="361" y="136"/>
    </contour>
  </outline>
</glyph>
<glyph name="b" format="2">
  <advance width="1080"/>
  <unicode hex="0062"/>
  <outline>
    <contour>
      <point x="686" y="1318" type="line" smooth="yes"/>
      <point x="710" y="1396"/>
      <point x="737" y="1422"/>
      <point x="770" y="1422" type="curve" smooth="yes"/>
      <point x="892" y="1422"/>
      <point x="955" y="1212"/>
      <point x="1087" y="1212" type="curve" smooth="yes"/>
      <point x="1159" y="1212"/>
      <point x="1203" y="1259"/>
      <point x="1203" y="1316" type="curve" smooth="yes"/>
      <point x="1203" y="1404"/>
      <point x="1105" y="1470"/>
      <point x="916" y="1470" type="curve" smooth="yes"/>
      <point x="549" y="1470"/>
      <point x="314" y="1256"/>
      <point x="218" y="897" type="curve" smooth="yes"/>
      <point x="-11" y="40" type="line" smooth="yes"/>
      <point x="-23" y="-5"/>
      <point x="-18" y="-16"/>
      <point x="3" y="-16" type="curve" smooth="yes"/>
      <point x="12" y="-16"/>
      <point x="25" y="-12"/>
      <point x="45" y="-4" type="curve" smooth="yes"/>
      <point x="371" y="124" type="line"/>
      <point x="356" y="139" type="line"/>
      <point x="356.0" y="37.0"/>
      <point x="414.0" y="-20"/>
      <point x="545" y="-20.0" type="curve" smooth="yes"/>
      <point x="788" y="-20"/>
      <point x="1001.0" y="164.0"/>
      <point x="1042" y="526" type="curve" smooth="yes"/>
      <point x="1071" y="779"/>
      <point x="981" y="916"/>
      <point x="823" y="916" type="curve" smooth="yes"/>
      <point x="623.0" y="916.0"/>
      <point x="508.0" y="809.0"/>
      <point x="449" y="618" type="curve"/>
      <point x="465" y="614" type="line"/>
    </contour>
    <contour>
      <point x="630" y="825" type="curve" smooth="yes"/>
      <point x="671.0" y="825.0"/>
      <point x="709" y="776"/>
      <point x="671" y="525" type="curve" smooth="yes"/>
      <point x="618.6300691543686" y="184.10139355202188"/>
      <point x="515.0" y="38.0"/>
      <point x="444" y="38" type="curve" smooth="yes"/>
      <point x="411.0" y="38.0"/>
      <point x="385.78735823100027" y="69.25283537999535"/>
      <point x="382" y="145" type="curve" smooth="yes"/>
      <point x="367.14985914270153" y="432.45629802342"/>
      <point x="523.9921568627451" y="825.0"/>
    </contour>
  </outline>
</glyph>
<glyph name="c" format="2">
  <advance width="915"/>
  <unicode hex="0063"/>
  <anchor x="572.0" y="984.0" name="center"/>
  <outline>
    <contour>
      <point x="600" y="882.0" type="curve" smooth="yes"/>
      <point x="644" y="882"/>
      <point x="660.0" y="842.0"/>
      <point x="660.0" y="793" type="curve" smooth="yes"/>
      <point x="660" y="738"/>
      <point x="652" y="696"/>
      <point x="646.0" y="646" type="curve" smooth="yes"/>
      <point x="637.0" y="569.0"/>
      <point x="692.0" y="518.0"/>
      <point x="763" y="518.0" type="curve" smooth="yes"/>
      <point x="840" y="518"/>
      <point x="904" y="560"/>
      <point x="916" y="631" type="curve" smooth="yes"/>
      <point x="941" y="774"/>
      <point x="840" y="915.0"/>
      <point x="592" y="915" type="curve" smooth="yes"/>
      <point x="308" y="915"/>
      <point x="86" y="700"/>
      <point x="38" y="425" type="curve" smooth="yes"/>
      <point x="-11" y="147"/>
      <point x="126" y="-20"/>
      <point x="362" y="-20" type="curve" smooth="yes"/>
      <point x="575" y="-20"/>
      <point x="766" y="86"/>
      <point x="865" y="350" type="curve" smooth="yes"/>
      <point x="869" y="361"/>
      <point x="868" y="369"/>
      <point x="861" y="371" type="curve" smooth="yes"/>
      <point x="855" y="373"/>
      <point x="848" y="370"/>
      <point x="845" y="361" type="curve" smooth="yes"/>
      <point x="792" y="233"/>
      <point x="714" y="177"/>
      <point x="593" y="177" type="curve" smooth="yes"/>
      <point x="451" y="177"/>
      <point x="382" y="295"/>
      <point x="423" y="555" type="curve" smooth="yes"/>
      <point x="456" y="769"/>
      <point x="538" y="882"/>
    </contour>
  </outline>
</glyph>
<glyph name="d" format="2">
  <advance width="1120"/>
  <unicode hex="0064"/>
  <outline>
    <contour>
      <point x="1104.0" y="754.0" type="line"/>
      <point x="1100.0" y="836.0"/>
      <point x="982.0" y="916.0"/>
      <point x="852.0" y="916.0" type="curve" smooth="yes"/>
      <point x="478.0" y="916.0"/>
      <point x="134.0" y="510.0"/>
      <point x="134.0" y="220.0" type="curve" smooth="yes"/>
      <point x="134.0" y="72.0"/>
      <point x="234.0" y="-20.0"/>
      <point x="368.0" y="-20.0" type="curve" smooth="yes"/>
      <point x="524.0" y="-20.0"/>
      <point x="666.0" y="56.0"/>
      <point x="802.0" y="366.0" type="curve"/>
      <point x="756.0" y="368.0" type="line"/>
      <point x="738.0" y="292.0"/>
      <point x="712.0" y="236.0"/>
      <point x="712.0" y="152.0" type="curve" smooth="yes"/>
      <point x="712.0" y="58.0"/>
      <point x="782.0" y="-20.0"/>
      <point x="864.0" y="-20.0" type="curve" smooth="yes"/>
      <point x="1078.0" y="-20.0"/>
      <point x="1164.0" y="102.0"/>
      <point x="1164.0" y="220.0" type="curve" smooth="yes"/>
      <point x="1164.0" y="272.0"/>
      <point x="1144.0" y="296.0"/>
      <point x="1120.0" y="296.0" type="curve" smooth="yes"/>
      <point x="1122.0" y="296.0"/>
      <point x="1118.0" y="308.0"/>
      <point x="1120.0" y="304.0" type="curve" smooth="yes"/>
      <point x="1096.0" y="224.0"/>
      <point x="1080.0" y="218.0"/>
      <point x="1062.0" y="218.0" type="curve" smooth="yes"/>
      <point x="1036.0" y="218.0"/>
      <point x="1024.0" y="242.0"/>
      <point x="1024.0" y="330.0" type="curve" smooth="yes"/>
      <point x="1024.0" y="352.0"/>
      <point x="1034.0" y="412.0"/>
      <point x="1070.0" y="536.0" type="curve" smooth="yes"/>
      <point x="1152.0" y="812.0" type="line" smooth="yes"/>
      <point x="1198.0" y="970.0"/>
      <point x="1140.0" y="1002.0"/>
      <point x="1142.0" y="1116.0" type="curve" smooth="yes"/>
      <point x="1142.0" y="1152.0"/>
      <point x="1150.0" y="1162.0"/>
      <point x="1180.0" y="1162.0" type="curve" smooth="yes"/>
      <point x="1242.0" y="1162.0"/>
      <point x="1272.0" y="1142.0"/>
      <point x="1356.0" y="1142.0" type="curve" smooth="yes"/>
      <point x="1462.0" y="1142.0"/>
      <point x="1524.0" y="1200.0"/>
      <point x="1524.0" y="1296.0" type="curve" smooth="yes"/>
      <point x="1524.0" y="1384.0"/>
      <point x="1476.0" y="1466.0"/>
      <point x="1392.0" y="1466.0" type="curve" smooth="yes"/>
      <point x="1226.0" y="1466.0"/>
      <point x="1048.0" y="1370.0"/>
      <point x="980.0" y="1134.0" type="curve" smooth="yes"/>
      <point x="852.0" y="674.0" type="line" smooth="yes"/>
      <point x="732.0" y="262.0"/>
      <point x="600.0" y="218.0"/>
      <point x="502.0" y="218.0" type="curve" smooth="yes"/>
      <point x="468.0" y="218.0"/>
      <point x="412.0" y="230.0"/>
      <point x="412.0" y="260.0" type="curve" smooth="yes"/>
      <point x="412.0" y="562.0"/>
      <point x="532.0" y="734.0"/>
      <point x="800.0" y="734.0" type="curve" smooth="yes"/>
      <point x="810.0" y="734.0"/>
      <point x="868.0" y="724.0"/>
      <point x="892.0" y="642.0" type="curve"/>
    </contour>
  </outline>
</glyph>
<glyph name="e" format="2">
  <advance width="936"/>
  <unicode hex="0065"/>
  <anchor x="574" y="1056.0" name="center"/>
  <outline>
    <contour>
      <point x="212" y="408" type="curve"/>
      <point x="222" y="386" type="line"/>
      <point x="222" y="386"/>
      <point x="846" y="570"/>
      <point x="923" y="590" type="curve" smooth="yes"/>
      <point x="935" y="594"/>
      <point x="935" y="598"/>
      <point x="935" y="602" type="curve" smooth="yes"/>
      <point x="935" y="608"/>
      <point x="931" y="614"/>
      <point x="923" y="614" type="curve" smooth="yes"/>
      <point x="903" y="616"/>
      <point x="892" y="630"/>
      <point x="893" y="646" type="curve" smooth="yes"/>
      <point x="899" y="787"/>
      <point x="800" y="916"/>
      <point x="583" y="916" type="curve" smooth="yes"/>
      <point x="279" y="916"/>
      <point x="56" y="683"/>
      <point x="31" y="389" type="curve" smooth="yes"/>
      <point x="8" y="123"/>
      <point x="139" y="-20"/>
      <point x="370" y="-20" type="curve" smooth="yes"/>
      <point x="627" y="-20"/>
      <point x="804" y="107"/>
      <point x="878" y="348" type="curve" smooth="yes"/>
      <point x="881" y="356"/>
      <point x="880" y="366"/>
      <point x="874" y="366" type="curve" smooth="yes"/>
      <point x="866" y="366"/>
      <point x="864" y="360"/>
      <point x="862" y="354" type="curve" smooth="yes"/>
      <point x="811" y="236"/>
      <point x="704" y="184"/>
      <point x="589" y="184" type="curve" smooth="yes"/>
      <point x="463" y="184"/>
      <point x="385" y="281"/>
      <point x="407" y="498" type="curve" smooth="yes"/>
      <point x="432" y="743"/>
      <point x="506" y="884"/>
      <point x="576" y="884" type="curve" smooth="yes"/>
      <point x="609" y="884"/>
      <point x="625" y="839"/>
      <point x="625" y="760" type="curve" smooth="yes"/>
      <point x="625" y="649"/>
      <point x="609" y="561"/>
      <point x="586" y="503" type="curve"/>
      <point x="613" y="529" type="line"/>
      <point x="563" y="510"/>
      <point x="212" y="408"/>
    </contour>
  </outline>
</glyph>
<glyph name="f" format="2">
  <advance width="610"/>
  <unicode hex="0066"/>
  <outline>
    <contour>
      <point x="442" y="850" type="line"/>
      <point x="714" y="850" type="line" smooth="yes"/>
      <point x="726" y="850"/>
      <point x="734" y="853"/>
      <point x="734" y="860" type="curve" smooth="yes"/>
      <point x="734" y="867"/>
      <point x="729" y="872"/>
      <point x="724" y="872" type="curve" smooth="yes"/>
      <point x="452" y="872" type="line"/>
    </contour>
    <contour>
      <point x="80" y="862" type="curve" smooth="yes"/>
      <point x="80" y="856"/>
      <point x="82" y="852"/>
      <point x="92" y="852" type="curve" smooth="yes"/>
      <point x="194" y="852"/>
      <point x="226" y="824"/>
      <point x="192" y="702" type="curve" smooth="yes"/>
      <point x="-60" y="-189" type="line" smooth="yes"/>
      <point x="-108" y="-358"/>
      <point x="-80" y="-426"/>
      <point x="48" y="-426" type="curve" smooth="yes"/>
      <point x="218" y="-426"/>
      <point x="396" y="-346"/>
      <point x="396" y="-234" type="curve" smooth="yes"/>
      <point x="396.0" y="-178.85294117647058"/>
      <point x="310.0" y="-147.97058823529412"/>
      <point x="310" y="-84" type="curve" smooth="yes"/>
      <point x="310.0" y="-61.37037037037037"/>
      <point x="315" y="-32"/>
      <point x="328" y="10" type="curve" smooth="yes"/>
      <point x="589" y="882" type="line" smooth="yes"/>
      <point x="641" y="1055"/>
      <point x="407" y="1177"/>
      <point x="431" y="1305" type="curve" smooth="yes"/>
      <point x="440" y="1352"/>
      <point x="470.0" y="1379.0"/>
      <point x="509" y="1379" type="curve" smooth="yes"/>
      <point x="610" y="1379"/>
      <point x="651" y="1244.0"/>
      <point x="778" y="1244" type="curve" smooth="yes"/>
      <point x="849" y="1244.0"/>
      <point x="894.0" y="1296.0"/>
      <point x="894" y="1353" type="curve" smooth="yes"/>
      <point x="894.0" y="1422"/>
      <point x="833" y="1470"/>
      <point x="700" y="1470" type="curve" smooth="yes"/>
      <point x="493.0" y="1470.0"/>
      <point x="364" y="1338"/>
      <point x="298" y="1084" type="curve" smooth="yes"/>
      <point x="243" y="872" type="line"/>
      <point x="94" y="872" type="line" smooth="yes"/>
      <point x="84" y="872"/>
      <point x="80" y="868"/>
    </contour>
  </outline>
</glyph>
<glyph name="g" format="2">
  <advance width="531"/>
  <unicode hex="0067"/>
  <outline>
    <contour>
      <point x="481" y="15" type="curve" smooth="yes"/>
      <point x="497" y="72"/>
      <point x="523.4061930530157" y="328.7775752996115"/>
      <point x="544" y="402" type="curve" smooth="yes"/>
      <point x="546" y="410"/>
      <point x="570" y="412"/>
      <point x="570" y="419" type="curve" smooth="yes"/>
      <point x="570" y="443"/>
      <point x="514" y="458"/>
      <point x="405" y="458" type="curve" smooth="yes"/>
      <point x="174" y="458"/>
      <point x="8" y="283"/>
      <point x="8" y="103" type="curve" smooth="yes"/>
      <point x="8" y="28"/>
      <point x="50" y="-10"/>
      <point x="113" y="-10" type="curve" smooth="yes"/>
      <point x="198" y="-10"/>
      <point x="269" y="25"/>
      <point x="323" y="137" type="curve"/>
      <point x="318" y="141" type="line"/>
      <point x="318.0" y="79.0"/>
      <point x="300" y="-57"/>
      <point x="272" y="-149" type="curve" smooth="yes"/>
      <point x="262" y="-181"/>
      <point x="250" y="-187"/>
      <point x="234" y="-187" type="curve" smooth="yes"/>
      <point x="161.3205741626794" y="-187.0"/>
      <point x="114" y="-46"/>
      <point x="17" y="-46" type="curve" smooth="yes"/>
      <point x="-37" y="-46"/>
      <point x="-68.0" y="-90.09174311926606"/>
      <point x="-68" y="-135" type="curve" smooth="yes"/>
      <point x="-68.0" y="-194.58333333333331"/>
      <point x="-12" y="-245"/>
      <point x="88" y="-245.0" type="curve" smooth="yes"/>
      <point x="257" y="-245.0"/>
      <point x="437" y="-143"/>
    </contour>
    <contour>
      <point x="205" y="85" type="curve" smooth="yes"/>
      <point x="205" y="207"/>
      <point x="295" y="438"/>
      <point x="357" y="438" type="curve" smooth="yes"/>
      <point x="373" y="438"/>
      <point x="380" y="428"/>
      <point x="380" y="413" type="curve" smooth="yes"/>
      <point x="380" y="285"/>
      <point x="292" y="42"/>
      <point x="223" y="42" type="curve" smooth="yes"/>
      <point x="212" y="42"/>
      <point x="205" y="48"/>
    </contour>
  </outline>
</glyph>
<glyph name="h" format="2">
  <advance width="1161"/>
  <unicode hex="0068"/>
  <outline>
    <contour>
      <point x="423" y="334" type="curve" smooth="yes"/>
      <point x="395" y="230"/>
      <point x="383" y="176"/>
      <point x="383" y="154" type="curve" smooth="yes"/>
      <point x="383" y="122"/>
      <point x="403" y="108"/>
      <point x="403" y="78" type="curve" smooth="yes"/>
      <point x="403" y="18"/>
      <point x="299" y="-20"/>
      <point x="99" y="-20" type="curve" smooth="yes"/>
      <point x="33" y="-20"/>
      <point x="5" y="2"/>
      <point x="5" y="42" type="curve" smooth="yes"/>
      <point x="5" y="56"/>
      <point x="9" y="80"/>
      <point x="17" y="110" type="curve" smooth="yes"/>
      <point x="221" y="896" type="line" smooth="yes"/>
      <point x="309.158236235045" y="1235.6684984350263"/>
      <point x="550.4619565217391" y="1470.0"/>
      <point x="947" y="1470" type="curve" smooth="yes"/>
      <point x="1125" y="1470"/>
      <point x="1239" y="1374"/>
      <point x="1239" y="1268" type="curve" smooth="yes"/>
      <point x="1239" y="1194"/>
      <point x="1183" y="1128"/>
      <point x="1091" y="1128" type="curve" smooth="yes"/>
      <point x="929.5604395604396" y="1128.0"/>
      <point x="838.1428571428571" y="1406.0"/>
      <point x="737" y="1406" type="curve" smooth="yes"/>
      <point x="709" y="1406"/>
      <point x="685" y="1376"/>
      <point x="671" y="1318" type="curve" smooth="yes"/>
      <point x="568" y="888"/>
      <point x="505.1140750060258" y="638.4428794351589"/>
      <point x="471" y="506" type="curve"/>
      <point x="463" y="510" type="line"/>
      <point x="579" y="764"/>
      <point x="771" y="916"/>
      <point x="961" y="916" type="curve" smooth="yes"/>
      <point x="1053" y="916"/>
      <point x="1111" y="858"/>
      <point x="1111" y="774" type="curve" smooth="yes"/>
      <point x="1111" y="728"/>
      <point x="1099" y="678"/>
      <point x="1087" y="636" type="curve" smooth="yes"/>
      <point x="963" y="220" type="line" smooth="yes"/>
      <point x="953" y="186"/>
      <point x="947" y="168"/>
      <point x="947" y="154" type="curve" smooth="yes"/>
      <point x="947" y="134"/>
      <point x="953" y="106"/>
      <point x="979" y="106" type="curve" smooth="yes"/>
      <point x="999" y="106"/>
      <point x="1029" y="122"/>
      <point x="1065" y="174" type="curve" smooth="yes"/>
      <point x="1083" y="198"/>
      <point x="1085" y="200"/>
      <point x="1089" y="200" type="curve" smooth="yes"/>
      <point x="1095" y="200"/>
      <point x="1099" y="194"/>
      <point x="1087" y="168" type="curve" smooth="yes"/>
      <point x="1035" y="56"/>
      <point x="909" y="-20"/>
      <point x="717" y="-20" type="curve" smooth="yes"/>
      <point x="609" y="-20"/>
      <point x="555" y="12"/>
      <point x="555" y="82" type="curve" smooth="yes"/>
      <point x="555" y="128"/>
      <point x="565" y="170"/>
      <point x="575" y="198" type="curve" smooth="yes"/>
      <point x="697" y="552" type="line" smooth="yes"/>
      <point x="711" y="592"/>
      <point x="717" y="630"/>
      <point x="717" y="670" type="curve" smooth="yes"/>
      <point x="717" y="690"/>
      <point x="701" y="712"/>
      <point x="677" y="712" type="curve" smooth="yes"/>
      <point x="591" y="712"/>
      <point x="489" y="574"/>
    </contour>
  </outline>
</glyph>
<glyph name="i" format="2">
  <advance width="650"/>
  <unicode hex="0069"/>
  <outline>
    <contour>
      <point x="428" y="172" type="curve" smooth="yes"/>
      <point x="428" y="136"/>
      <point x="442" y="120"/>
      <point x="468" y="120" type="curve" smooth="yes"/>
      <point x="502" y="120"/>
      <point x="528" y="138"/>
      <point x="562" y="174" type="curve" smooth="yes"/>
      <point x="564" y="176"/>
      <point x="568" y="180"/>
      <point x="572" y="180" type="curve" smooth="yes"/>
      <point x="578" y="180"/>
      <point x="584" y="178"/>
      <point x="580" y="170" type="curve" smooth="yes"/>
      <point x="536" y="82"/>
      <point x="390" y="-18"/>
      <point x="176" y="-18" type="curve" smooth="yes"/>
      <point x="74" y="-18"/>
      <point x="30" y="22"/>
      <point x="30" y="82" type="curve" smooth="yes"/>
      <point x="30" y="126"/>
      <point x="41" y="168"/>
      <point x="62" y="226" type="curve" smooth="yes"/>
      <point x="206" y="618" type="line" smooth="yes"/>
      <point x="223" y="664"/>
      <point x="228" y="692"/>
      <point x="228" y="718" type="curve" smooth="yes"/>
      <point x="228" y="742"/>
      <point x="216" y="756"/>
      <point x="184" y="756" type="curve" smooth="yes"/>
      <point x="150" y="756"/>
      <point x="112" y="730"/>
      <point x="78" y="676" type="curve" smooth="yes"/>
      <point x="74" y="670"/>
      <point x="72" y="666"/>
      <point x="66" y="668" type="curve" smooth="yes"/>
      <point x="58" y="670"/>
      <point x="58" y="678"/>
      <point x="62" y="684" type="curve" smooth="yes"/>
      <point x="154" y="830"/>
      <point x="288" y="916"/>
      <point x="478" y="916" type="curve" smooth="yes"/>
      <point x="588" y="916"/>
      <point x="618" y="874"/>
      <point x="618" y="804" type="curve" smooth="yes"/>
      <point x="618" y="732"/>
      <point x="602" y="682"/>
      <point x="578" y="614" type="curve" smooth="yes"/>
      <point x="448" y="252" type="line" smooth="yes"/>
      <point x="434" y="214"/>
      <point x="428" y="194"/>
    </contour>
    <contour>
      <point x="486" y="1028" type="curve" smooth="yes"/>
      <point x="685" y="1028"/>
      <point x="790" y="1136"/>
      <point x="790" y="1266" type="curve" smooth="yes"/>
      <point x="790" y="1350"/>
      <point x="732" y="1408"/>
      <point x="592" y="1408" type="curve" smooth="yes"/>
      <point x="418" y="1408"/>
      <point x="304" y="1286"/>
      <point x="304" y="1172" type="curve" smooth="yes"/>
      <point x="304" y="1088"/>
      <point x="372" y="1028"/>
    </contour>
  </outline>
</glyph>
<glyph name="j" format="2">
  <advance width="575"/>
  <unicode hex="006A"/>
  <outline>
    <contour>
      <point x="549" y="678" type="line" smooth="yes"/>
      <point x="593" y="832"/>
      <point x="545" y="916"/>
      <point x="414" y="916" type="curve" smooth="yes"/>
      <point x="266" y="916"/>
      <point x="130" y="817"/>
      <point x="49" y="678" type="curve" smooth="yes"/>
      <point x="44" y="669"/>
      <point x="41" y="662"/>
      <point x="47" y="662" type="curve" smooth="yes"/>
      <point x="53" y="662"/>
      <point x="57" y="666"/>
      <point x="65" y="674" type="curve" smooth="yes"/>
      <point x="123" y="740"/>
      <point x="151" y="758"/>
      <point x="177" y="758" type="curve" smooth="yes"/>
      <point x="204" y="758"/>
      <point x="208" y="727"/>
      <point x="185" y="648" type="curve" smooth="yes"/>
      <point x="54" y="196" type="line" smooth="yes"/>
      <point x="-50" y="-162"/>
      <point x="205" y="-213"/>
      <point x="205" y="-317" type="curve" smooth="yes"/>
      <point x="205" y="-346"/>
      <point x="183" y="-365"/>
      <point x="155" y="-365" type="curve" smooth="yes"/>
      <point x="81" y="-365"/>
      <point x="-11" y="-247"/>
      <point x="-128" y="-247" type="curve" smooth="yes"/>
      <point x="-200" y="-247"/>
      <point x="-248" y="-297"/>
      <point x="-248" y="-352" type="curve" smooth="yes"/>
      <point x="-248" y="-424"/>
      <point x="-191" y="-475"/>
      <point x="-59" y="-475" type="curve" smooth="yes"/>
      <point x="120" y="-475"/>
      <point x="241" y="-393"/>
      <point x="301" y="-184" type="curve" smooth="yes"/>
    </contour>
    <contour>
      <point x="411" y="992" type="curve" smooth="yes"/>
      <point x="590" y="992"/>
      <point x="686" y="1089"/>
      <point x="686" y="1207" type="curve" smooth="yes"/>
      <point x="686" y="1282"/>
      <point x="634" y="1336"/>
      <point x="506" y="1336" type="curve" smooth="yes"/>
      <point x="349" y="1336"/>
      <point x="246" y="1226"/>
      <point x="246" y="1122" type="curve" smooth="yes"/>
      <point x="246" y="1046"/>
      <point x="308" y="992"/>
    </contour>
  </outline>
</glyph>
<glyph name="k" format="2">
  <advance width="1121"/>
  <unicode hex="006B"/>
  <outline>
    <contour>
      <point x="469" y="553" type="line"/>
      <point x="632" y="825"/>
      <point x="776" y="916"/>
      <point x="941" y="916" type="curve" smooth="yes"/>
      <point x="1061" y="916"/>
      <point x="1141" y="847"/>
      <point x="1141" y="723" type="curve" smooth="yes"/>
      <point x="1141" y="538"/>
      <point x="939" y="424"/>
      <point x="401" y="348" type="curve"/>
      <point x="397" y="378" type="line"/>
      <point x="702" y="415"/>
      <point x="799" y="494"/>
      <point x="799" y="674" type="curve" smooth="yes"/>
      <point x="799" y="740"/>
      <point x="774" y="772"/>
      <point x="731" y="772" type="curve" smooth="yes"/>
      <point x="650" y="772"/>
      <point x="504" y="660"/>
      <point x="423" y="362" type="curve" smooth="yes"/>
      <point x="395" y="262"/>
      <point x="377" y="200"/>
      <point x="377" y="150" type="curve" smooth="yes"/>
      <point x="377" y="116"/>
      <point x="393" y="102"/>
      <point x="393" y="82" type="curve" smooth="yes"/>
      <point x="393" y="16"/>
      <point x="271" y="-20"/>
      <point x="103" y="-20" type="curve" smooth="yes"/>
      <point x="4" y="-20"/>
      <point x="-13" y="30"/>
      <point x="21" y="162" type="curve" smooth="yes"/>
      <point x="219" y="920" type="line" smooth="yes"/>
      <point x="310" y="1269"/>
      <point x="571" y="1471"/>
      <point x="969" y="1471" type="curve" smooth="yes"/>
      <point x="1151.0" y="1471.0"/>
      <point x="1240.0" y="1389"/>
      <point x="1240.0" y="1309" type="curve" smooth="yes"/>
      <point x="1240" y="1250"/>
      <point x="1198" y="1213.0"/>
      <point x="1118" y="1213" type="curve" smooth="yes"/>
      <point x="949" y="1213.0"/>
      <point x="845" y="1409"/>
      <point x="751" y="1409.0" type="curve" smooth="yes"/>
      <point x="704" y="1409.0"/>
      <point x="682" y="1391"/>
      <point x="663" y="1313" type="curve" smooth="yes"/>
      <point x="554.3970246502093" y="858.4764364990244"/>
      <point x="504.14350530698727" y="674.6788904907476"/>
      <point x="478" y="551" type="curve"/>
    </contour>
    <contour>
      <point x="509" y="375" type="line"/>
      <point x="792" y="465" type="line"/>
      <point x="880" y="215" type="line" smooth="yes"/>
      <point x="896" y="168"/>
      <point x="919" y="144"/>
      <point x="951" y="144" type="curve" smooth="yes"/>
      <point x="985" y="144"/>
      <point x="1004" y="160"/>
      <point x="1048" y="219" type="curve" smooth="yes"/>
      <point x="1051" y="223"/>
      <point x="1056" y="225"/>
      <point x="1060" y="223" type="curve" smooth="yes"/>
      <point x="1064" y="221"/>
      <point x="1066" y="216"/>
      <point x="1063" y="210" type="curve" smooth="yes"/>
      <point x="984" y="41"/>
      <point x="885" y="-20"/>
      <point x="739" y="-20" type="curve" smooth="yes"/>
      <point x="643" y="-20"/>
      <point x="582" y="32"/>
      <point x="558" y="146" type="curve" smooth="yes"/>
    </contour>
  </outline>
</glyph>
<glyph name="l" format="2">
  <advance width="592"/>
  <unicode hex="006C"/>
  <outline>
    <contour>
      <point x="662" y="1470" type="curve" smooth="yes"/>
      <point x="483.97534246575344" y="1470.0"/>
      <point x="359.5141893909474" y="1388.8790315930987"/>
      <point x="303" y="1179" type="curve" smooth="yes"/>
      <point x="41" y="206" type="line" smooth="yes"/>
      <point x="2" y="61"/>
      <point x="26" y="-20"/>
      <point x="180" y="-20" type="curve" smooth="yes"/>
      <point x="354" y="-20.0"/>
      <point x="478.2456195609655" y="63.547526937985594"/>
      <point x="526" y="170" type="curve" smooth="yes"/>
      <point x="535" y="190"/>
      <point x="534" y="200"/>
      <point x="528" y="200" type="curve" smooth="yes"/>
      <point x="523" y="200"/>
      <point x="522" y="198"/>
      <point x="510" y="182" type="curve" smooth="yes"/>
      <point x="469" y="126"/>
      <point x="443" y="106"/>
      <point x="417" y="106" type="curve" smooth="yes"/>
      <point x="389" y="106"/>
      <point x="378" y="132"/>
      <point x="407" y="242" type="curve" smooth="yes"/>
      <point x="562" y="833" type="line" smooth="yes"/>
      <point x="645" y="1148"/>
      <point x="402" y="1211"/>
      <point x="402" y="1310" type="curve" smooth="yes"/>
      <point x="402" y="1340"/>
      <point x="421" y="1361"/>
      <point x="449" y="1361" type="curve" smooth="yes"/>
      <point x="513.0" y="1361.0"/>
      <point x="640.0" y="1247.0"/>
      <point x="741" y="1247" type="curve" smooth="yes"/>
      <point x="812.0" y="1247.0"/>
      <point x="855.0" y="1290.8301886792453"/>
      <point x="855" y="1348" type="curve" smooth="yes"/>
      <point x="855.0" y="1414.0"/>
      <point x="789.9786096256685" y="1470.0"/>
    </contour>
  </outline>
</glyph>
<glyph name="m" format="2">
  <advance width="1684"/>
  <unicode hex="006D"/>
  <outline>
    <contour>
      <point x="578" y="114" type="line" smooth="yes"/>
      <point x="550" y="16"/>
      <point x="562" y="-20"/>
      <point x="677" y="-20" type="curve" smooth="yes"/>
      <point x="868" y="-20"/>
      <point x="974" y="18"/>
      <point x="974" y="78" type="curve" smooth="yes"/>
      <point x="974" y="106"/>
      <point x="954" y="120"/>
      <point x="954" y="152" type="curve" smooth="yes"/>
      <point x="954" y="198"/>
      <point x="968" y="300"/>
      <point x="1000" y="389" type="curve" smooth="yes"/>
      <point x="1088" y="636"/>
      <point x="1188" y="737"/>
      <point x="1243" y="737" type="curve" smooth="yes"/>
      <point x="1286" y="737"/>
      <point x="1295" y="707"/>
      <point x="1264" y="597" type="curve" smooth="yes"/>
      <point x="1153" y="206" type="line" smooth="yes"/>
      <point x="1110" y="53"/>
      <point x="1126" y="-20"/>
      <point x="1282" y="-20" type="curve" smooth="yes"/>
      <point x="1472" y="-20"/>
      <point x="1589" y="64"/>
      <point x="1637" y="170" type="curve" smooth="yes"/>
      <point x="1646" y="190"/>
      <point x="1645" y="200"/>
      <point x="1639" y="200" type="curve" smooth="yes"/>
      <point x="1634" y="200"/>
      <point x="1633" y="198"/>
      <point x="1621" y="182" type="curve" smooth="yes"/>
      <point x="1580" y="126"/>
      <point x="1554" y="106"/>
      <point x="1528" y="106" type="curve" smooth="yes"/>
      <point x="1500" y="106"/>
      <point x="1487" y="134"/>
      <point x="1518" y="242" type="curve" smooth="yes"/>
      <point x="1641" y="678" type="line" smooth="yes"/>
      <point x="1685" y="833"/>
      <point x="1635" y="916"/>
      <point x="1507" y="916" type="curve" smooth="yes"/>
      <point x="1336" y="916"/>
      <point x="1162" y="790"/>
      <point x="1014" y="514" type="curve"/>
      <point x="1022" y="510" type="line"/>
      <point x="1048" y="582"/>
      <point x="1103" y="730"/>
      <point x="1103" y="798" type="curve" smooth="yes"/>
      <point x="1103" y="883"/>
      <point x="1057" y="916"/>
      <point x="968" y="916" type="curve" smooth="yes"/>
      <point x="821" y="916"/>
      <point x="618" y="823"/>
      <point x="473" y="510" type="curve"/>
      <point x="481" y="508" type="line"/>
      <point x="497" y="576"/>
      <point x="554" y="718"/>
      <point x="554" y="806" type="curve" smooth="yes"/>
      <point x="554" y="878"/>
      <point x="510" y="916"/>
      <point x="421" y="916" type="curve" smooth="yes"/>
      <point x="275" y="916"/>
      <point x="125" y="817"/>
      <point x="44" y="678" type="curve" smooth="yes"/>
      <point x="39" y="669"/>
      <point x="36" y="662"/>
      <point x="42" y="662" type="curve" smooth="yes"/>
      <point x="48" y="662"/>
      <point x="52" y="666"/>
      <point x="60" y="674" type="curve" smooth="yes"/>
      <point x="118" y="740"/>
      <point x="146" y="758"/>
      <point x="172" y="758" type="curve" smooth="yes"/>
      <point x="199" y="758"/>
      <point x="203" y="727"/>
      <point x="180" y="648" type="curve" smooth="yes"/>
      <point x="26" y="114" type="line" smooth="yes"/>
      <point x="-2" y="16"/>
      <point x="10" y="-20"/>
      <point x="124" y="-20" type="curve" smooth="yes"/>
      <point x="316" y="-20"/>
      <point x="422" y="18"/>
      <point x="422" y="78" type="curve" smooth="yes"/>
      <point x="422" y="106"/>
      <point x="402" y="120"/>
      <point x="402" y="152" type="curve" smooth="yes"/>
      <point x="402" y="198"/>
      <point x="419" y="300"/>
      <point x="451" y="390" type="curve" smooth="yes"/>
      <point x="538" y="635"/>
      <point x="639" y="737"/>
      <point x="694" y="737" type="curve" smooth="yes"/>
      <point x="737" y="737"/>
      <point x="746" y="707"/>
      <point x="715" y="597" type="curve" smooth="yes"/>
    </contour>
  </outline>
</glyph>
<glyph name="n" format="2">
  <advance width="1143"/>
  <unicode hex="006E"/>
  <outline>
    <contour>
      <point x="42" y="662" type="curve" smooth="yes"/>
      <point x="48" y="662"/>
      <point x="52" y="666"/>
      <point x="60" y="674" type="curve" smooth="yes"/>
      <point x="118" y="740"/>
      <point x="146" y="758"/>
      <point x="172" y="758" type="curve" smooth="yes"/>
      <point x="199" y="758"/>
      <point x="203" y="727"/>
      <point x="180" y="648" type="curve" smooth="yes"/>
      <point x="26" y="114" type="line" smooth="yes"/>
      <point x="-2" y="16"/>
      <point x="10" y="-20"/>
      <point x="124" y="-20" type="curve" smooth="yes"/>
      <point x="316" y="-20"/>
      <point x="422" y="18"/>
      <point x="422" y="78" type="curve" smooth="yes"/>
      <point x="422" y="106"/>
      <point x="402" y="120"/>
      <point x="402" y="152" type="curve" smooth="yes"/>
      <point x="402" y="198"/>
      <point x="420" y="300"/>
      <point x="451" y="390" type="curve" smooth="yes"/>
      <point x="539" y="636"/>
      <point x="647" y="737"/>
      <point x="703" y="737" type="curve" smooth="yes"/>
      <point x="750" y="737"/>
      <point x="759" y="708"/>
      <point x="726" y="597" type="curve" smooth="yes"/>
      <point x="609" y="206" type="line" smooth="yes"/>
      <point x="563" y="52"/>
      <point x="582" y="-20"/>
      <point x="738" y="-20" type="curve" smooth="yes"/>
      <point x="928" y="-20"/>
      <point x="1045" y="64"/>
      <point x="1093" y="170" type="curve" smooth="yes"/>
      <point x="1102" y="190"/>
      <point x="1101" y="200"/>
      <point x="1095" y="200" type="curve" smooth="yes"/>
      <point x="1090" y="200"/>
      <point x="1089" y="198"/>
      <point x="1077" y="182" type="curve" smooth="yes"/>
      <point x="1036" y="126"/>
      <point x="1010" y="106"/>
      <point x="984" y="106" type="curve" smooth="yes"/>
      <point x="956" y="106"/>
      <point x="942" y="134"/>
      <point x="974" y="242" type="curve" smooth="yes"/>
      <point x="1103" y="678" type="line" smooth="yes"/>
      <point x="1149" y="833"/>
      <point x="1096" y="916"/>
      <point x="966" y="916" type="curve" smooth="yes"/>
      <point x="828" y="916"/>
      <point x="618" y="823"/>
      <point x="473" y="510" type="curve"/>
      <point x="481" y="508" type="line"/>
      <point x="497" y="576"/>
      <point x="554" y="718"/>
      <point x="554" y="806" type="curve" smooth="yes"/>
      <point x="554" y="878"/>
      <point x="510" y="916"/>
      <point x="421" y="916" type="curve" smooth="yes"/>
      <point x="275" y="916"/>
      <point x="125" y="817"/>
      <point x="44" y="678" type="curve" smooth="yes"/>
      <point x="38" y="670"/>
      <point x="36" y="662"/>
    </contour>
  </outline>
</glyph>
<glyph name="o" format="2">
  <advance width="1132"/>
  <unicode hex="006F"/>
  <outline>
    <contour>
      <point x="659" y="917" type="curve" smooth="yes"/>
      <point x="349" y="917"/>
      <point x="119" y="748"/>
      <point x="58" y="483" type="curve" smooth="yes"/>
      <point x="-13" y="174"/>
      <point x="132" y="-20"/>
      <point x="436" y="-20" type="curve" smooth="yes"/>
      <point x="792" y="-20"/>
      <point x="1026" y="164"/>
      <point x="1058" y="455" type="curve" smooth="yes"/>
      <point x="1089" y="734"/>
      <point x="946" y="917"/>
    </contour>
    <contour>
      <point x="458" y="12" type="curve" smooth="yes"/>
      <point x="403" y="12"/>
      <point x="373" y="73"/>
      <point x="444" y="436" type="curve" smooth="yes"/>
      <point x="503" y="740"/>
      <point x="582" y="874"/>
      <point x="646" y="875" type="curve" smooth="yes"/>
      <point x="698" y="876"/>
      <point x="726" y="789"/>
      <point x="665" y="483" type="curve" smooth="yes"/>
      <point x="588" y="95"/>
      <point x="512" y="12"/>
    </contour>
  </outline>
</glyph>
<glyph name="p" format="2">
  <advance width="1105"/>
  <unicode hex="0070"/>
  <outline>
    <contour>
      <point x="640" y="1081" type="line" smooth="yes"/>
      <point x="647" y="1109"/>
      <point x="638" y="1122"/>
      <point x="623" y="1122.0" type="curve" smooth="yes"/>
      <point x="584.0" y="1122.0"/>
      <point x="279.9526774885118" y="998.306091985977"/>
      <point x="266" y="948" type="curve" smooth="yes"/>
      <point x="-99" y="-368" type="line" smooth="yes"/>
      <point x="-114" y="-421"/>
      <point x="-145" y="-447"/>
      <point x="-236" y="-453" type="curve" smooth="yes"/>
      <point x="-249" y="-454"/>
      <point x="-255" y="-459"/>
      <point x="-255" y="-464" type="curve" smooth="yes"/>
      <point x="-255" y="-469"/>
      <point x="-249" y="-471"/>
      <point x="-241" y="-471" type="curve" smooth="yes"/>
      <point x="394" y="-463" type="line" smooth="yes"/>
      <point x="400" y="-463"/>
      <point x="406" y="-458"/>
      <point x="406" y="-454" type="curve" smooth="yes"/>
      <point x="406" y="-448"/>
      <point x="400" y="-444"/>
      <point x="393" y="-443" type="curve" smooth="yes"/>
      <point x="316" y="-434" type="line" smooth="yes"/>
      <point x="267" y="-428"/>
      <point x="247" y="-400"/>
      <point x="263" y="-340" type="curve" smooth="yes"/>
    </contour>
    <contour>
      <point x="102" y="664" type="curve" smooth="yes"/>
      <point x="216" y="819"/>
      <point x="408" y="890"/>
      <point x="597" y="890" type="curve" smooth="yes"/>
      <point x="673" y="890"/>
      <point x="735" y="763"/>
      <point x="688" y="469" type="curve" smooth="yes"/>
      <point x="639" y="163"/>
      <point x="517" y="35"/>
      <point x="415" y="35" type="curve" smooth="yes"/>
      <point x="370" y="35"/>
      <point x="336" y="63"/>
      <point x="307" y="114" type="curve"/>
      <point x="289" y="107" type="line"/>
      <point x="334" y="24"/>
      <point x="397" y="-26"/>
      <point x="557" y="-26" type="curve" smooth="yes"/>
      <point x="813" y="-26"/>
      <point x="1008" y="131"/>
      <point x="1054" y="448" type="curve" smooth="yes"/>
      <point x="1093" y="720"/>
      <point x="947" y="917"/>
      <point x="684" y="917" type="curve" smooth="yes"/>
      <point x="376" y="917"/>
      <point x="190" y="821"/>
      <point x="85" y="680" type="curve" smooth="yes"/>
      <point x="77" y="669"/>
      <point x="78" y="665"/>
      <point x="83" y="661" type="curve" smooth="yes"/>
      <point x="90" y="655"/>
      <point x="98" y="658"/>
    </contour>
  </outline>
</glyph>
<glyph name="q" format="1">
  <advance width="444"/>
  <unicode hex="0071"/>
  <outline>
    <contour>
      <point x="206" y="181" type="curve" smooth="yes"/>
      <point x="206" y="289"/>
      <point x="287" y="369"/>
      <point x="352" y="369" type="curve" smooth="yes"/>
      <point x="369" y="369"/>
      <point x="380" y="348"/>
      <point x="380" y="333" type="curve" smooth="yes"/>
      <point x="380" y="237"/>
      <point x="314" y="108"/>
      <point x="257" y="108" type="curve" smooth="yes"/>
      <point x="224" y="108"/>
      <point x="206" y="131"/>
    </contour>
    <contour>
      <point x="315" y="74" type="line"/>
      <point x="242" y="-137" type="line" smooth="yes"/>
      <point x="234" y="-160"/>
      <point x="216" y="-176"/>
      <point x="168" y="-187" type="curve" smooth="yes"/>
      <point x="160" y="-188"/>
      <point x="160" y="-203"/>
      <point x="160" y="-212" type="curve" smooth="yes"/>
      <point x="160" y="-228"/>
      <point x="163" y="-233"/>
      <point x="175" y="-235" type="curve" smooth="yes"/>
      <point x="401" y="-227" type="line" smooth="yes"/>
      <point x="406" y="-229"/>
      <point x="410" y="-224"/>
      <point x="410" y="-210" type="curve" smooth="yes"/>
      <point x="410" y="-201"/>
      <point x="403" y="-189"/>
      <point x="401" y="-187" type="curve" smooth="yes"/>
      <point x="389" y="-189"/>
      <point x="372" y="-172"/>
      <point x="372" y="-160" type="curve" smooth="yes"/>
      <point x="372" y="-149"/>
      <point x="374" y="-136"/>
      <point x="380" y="-115" type="curve" smooth="yes"/>
      <point x="508" y="320" type="line" smooth="yes"/>
      <point x="516" y="346"/>
      <point x="573" y="353"/>
      <point x="573" y="368" type="curve" smooth="yes"/>
      <point x="573" y="425"/>
      <point x="532" y="456"/>
      <point x="454" y="456" type="curve" smooth="yes"/>
      <point x="209" y="456"/>
      <point x="57" y="309"/>
      <point x="57" y="120" type="curve" smooth="yes"/>
      <point x="57" y="33"/>
      <point x="95" y="-10"/>
      <point x="159" y="-10" type="curve" smooth="yes"/>
      <point x="223" y="-10"/>
      <point x="278" y="34"/>
      <point x="304" y="-11" type="curve"/>
    </contour>
  </outline>
</glyph>
<glyph name="r" format="2">
  <advance width="931"/>
  <unicode hex="0072"/>
  <outline>
    <contour>
      <point x="40" y="662" type="curve" smooth="yes"/>
      <point x="46" y="662"/>
      <point x="56" y="670"/>
      <point x="64" y="680" type="curve" smooth="yes"/>
      <point x="108" y="733"/>
      <point x="141" y="758"/>
      <point x="172" y="758" type="curve" smooth="yes"/>
      <point x="201" y="758"/>
      <point x="212" y="735"/>
      <point x="192" y="666" type="curve" smooth="yes"/>
      <point x="36" y="136" type="line" smooth="yes"/>
      <point x="8" y="42"/>
      <point x="19" y="-20"/>
      <point x="116" y="-20" type="curve" smooth="yes"/>
      <point x="314" y="-20"/>
      <point x="480" y="66"/>
      <point x="480" y="102" type="curve" smooth="yes"/>
      <point x="480" y="130"/>
      <point x="420" y="120"/>
      <point x="420" y="170" type="curve" smooth="yes"/>
      <point x="420" y="234"/>
      <point x="438" y="307"/>
      <point x="470" y="424" type="curve" smooth="yes"/>
      <point x="526" y="629"/>
      <point x="596" y="741.0"/>
      <point x="641" y="741" type="curve" smooth="yes"/>
      <point x="660" y="741"/>
      <point x="668" y="728"/>
      <point x="668" y="703" type="curve" smooth="yes"/>
      <point x="668" y="670"/>
      <point x="647" y="631"/>
      <point x="647" y="591" type="curve" smooth="yes"/>
      <point x="647" y="525"/>
      <point x="687" y="485"/>
      <point x="749" y="485" type="curve" smooth="yes"/>
      <point x="857" y="485"/>
      <point x="939" y="561"/>
      <point x="964" y="708" type="curve" smooth="yes"/>
      <point x="983" y="823"/>
      <point x="938" y="916"/>
      <point x="844" y="916" type="curve" smooth="yes"/>
      <point x="682" y="916.0"/>
      <point x="534" y="735"/>
      <point x="435" y="405" type="curve"/>
      <point x="449" y="400" type="line"/>
      <point x="475" y="555"/>
      <point x="559.0" y="681.2103746397695"/>
      <point x="559" y="810" type="curve" smooth="yes"/>
      <point x="559" y="872"/>
      <point x="515" y="916"/>
      <point x="449" y="916" type="curve" smooth="yes"/>
      <point x="278" y="916"/>
      <point x="131" y="817"/>
      <point x="42" y="680" type="curve" smooth="yes"/>
      <point x="34" y="668"/>
      <point x="36" y="662"/>
    </contour>
  </outline>
</glyph>
<glyph name="s" format="2">
  <advance width="926"/>
  <unicode hex="0073"/>
  <outline>
    <contour>
      <point x="353" y="6" type="curve" smooth="yes"/>
      <point x="289" y="6"/>
      <point x="256" y="44"/>
      <point x="256" y="130" type="curve" smooth="yes"/>
      <point x="256" y="254"/>
      <point x="190" y="318"/>
      <point x="114" y="318" type="curve" smooth="yes"/>
      <point x="30" y="318"/>
      <point x="-17" y="260"/>
      <point x="-19" y="188" type="curve" smooth="yes"/>
      <point x="-18" y="92"/>
      <point x="80" y="-20"/>
      <point x="322" y="-20" type="curve" smooth="yes"/>
      <point x="654" y="-20"/>
      <point x="820" y="88"/>
      <point x="819" y="270" type="curve" smooth="yes"/>
      <point x="818" y="370"/>
      <point x="782" y="432"/>
      <point x="650" y="520" type="curve" smooth="yes"/>
      <point x="500" y="618"/>
      <point x="455" y="678"/>
      <point x="455" y="768" type="curve" smooth="yes"/>
      <point x="456" y="862"/>
      <point x="502" y="902"/>
      <point x="560" y="902" type="curve" smooth="yes"/>
      <point x="618" y="902"/>
      <point x="654" y="866"/>
      <point x="651" y="762" type="curve" smooth="yes"/>
      <point x="652" y="636"/>
      <point x="695" y="584"/>
      <point x="781" y="584" type="curve" smooth="yes"/>
      <point x="861" y="584"/>
      <point x="920" y="628"/>
      <point x="920" y="712" type="curve" smooth="yes"/>
      <point x="920" y="818"/>
      <point x="825" y="922"/>
      <point x="603" y="922" type="curve" smooth="yes"/>
      <point x="267" y="922"/>
      <point x="121" y="770"/>
      <point x="121" y="614" type="curve" smooth="yes"/>
      <point x="120" y="480"/>
      <point x="176" y="394"/>
      <point x="315" y="314" type="curve" smooth="yes"/>
      <point x="422" y="250"/>
      <point x="450" y="206"/>
      <point x="449" y="124" type="curve" smooth="yes"/>
      <point x="448" y="50"/>
      <point x="411" y="6"/>
    </contour>
  </outline>
</glyph>
<glyph name="t" format="2">
  <advance width="644"/>
  <unicode hex="0074"/>
  <outline>
    <contour>
      <point x="199" y="861" type="line" smooth="yes"/>
      <point x="224" y="857"/>
      <point x="232" y="840"/>
      <point x="222" y="806" type="curve" smooth="yes"/>
      <point x="55" y="206" type="line" smooth="yes"/>
      <point x="12" y="51"/>
      <point x="48" y="-20"/>
      <point x="204" y="-20" type="curve" smooth="yes"/>
      <point x="388.2020202020202" y="-20.0"/>
      <point x="522.7460118639178" y="76.62932432103165"/>
      <point x="580" y="194" type="curve" smooth="yes"/>
      <point x="590" y="214"/>
      <point x="588" y="224"/>
      <point x="582" y="224" type="curve" smooth="yes"/>
      <point x="577" y="224"/>
      <point x="575" y="222"/>
      <point x="564" y="206" type="curve" smooth="yes"/>
      <point x="515.6854808195819" y="136.21236118384056"/>
      <point x="475.8775510204082" y="106.0"/>
      <point x="437" y="106" type="curve" smooth="yes"/>
      <point x="402" y="106"/>
      <point x="381" y="136"/>
      <point x="410" y="242" type="curve" smooth="yes"/>
      <point x="641" y="1084" type="line" smooth="yes"/>
      <point x="644" y="1096"/>
      <point x="645" y="1104"/>
      <point x="645" y="1108" type="curve" smooth="yes"/>
      <point x="645" y="1116"/>
      <point x="641" y="1122"/>
      <point x="635" y="1122" type="curve" smooth="yes"/>
      <point x="625" y="1122"/>
      <point x="617" y="1118"/>
      <point x="611" y="1114" type="curve" smooth="yes"/>
      <point x="270" y="906" type="line" smooth="yes"/>
      <point x="256" y="897"/>
      <point x="250" y="896"/>
      <point x="240" y="896" type="curve" smooth="yes"/>
      <point x="139" y="896" type="line" smooth="yes"/>
      <point x="131.0" y="896.0"/>
      <point x="125" y="892"/>
      <point x="125" y="886" type="curve" smooth="yes"/>
      <point x="125" y="880"/>
      <point x="131" y="873"/>
      <point x="137" y="872" type="curve" smooth="yes"/>
    </contour>
    <contour>
      <point x="519" y="870" type="line"/>
      <point x="703" y="870" type="line" smooth="yes"/>
      <point x="727.0" y="870.0"/>
      <point x="741" y="878"/>
      <point x="741" y="886" type="curve" smooth="yes"/>
      <point x="741" y="892"/>
      <point x="737.0" y="896.0"/>
      <point x="727" y="896" type="curve" smooth="yes"/>
      <point x="533" y="896" type="line"/>
    </contour>
  </outline>
</glyph>
<glyph name="u" format="1">
  <advance width="539"/>
  <unicode hex="0075"/>
  <outline>
    <component base="n" xScale="-1.0" yScale="-1.0" xOffset="661" yOffset="451"/>
    <contour>
      <point x="427" y="508" type="move" name="center"/>
    </contour>
  </outline>
</glyph>
<glyph name="v" format="2">
  <advance width="1102"/>
  <unicode hex="0076"/>
  <outline>
    <contour>
      <point x="1090" y="710" type="curve" smooth="yes"/>
      <point x="1090" y="839"/>
      <point x="1026" y="916"/>
      <point x="926" y="916" type="curve" smooth="yes"/>
      <point x="812" y="916"/>
      <point x="736" y="825"/>
      <point x="736" y="732" type="curve" smooth="yes"/>
      <point x="736" y="647"/>
      <point x="769" y="607"/>
      <point x="841" y="571" type="curve" smooth="yes"/>
      <point x="907" y="538"/>
      <point x="924" y="508"/>
      <point x="924" y="457" type="curve" smooth="yes"/>
      <point x="924" y="288"/>
      <point x="756" y="111"/>
      <point x="661" y="111" type="curve" smooth="yes"/>
      <point x="620" y="111"/>
      <point x="590" y="154"/>
      <point x="590" y="243" type="curve" smooth="yes"/>
      <point x="590" y="438"/>
      <point x="700" y="716"/>
      <point x="700" y="888" type="curve" smooth="yes"/>
      <point x="700" y="906"/>
      <point x="694" y="916"/>
      <point x="684" y="916" type="curve" smooth="yes"/>
      <point x="668" y="916"/>
      <point x="656" y="892"/>
      <point x="636" y="892" type="curve" smooth="yes"/>
      <point x="580" y="892"/>
      <point x="467" y="918"/>
      <point x="378" y="918" type="curve" smooth="yes"/>
      <point x="160" y="918"/>
      <point x="30" y="772"/>
      <point x="30" y="586" type="curve" smooth="yes"/>
      <point x="30" y="474"/>
      <point x="86" y="422"/>
      <point x="182" y="422" type="curve" smooth="yes"/>
      <point x="250" y="422"/>
      <point x="310" y="468"/>
      <point x="310" y="538" type="curve" smooth="yes"/>
      <point x="310" y="614"/>
      <point x="266" y="656"/>
      <point x="172" y="662" type="curve" smooth="yes"/>
      <point x="114" y="666"/>
      <point x="86" y="686"/>
      <point x="86" y="712" type="curve" smooth="yes"/>
      <point x="86" y="748"/>
      <point x="110" y="766"/>
      <point x="146" y="766" type="curve" smooth="yes"/>
      <point x="247" y="766"/>
      <point x="390" y="608"/>
      <point x="625" y="608" type="curve"/>
      <point x="618" y="622" type="line"/>
      <point x="593" y="496"/>
      <point x="140" y="431"/>
      <point x="140" y="148" type="curve" smooth="yes"/>
      <point x="140" y="41"/>
      <point x="239" y="-20"/>
      <point x="389" y="-20" type="curve" smooth="yes"/>
      <point x="765" y="-20"/>
      <point x="1090" y="434"/>
    </contour>
  </outline>
</glyph>
<glyph name="w" format="2">
  <advance width="1542"/>
  <unicode hex="0077"/>
  <outline>
    <contour>
      <point x="1105" y="915" type="curve" smooth="yes"/>
      <point x="1008" y="945"/>
      <point x="885" y="875"/>
      <point x="820" y="711" type="curve" smooth="yes"/>
      <point x="770" y="584"/>
      <point x="735" y="420"/>
      <point x="735" y="290" type="curve" smooth="yes"/>
      <point x="735" y="75"/>
      <point x="829" y="-20"/>
      <point x="1015" y="-20" type="curve" smooth="yes"/>
      <point x="1270.1669758812616" y="-20.0"/>
      <point x="1534.0" y="327.00000000000006"/>
      <point x="1534" y="741" type="curve" smooth="yes"/>
      <point x="1534.0" y="870.0"/>
      <point x="1480" y="913"/>
      <point x="1402" y="916" type="curve" smooth="yes"/>
      <point x="1312" y="919"/>
      <point x="1242.0" y="847"/>
      <point x="1242.0" y="765" type="curve" smooth="yes"/>
      <point x="1242.0" y="705"/>
      <point x="1257" y="658"/>
      <point x="1301" y="620" type="curve" smooth="yes"/>
      <point x="1362" y="568"/>
      <point x="1401.0" y="519.0"/>
      <point x="1401.0" y="428" type="curve" smooth="yes"/>
      <point x="1401.0" y="254.0"/>
      <point x="1300.7511312217196" y="121.0"/>
      <point x="1190" y="121" type="curve" smooth="yes"/>
      <point x="1109" y="121"/>
      <point x="1067" y="169"/>
      <point x="1067" y="293" type="curve" smooth="yes"/>
      <point x="1067" y="417"/>
      <point x="1089" y="522"/>
      <point x="1112" y="627" type="curve"/>
      <point x="928" y="218"/>
      <point x="788" y="118"/>
      <point x="687" y="118" type="curve" smooth="yes"/>
      <point x="613" y="118"/>
      <point x="571" y="182"/>
      <point x="571" y="313" type="curve" smooth="yes"/>
      <point x="571" y="436"/>
      <point x="648" y="679"/>
      <point x="666" y="823" type="curve" smooth="yes"/>
      <point x="674" y="887"/>
      <point x="672" y="914"/>
      <point x="656" y="916" type="curve" smooth="yes"/>
      <point x="640" y="918"/>
      <point x="626" y="892"/>
      <point x="604" y="892" type="curve" smooth="yes"/>
      <point x="562" y="892"/>
      <point x="447" y="918"/>
      <point x="343" y="918" type="curve" smooth="yes"/>
      <point x="128" y="918"/>
      <point x="2" y="775"/>
      <point x="2" y="580" type="curve" smooth="yes"/>
      <point x="2" y="475"/>
      <point x="63" y="421"/>
      <point x="147" y="421" type="curve" smooth="yes"/>
      <point x="229" y="421"/>
      <point x="279" y="469"/>
      <point x="279" y="540" type="curve" smooth="yes"/>
      <point x="279" y="615"/>
      <point x="234" y="654"/>
      <point x="171" y="657" type="curve" smooth="yes"/>
      <point x="96" y="661"/>
      <point x="55" y="684"/>
      <point x="55" y="712" type="curve" smooth="yes"/>
      <point x="55" y="742"/>
      <point x="72" y="766"/>
      <point x="113" y="766" type="curve" smooth="yes"/>
      <point x="225" y="766"/>
      <point x="349" y="608"/>
      <point x="592" y="608" type="curve"/>
      <point x="585" y="622" type="line"/>
      <point x="579" y="502"/>
      <point x="120" y="430"/>
      <point x="120" y="149" type="curve" smooth="yes"/>
      <point x="120" y="47"/>
      <point x="205" y="-20"/>
      <point x="356" y="-20" type="curve" smooth="yes"/>
      <point x="701" y="-20"/>
      <point x="986" y="195"/>
      <point x="1134" y="633" type="curve" smooth="yes"/>
      <point x="1189" y="796"/>
      <point x="1167" y="896"/>
    </contour>
  </outline>
</glyph>
<glyph name="x" format="2">
  <advance width="1124"/>
  <unicode hex="0078"/>
  <outline>
    <contour>
      <point x="521" y="402" type="line"/>
      <point x="521" y="196"/>
      <point x="402" y="116"/>
      <point x="344" y="116" type="curve" smooth="yes"/>
      <point x="310" y="116"/>
      <point x="294" y="146"/>
      <point x="294" y="170" type="curve" smooth="yes"/>
      <point x="296" y="184"/>
      <point x="332" y="226"/>
      <point x="332" y="244" type="curve" smooth="yes"/>
      <point x="334" y="312"/>
      <point x="294" y="356"/>
      <point x="224" y="356" type="curve" smooth="yes"/>
      <point x="126" y="356"/>
      <point x="38" y="280"/>
      <point x="36" y="180" type="curve" smooth="yes"/>
      <point x="32" y="62"/>
      <point x="98" y="-20"/>
      <point x="222" y="-20" type="curve" smooth="yes"/>
      <point x="430" y="-20"/>
      <point x="574" y="154"/>
      <point x="574" y="394" type="curve"/>
    </contour>
    <contour>
      <point x="837" y="585" type="line" smooth="yes"/>
      <point x="843" y="821"/>
      <point x="758" y="916"/>
      <point x="576" y="916" type="curve" smooth="yes"/>
      <point x="376" y="916"/>
      <point x="234" y="770"/>
      <point x="230" y="658" type="curve" smooth="yes"/>
      <point x="230" y="610"/>
      <point x="264" y="600"/>
      <point x="294" y="600" type="curve" smooth="yes"/>
      <point x="322" y="600"/>
      <point x="332" y="606"/>
      <point x="356" y="612" type="curve" smooth="yes"/>
      <point x="416" y="714"/>
      <point x="448" y="732"/>
      <point x="502" y="732" type="curve" smooth="yes"/>
      <point x="524" y="732"/>
      <point x="521" y="702"/>
      <point x="522" y="554" type="curve" smooth="yes"/>
      <point x="523" y="326" type="line" smooth="yes"/>
      <point x="524" y="70"/>
      <point x="612" y="-20"/>
      <point x="836" y="-20" type="curve" smooth="yes"/>
      <point x="1060" y="-20"/>
      <point x="1234" y="156"/>
      <point x="1238" y="314" type="curve" smooth="yes"/>
      <point x="1238" y="338"/>
      <point x="1226" y="354"/>
      <point x="1198" y="354" type="curve" smooth="yes"/>
      <point x="1170" y="354"/>
      <point x="1164" y="346"/>
      <point x="1140" y="318" type="curve" smooth="yes"/>
      <point x="1098" y="216"/>
      <point x="1032" y="184"/>
      <point x="964" y="184" type="curve" smooth="yes"/>
      <point x="866" y="184.0"/>
      <point x="829" y="247"/>
      <point x="831" y="329" type="curve" smooth="yes"/>
    </contour>
    <contour>
      <point x="831" y="359" type="line"/>
      <point x="839" y="557"/>
      <point x="948" y="735"/>
      <point x="1060" y="735" type="curve" smooth="yes"/>
      <point x="1090" y="735"/>
      <point x="1112" y="708"/>
      <point x="1112" y="674" type="curve" smooth="yes"/>
      <point x="1110" y="652"/>
      <point x="1074" y="626"/>
      <point x="1074" y="610" type="curve" smooth="yes"/>
      <point x="1072" y="554"/>
      <point x="1102" y="520"/>
      <point x="1152" y="520" type="curve" smooth="yes"/>
      <point x="1262" y="520"/>
      <point x="1356" y="590"/>
      <point x="1358" y="712" type="curve" smooth="yes"/>
      <point x="1360" y="830"/>
      <point x="1294" y="916"/>
      <point x="1168" y="916" type="curve" smooth="yes"/>
      <point x="979.0" y="916.0"/>
      <point x="794" y="680"/>
      <point x="794" y="364" type="curve"/>
    </contour>
  </outline>
</glyph>
<glyph name="y" format="2">
  <advance width="898"/>
  <unicode hex="0079"/>
  <outline>
    <contour>
      <point x="750" y="514" type="curve" smooth="yes"/>
      <point x="656" y="186" type="line"/>
      <point x="652" y="176" type="line"/>
      <point x="630" y="336"/>
      <point x="538" y="524"/>
      <point x="492" y="678" type="curve" smooth="yes"/>
      <point x="446" y="868"/>
      <point x="394" y="916"/>
      <point x="296" y="916" type="curve" smooth="yes"/>
      <point x="182" y="916.0"/>
      <point x="68" y="823"/>
      <point x="38" y="710" type="curve" smooth="yes"/>
      <point x="28" y="672.0"/>
      <point x="45" y="641.0"/>
      <point x="69" y="634.0" type="curve" smooth="yes"/>
      <point x="88" y="628"/>
      <point x="117" y="641"/>
      <point x="135" y="664" type="curve" smooth="yes"/>
      <point x="147" y="680"/>
      <point x="163" y="703"/>
      <point x="176" y="703" type="curve" smooth="yes"/>
      <point x="192" y="703"/>
      <point x="206" y="701"/>
      <point x="211" y="687" type="curve" smooth="yes"/>
      <point x="403" y="150"/>
      <point x="450" y="-150"/>
      <point x="450" y="-226" type="curve" smooth="yes"/>
      <point x="450" y="-312"/>
      <point x="410" y="-360"/>
      <point x="326" y="-360" type="curve" smooth="yes"/>
      <point x="214" y="-360"/>
      <point x="152" y="-122"/>
      <point x="10" y="-122" type="curve" smooth="yes"/>
      <point x="-96" y="-122"/>
      <point x="-156" y="-210"/>
      <point x="-156" y="-296" type="curve" smooth="yes"/>
      <point x="-156" y="-406"/>
      <point x="-54" y="-490"/>
      <point x="130" y="-490" type="curve" smooth="yes"/>
      <point x="390" y="-490"/>
      <point x="572" y="-394"/>
      <point x="648" y="-156" type="curve" smooth="yes"/>
      <point x="832" y="419" type="line" smooth="yes"/>
      <point x="852" y="482"/>
      <point x="891" y="509"/>
      <point x="914" y="514" type="curve" smooth="yes"/>
      <point x="1082" y="570"/>
      <point x="1158" y="658"/>
      <point x="1158" y="766" type="curve" smooth="yes"/>
      <point x="1158" y="838"/>
      <point x="1104" y="908"/>
      <point x="1016" y="908" type="curve" smooth="yes"/>
      <point x="928" y="908"/>
      <point x="834" y="856"/>
    </contour>
  </outline>
</glyph>
<glyph name="z" format="1">
  <advance width="475"/>
  <unicode hex="007A"/>
  <outline>
    <contour>
      <point x="210" y="73" type="curve"/>
      <point x="231" y="152" type="line"/>
      <point x="258" y="152"/>
      <point x="331" y="131"/>
      <point x="366" y="131" type="curve" smooth="yes"/>
      <point x="425" y="131"/>
      <point x="453" y="152"/>
      <point x="471" y="202" type="curve" smooth="yes"/>
      <point x="477" y="207"/>
      <point x="485" y="209"/>
      <point x="494" y="209" type="curve" smooth="yes"/>
      <point x="506" y="209"/>
      <point x="515" y="202"/>
      <point x="515" y="185" type="curve" smooth="yes"/>
      <point x="515" y="68"/>
      <point x="437" y="-10"/>
      <point x="354" y="-10" type="curve" smooth="yes"/>
      <point x="205" y="-10"/>
      <point x="216" y="66"/>
      <point x="191" y="66" type="curve" smooth="yes"/>
      <point x="169" y="66"/>
      <point x="163" y="-10"/>
      <point x="122" y="-10" type="curve" smooth="yes"/>
      <point x="81" y="-10"/>
      <point x="54" y="11"/>
      <point x="54" y="52" type="curve" smooth="yes"/>
      <point x="54" y="86"/>
      <point x="95" y="109"/>
      <point x="146" y="141" type="curve" smooth="yes"/>
      <point x="163" y="156"/>
      <point x="235" y="177"/>
      <point x="287" y="222" type="curve" smooth="yes"/>
      <point x="388" y="306"/>
      <point x="435" y="336"/>
      <point x="435" y="367" type="curve"/>
      <point x="437" y="290" type="line"/>
      <point x="387" y="290"/>
      <point x="255" y="317"/>
      <point x="211" y="317" type="curve" smooth="yes"/>
      <point x="175" y="317"/>
      <point x="164" y="303"/>
      <point x="164" y="288" type="curve" smooth="yes"/>
      <point x="164" y="269"/>
      <point x="175" y="256"/>
      <point x="190" y="249" type="curve" smooth="yes"/>
      <point x="211" y="240"/>
      <point x="220" y="226"/>
      <point x="220" y="204" type="curve" smooth="yes"/>
      <point x="220" y="181"/>
      <point x="196" y="165"/>
      <point x="168" y="165" type="curve" smooth="yes"/>
      <point x="112" y="165"/>
      <point x="75" y="207"/>
      <point x="75" y="285" type="curve" smooth="yes"/>
      <point x="75" y="379"/>
      <point x="140" y="458"/>
      <point x="236" y="458" type="curve" smooth="yes"/>
      <point x="371" y="458"/>
      <point x="375" y="379"/>
      <point x="422" y="379" type="curve" smooth="yes"/>
      <point x="448" y="379"/>
      <point x="455" y="395"/>
      <point x="466" y="417" type="curve" smooth="yes"/>
      <point x="479" y="440"/>
      <point x="491" y="458"/>
      <point x="528" y="458" type="curve" smooth="yes"/>
      <point x="571" y="458"/>
      <point x="584" y="448"/>
      <point x="584" y="406" type="curve" smooth="yes"/>
      <point x="584" y="401"/>
      <point x="572" y="367"/>
      <point x="496" y="308" type="curve" smooth="yes"/>
      <point x="458" y="279"/>
      <point x="419" y="252"/>
      <point x="347" y="195" type="curve" smooth="yes"/>
      <point x="244" y="112"/>
      <point x="217" y="99"/>
    </contour>
  </outline>
</glyph>
<glyph name="braceleft" format="1">
  <advance width="441"/>
  <unicode hex="007B"/>
  <outline>
    <contour>
      <point x="308" y="289" type="curve" smooth="yes"/>
      <point x="310" y="299"/>
      <point x="321" y="308"/>
      <point x="335" y="308" type="curve" smooth="yes"/>
      <point x="386" y="308"/>
      <point x="434" y="354"/>
      <point x="449" y="421" type="curve" smooth="yes"/>
      <point x="459" y="487"/>
      <point x="433" y="537"/>
      <point x="445" y="602" type="curve" smooth="yes"/>
      <point x="452" y="660"/>
      <point x="504" y="687"/>
      <point x="563" y="687" type="curve" smooth="yes"/>
      <point x="553" y="687" type="line" smooth="yes"/>
      <point x="581" y="687"/>
      <point x="603" y="700"/>
      <point x="610" y="722" type="curve" smooth="yes"/>
      <point x="615" y="740"/>
      <point x="602" y="755"/>
      <point x="571" y="755" type="curve" smooth="yes"/>
      <point x="483" y="755" type="line" smooth="yes"/>
      <point x="383" y="755"/>
      <point x="294" y="692"/>
      <point x="272" y="600" type="curve" smooth="yes"/>
      <point x="250" y="521"/>
      <point x="339" y="466"/>
      <point x="324" y="403" type="curve" smooth="yes"/>
      <point x="313" y="360"/>
      <point x="271" y="335"/>
      <point x="237" y="333" type="curve" smooth="yes"/>
      <point x="189" y="333"/>
      <point x="211" y="368"/>
      <point x="170" y="368" type="curve" smooth="yes"/>
      <point x="141" y="368"/>
      <point x="110" y="336"/>
      <point x="98" y="290" type="curve" smooth="yes"/>
      <point x="86" y="243"/>
      <point x="99" y="215"/>
      <point x="129" y="215" type="curve" smooth="yes"/>
      <point x="175" y="215"/>
      <point x="181" y="247"/>
      <point x="218" y="247" type="curve" smooth="yes"/>
      <point x="254" y="245"/>
      <point x="276" y="214"/>
      <point x="265" y="172" type="curve" smooth="yes"/>
      <point x="249" y="111"/>
      <point x="133" y="57"/>
      <point x="112" y="-30" type="curve" smooth="yes"/>
      <point x="90" y="-120"/>
      <point x="148" y="-185"/>
      <point x="252" y="-185" type="curve" smooth="yes"/>
      <point x="329" y="-185" type="line" smooth="yes"/>
      <point x="360" y="-185"/>
      <point x="381" y="-168"/>
      <point x="386" y="-151" type="curve" smooth="yes"/>
      <point x="391" y="-126"/>
      <point x="377" y="-116"/>
      <point x="348" y="-116" type="curve" smooth="yes"/>
      <point x="358" y="-116" type="line" smooth="yes"/>
      <point x="296" y="-116"/>
      <point x="269" y="-84"/>
      <point x="288" y="-28" type="curve" smooth="yes"/>
      <point x="308" y="34"/>
      <point x="361" y="96"/>
      <point x="380" y="155" type="curve" smooth="yes"/>
      <point x="401" y="217"/>
      <point x="379" y="268"/>
      <point x="323" y="268" type="curve" smooth="yes"/>
      <point x="310" y="268"/>
      <point x="303" y="276"/>
    </contour>
  </outline>
</glyph>
<glyph name="bar" format="2">
  <advance width="400"/>
  <unicode hex="007C"/>
  <outline>
    <contour>
      <point x="235" y="612" type="curve" smooth="yes"/>
      <point x="187" y="435"/>
      <point x="66" y="21"/>
      <point x="7" y="-196" type="curve" smooth="yes"/>
      <point x="3" y="-213"/>
      <point x="7" y="-224"/>
      <point x="20" y="-224" type="curve" smooth="yes"/>
      <point x="32" y="-224"/>
      <point x="43" y="-213"/>
      <point x="47" y="-196" type="curve" smooth="yes"/>
      <point x="96" y="-12"/>
      <point x="204" y="422"/>
      <point x="255" y="612" type="curve" smooth="yes"/>
      <point x="305" y="802"/>
      <point x="431" y="1236"/>
      <point x="480" y="1420" type="curve" smooth="yes"/>
      <point x="485" y="1437"/>
      <point x="480" y="1448"/>
      <point x="468" y="1448" type="curve" smooth="yes"/>
      <point x="455" y="1448"/>
      <point x="445" y="1437"/>
      <point x="440" y="1420" type="curve" smooth="yes"/>
      <point x="382" y="1203"/>
      <point x="282" y="788"/>
    </contour>
  </outline>
</glyph>
<glyph name="currency" format="1">
  <advance width="580"/>
  <unicode hex="00A4"/>
  <outline>
    <contour>
      <point x="320" y="123" type="curve" smooth="yes"/>
      <point x="209" y="123"/>
      <point x="146" y="217"/>
      <point x="174" y="326" type="curve" smooth="yes"/>
      <point x="204" y="436"/>
      <point x="318" y="527"/>
      <point x="430" y="527" type="curve" smooth="yes"/>
      <point x="543" y="527"/>
      <point x="606" y="436"/>
      <point x="577" y="326" type="curve" smooth="yes"/>
      <point x="548" y="217"/>
      <point x="434" y="123"/>
    </contour>
    <contour>
      <point x="343" y="203" type="curve" smooth="yes"/>
      <point x="409" y="203"/>
      <point x="479" y="258"/>
      <point x="498" y="326" type="curve" smooth="yes"/>
      <point x="516" y="395"/>
      <point x="474" y="448"/>
      <point x="409" y="448" type="curve" smooth="yes"/>
      <point x="340" y="448"/>
      <point x="274" y="395"/>
      <point x="255" y="326" type="curve" smooth="yes"/>
      <point x="236" y="258"/>
      <point x="275" y="203"/>
    </contour>
    <contour>
      <point x="516" y="429" type="line"/>
      <point x="563" y="473"/>
      <point x="587" y="501"/>
      <point x="606" y="514" type="curve"/>
      <point x="638" y="543"/>
      <point x="660" y="539"/>
      <point x="669" y="526" type="curve" smooth="yes"/>
      <point x="678" y="512"/>
      <point x="676" y="492"/>
      <point x="643" y="466" type="curve" smooth="yes"/>
      <point x="624" y="449"/>
      <point x="592" y="434"/>
      <point x="539" y="398" type="curve"/>
    </contour>
    <contour>
      <point x="248" y="399" type="line"/>
      <point x="215" y="434"/>
      <point x="191" y="449"/>
      <point x="183" y="463" type="curve" smooth="yes"/>
      <point x="162" y="489"/>
      <point x="171" y="512"/>
      <point x="188" y="526" type="curve" smooth="yes"/>
      <point x="205" y="541"/>
      <point x="226" y="543"/>
      <point x="247" y="516" type="curve"/>
      <point x="257" y="501"/>
      <point x="266" y="474"/>
      <point x="289" y="433" type="curve"/>
    </contour>
    <contour>
      <point x="110" y="173" type="curve" smooth="yes"/>
      <point x="131" y="188"/>
      <point x="162" y="206"/>
      <point x="214" y="242" type="curve"/>
      <point x="237" y="212" type="line"/>
      <point x="189" y="168"/>
      <point x="165" y="140"/>
      <point x="145" y="124" type="curve" smooth="yes"/>
      <point x="115" y="98"/>
      <point x="93" y="102"/>
      <point x="82" y="114" type="curve" smooth="yes"/>
      <point x="76" y="127"/>
      <point x="76" y="148"/>
    </contour>
    <contour>
      <point x="568" y="173" type="curve" smooth="yes"/>
      <point x="590" y="150"/>
      <point x="583" y="127"/>
      <point x="564" y="114" type="curve" smooth="yes"/>
      <point x="549" y="102"/>
      <point x="523" y="100"/>
      <point x="509" y="126" type="curve" smooth="yes"/>
      <point x="499" y="139"/>
      <point x="489" y="167"/>
      <point x="464" y="208" type="curve"/>
      <point x="504" y="240" type="line"/>
      <point x="534" y="205"/>
      <point x="557" y="186"/>
    </contour>
  </outline>
</glyph>
